mtllib chess.mtl
o board
v -0.487622 0.000000 0.731451
v -0.487622 0.000000 0.853399
v -0.365775 0.000000 0.731451
v -0.365775 0.000000 0.853399
v -0.243861 0.000000 0.853399
v -0.365775 0.000000 0.975279
v -0.243861 0.000000 0.975279
v -0.487622 0.000000 0.975279
v -0.000034 0.000000 -0.731451
v -0.000034 0.000000 -0.609570
v 0.121880 0.000000 -0.731451
v 0.121880 0.000000 -0.609570
v 0.243794 0.000000 -0.609570
v 0.243794 0.000000 -0.487622
v -0.000034 0.000000 -0.487622
v 0.121880 0.000000 -0.487622
v 0.487621 0.000000 0.731451
v 0.487621 0.000000 0.853399
v 0.609535 0.000000 0.731451
v 0.609535 0.000000 0.853399
v 0.731449 0.000000 0.853399
v 0.609535 0.000000 0.975279
v 0.731449 0.000000 0.975279
v 0.487621 0.000000 0.975279
v -0.731449 0.000000 -0.731451
v -0.853363 0.000000 -0.731451
v -0.731449 0.000000 -0.609570
v -0.853363 0.000000 -0.609570
v -0.731449 0.000000 -0.487622
v -0.853363 0.000000 -0.487622
v -0.975277 0.000000 -0.609570
v -0.975277 0.000000 -0.487622
v 0.975277 0.000000 0.243862
v 0.975277 0.000000 0.121914
v 0.853363 0.000000 0.243862
v 0.853363 0.000000 0.121914
v 0.731449 0.000000 0.243862
v 0.731449 0.000000 0.121914
v 0.975277 0.000000 0.000034
v 0.853363 0.000000 0.000034
v 0.731449 0.000000 0.000034
v 0.975277 0.000000 -0.243794
v 0.975277 0.000000 -0.365742
v 0.853363 0.000000 -0.243794
v 0.853363 0.000000 -0.365742
v 0.731449 0.000000 -0.243794
v 0.731449 0.000000 -0.365742
v 0.975277 0.000000 -0.487622
v 0.853363 0.000000 -0.487622
v 0.731449 0.000000 -0.487622
v -0.243861 0.000000 -0.487622
v -0.243861 0.000000 -0.365742
v -0.121948 0.000000 -0.487622
v -0.121948 0.000000 -0.365742
v -0.000034 0.000000 -0.365742
v -0.000034 0.000000 -0.243794
v -0.243861 0.000000 -0.243794
v -0.121948 0.000000 -0.243794
v 0.243794 0.000000 -0.365742
v 0.365708 0.000000 -0.487622
v 0.365708 0.000000 -0.365742
v 0.487621 0.000000 -0.365742
v 0.487621 0.000000 -0.243794
v 0.243794 0.000000 -0.243794
v 0.365708 0.000000 -0.243794
v 0.243794 0.000000 -0.975279
v 0.243794 0.000000 -0.853398
v 0.365708 0.000000 -0.975279
v 0.365708 0.000000 -0.853398
v 0.487621 0.000000 -0.853398
v 0.487621 0.000000 -0.731451
v 0.243794 0.000000 -0.731451
v 0.365708 0.000000 -0.731451
v 0.609535 0.000000 0.243862
v 0.731449 0.000000 0.365742
v 0.609535 0.000000 0.365742
v 0.731449 0.000000 0.487623
v 0.609535 0.000000 0.487623
v 0.487621 0.000000 0.365742
v 0.487621 0.000000 0.487623
v 0.731449 0.000000 -0.731451
v 0.609535 0.000000 -0.731451
v 0.731449 0.000000 -0.609570
v 0.609535 0.000000 -0.609570
v 0.609535 0.000000 -0.487622
v 0.487621 0.000000 -0.609570
v 0.487621 0.000000 -0.487622
v 0.975277 0.000000 0.731451
v 0.975277 0.000000 0.609570
v 0.853363 0.000000 0.731451
v 0.853363 0.000000 0.609570
v 0.731449 0.000000 0.731451
v 0.731449 0.000000 0.609570
v 0.975277 0.000000 0.487623
v 0.853363 0.000000 0.487623
v -0.731449 0.000000 0.000034
v -0.731449 0.000000 0.121914
v -0.609535 0.000000 0.000034
v -0.609535 0.000000 0.121914
v -0.487622 0.000000 0.121914
v -0.487622 0.000000 0.243862
v -0.731449 0.000000 0.243862
v -0.609535 0.000000 0.243862
v -0.731449 0.000000 0.487623
v -0.731449 0.000000 0.609570
v -0.609535 0.000000 0.487623
v -0.609535 0.000000 0.609570
v -0.487622 0.000000 0.609570
v -0.731449 0.000000 0.731451
v -0.609535 0.000000 0.731451
v 0.731449 0.000000 -0.975279
v 0.731449 0.000000 -0.853398
v 0.853363 0.000000 -0.975279
v 0.853363 0.000000 -0.853398
v 0.975277 0.000000 -0.975279
v 0.975277 0.000000 -0.853398
v 0.853363 0.000000 -0.731451
v 0.975277 0.000000 -0.731451
v 0.243794 0.000000 0.975279
v 0.243794 0.000000 0.853399
v 0.121880 0.000000 0.975279
v 0.121880 0.000000 0.853399
v -0.000034 0.000000 0.975279
v -0.000034 0.000000 0.853399
v 0.121880 0.000000 0.731451
v 0.243794 0.000000 0.731451
v -0.731449 0.000000 -0.365742
v -0.609535 0.000000 -0.487622
v -0.609535 0.000000 -0.365742
v -0.487622 0.000000 -0.365742
v -0.487622 0.000000 -0.243794
v -0.731449 0.000000 -0.243794
v -0.609535 0.000000 -0.243794
v -0.000034 0.000000 -0.121914
v 0.121880 0.000000 -0.243794
v 0.121880 0.000000 -0.121914
v 0.243794 0.000000 -0.121914
v 0.243794 0.000000 0.000034
v -0.000034 0.000000 0.000034
v 0.121880 0.000000 0.000034
v -0.853363 0.000000 0.243862
v -0.731449 0.000000 0.365742
v -0.853363 0.000000 0.365742
v -0.853363 0.000000 0.487623
v -0.975277 0.000000 0.365742
v -0.975277 0.000000 0.487623
v -0.365775 0.000000 -0.243794
v -0.243861 0.000000 -0.121914
v -0.365775 0.000000 -0.121914
v -0.243861 0.000000 0.000034
v -0.365775 0.000000 0.000034
v -0.487622 0.000000 -0.121914
v -0.487622 0.000000 0.000034
v -0.731449 0.000000 0.975279
v -0.731449 0.000000 0.853399
v -0.853363 0.000000 0.975279
v -0.853363 0.000000 0.853399
v -0.975277 0.000000 0.975279
v -0.975277 0.000000 0.853399
v -0.853363 0.000000 0.731451
v -0.731449 0.000000 -0.975279
v -0.731449 0.000000 -0.853398
v -0.609535 0.000000 -0.975279
v -0.609535 0.000000 -0.853398
v -0.487622 0.000000 -0.853398
v -0.487622 0.000000 -0.731451
v -0.609535 0.000000 -0.731451
v -0.487622 0.000000 0.365742
v -0.365775 0.000000 0.243862
v -0.365775 0.000000 0.365742
v -0.243861 0.000000 0.365742
v -0.243861 0.000000 0.487623
v -0.487622 0.000000 0.487623
v -0.365775 0.000000 0.487623
v -0.000034 0.000000 -0.975279
v -0.121948 0.000000 -0.975279
v -0.000034 0.000000 -0.853398
v -0.121948 0.000000 -0.853398
v -0.121948 0.000000 -0.731451
v -0.243861 0.000000 -0.853398
v -0.243861 0.000000 -0.731451
v -0.243861 0.000000 0.609570
v -0.121948 0.000000 0.487623
v -0.121948 0.000000 0.609570
v -0.000034 0.000000 0.609570
v -0.000034 0.000000 0.731451
v -0.243861 0.000000 0.731451
v -0.121948 0.000000 0.731451
v -0.243861 0.000000 0.121914
v -0.121948 0.000000 0.000034
v -0.121948 0.000000 0.121914
v -0.000034 0.000000 0.121914
v -0.000034 0.000000 0.243862
v -0.243861 0.000000 0.243862
v -0.121948 0.000000 0.243862
v 0.365708 0.000000 0.487623
v 0.487621 0.000000 0.609570
v 0.365708 0.000000 0.609570
v 0.365708 0.000000 0.731451
v 0.243794 0.000000 0.609570
v -0.000034 0.000000 0.365742
v 0.121880 0.000000 0.243862
v 0.121880 0.000000 0.365742
v 0.243794 0.000000 0.365742
v 0.243794 0.000000 0.487623
v -0.000034 0.000000 0.487623
v 0.121880 0.000000 0.487623
v 0.487621 0.000000 0.000034
v 0.365708 0.000000 0.000034
v 0.487621 0.000000 0.121914
v 0.365708 0.000000 0.121914
v 0.487621 0.000000 0.243862
v 0.365708 0.000000 0.243862
v 0.243794 0.000000 0.121914
v 0.243794 0.000000 0.243862
v -0.487622 0.000000 -0.609570
v -0.365775 0.000000 -0.731451
v -0.365775 0.000000 -0.609570
v -0.243861 0.000000 -0.609570
v -0.487622 0.000000 -0.487622
v -0.365775 0.000000 -0.487622
v -0.853363 0.000000 -0.243794
v -0.731449 0.000000 -0.121914
v -0.853363 0.000000 -0.121914
v -0.853363 0.000000 0.000034
v -0.975277 0.000000 -0.121914
v -0.975277 0.000000 0.000034
v 0.609535 0.000000 -0.243794
v 0.731449 0.000000 -0.121914
v 0.609535 0.000000 -0.121914
v 0.609535 0.000000 0.000034
v 0.487621 0.000000 -0.121914
v -0.243861 0.000000 -0.975279
v -0.975277 0.000000 0.243862
v -0.975277 0.000000 0.731451
v -0.975277 0.000000 -0.731451
v -0.975277 0.000000 -0.243794
v 0.487621 0.000000 -0.975279
v -0.487622 0.000000 -0.975279
v -0.365775 0.000000 0.609570
v -0.121948 0.000000 -0.121914
v -0.975277 0.000000 -0.975279
v -0.975277 0.000000 -0.853398
v -0.853363 0.000000 -0.975279
v -0.853363 0.000000 -0.853398
v 0.609535 0.000000 0.609570
v 0.975277 0.000000 0.975279
v 0.975277 0.000000 0.853399
v 0.853363 0.000000 0.975279
v 0.853363 0.000000 0.853399
v 0.975277 0.000000 -0.121914
v 0.853363 0.000000 -0.121914
v -0.365775 0.000000 -0.365742
v 0.609535 0.000000 -0.365742
v 0.975277 0.000000 0.365742
v 0.853363 0.000000 0.365742
v -0.975277 0.000000 -0.365742
v -0.853363 0.000000 -0.365742
v 0.609535 0.000000 0.121914
v -0.365775 0.000000 0.121914
v 0.609535 0.000000 -0.975279
v 0.609535 0.000000 -0.853398
v 0.365708 0.000000 0.853399
v 0.365708 0.000000 0.975279
v 0.365708 0.000000 0.365742
v -0.609535 0.000000 0.853399
v -0.609535 0.000000 0.975279
v 0.121880 0.000000 0.609570
v 0.121880 0.000000 -0.365742
v -0.609535 0.000000 0.365742
v -0.121948 0.000000 0.365742
v -0.853363 0.000000 0.609570
v -0.975277 0.000000 0.609570
v -0.365775 0.000000 -0.975279
v -0.365775 0.000000 -0.853398
v -0.121948 0.000000 0.853399
v -0.121948 0.000000 0.975279
v 0.365708 0.000000 -0.609570
v -0.121948 0.000000 -0.609570
v 0.853363 0.000000 -0.609570
v 0.975277 0.000000 -0.609570
v -0.609535 0.000000 -0.609570
v -0.609535 0.000000 -0.121914
v -0.975277 0.000000 0.121914
v -0.853363 0.000000 0.121914
v 0.121880 0.000000 0.121914
v 0.121880 0.000000 -0.975279
v 0.121880 0.000000 -0.853398
v 0.365708 0.000000 -0.121914
vt 1.728675 -0.293132
vt 1.929229 -0.293132
vt 1.728675 -0.092578
vt 1.929229 -0.092578
vt 1.929229 0.107977
vt 2.129784 -0.092578
vt 2.129784 0.107977
vt 2.129784 -0.293132
vt -0.677881 0.509086
vt -0.477327 0.509086
vt -0.677881 0.709543
vt -0.477327 0.709543
vt -0.477327 0.910097
vt -0.276772 0.910097
vt -0.276772 0.509086
vt -0.276772 0.709543
vt 1.728675 1.311206
vt 1.929229 1.311206
vt 1.728675 1.511760
vt 1.929229 1.511760
vt 1.929229 1.712315
vt 2.129784 1.511760
vt 2.129784 1.712315
vt 2.129784 1.311206
vt -0.677881 -0.694241
vt -0.677881 -0.894795
vt -0.477327 -0.694241
vt -0.477327 -0.894795
vt -0.276772 -0.694241
vt -0.276772 -0.894795
vt -0.477327 -1.095350
vt -0.276772 -1.095350
vt 0.926457 2.113424
vt 0.725903 2.113424
vt 0.926457 1.912869
vt 0.725903 1.912869
vt 0.926457 1.712315
vt 0.725903 1.712315
vt 0.525446 2.113424
vt 0.525446 1.912869
vt 0.525446 1.712315
vt 0.124337 2.113424
vt -0.076218 2.113424
vt 0.124337 1.912869
vt -0.076218 1.912869
vt 0.124337 1.712315
vt -0.076218 1.712315
vt -0.276772 2.113424
vt -0.276772 1.912869
vt -0.276772 1.712315
vt -0.276772 0.107977
vt -0.076218 0.107977
vt -0.276772 0.308531
vt -0.076218 0.308531
vt -0.076218 0.509086
vt 0.124337 0.509086
vt 0.124337 0.107977
vt 0.124337 0.308531
vt -0.076218 0.910097
vt -0.276772 1.110651
vt -0.076218 1.110651
vt -0.076218 1.311206
vt 0.124337 1.311206
vt 0.124337 0.910097
vt 0.124337 1.110651
vt -1.078990 0.910097
vt -0.878435 0.910097
vt -1.078990 1.110651
vt -0.878435 1.110651
vt -0.878435 1.311206
vt -0.677881 1.311206
vt -0.677881 0.910097
vt -0.677881 1.110651
vt 0.926457 1.511760
vt 1.127012 1.712315
vt 1.127012 1.511760
vt 1.327566 1.712315
vt 1.327566 1.511760
vt 1.127012 1.311206
vt 1.327566 1.311206
vt -0.677881 1.712315
vt -0.677881 1.511760
vt -0.477327 1.712315
vt -0.477327 1.511760
vt -0.276772 1.511760
vt -0.477327 1.311206
vt -0.276772 1.311206
vt 1.728675 2.113424
vt 1.528121 2.113424
vt 1.728675 1.912869
vt 1.528121 1.912869
vt 1.728675 1.712315
vt 1.528121 1.712315
vt 1.327566 2.113424
vt 1.327566 1.912869
vt 0.525446 -0.694241
vt 0.725903 -0.694241
vt 0.525446 -0.493686
vt 0.725903 -0.493686
vt 0.725903 -0.293132
vt 0.926457 -0.293132
vt 0.926457 -0.694241
vt 0.926457 -0.493686
vt 1.327566 -0.694241
vt 1.528121 -0.694241
vt 1.327566 -0.493686
vt 1.528121 -0.493686
vt 1.528121 -0.293132
vt 1.728675 -0.694241
vt 1.728675 -0.493686
vt -1.078990 1.712315
vt -0.878435 1.712315
vt -1.078990 1.912869
vt -0.878435 1.912869
vt -1.078990 2.113424
vt -0.878435 2.113424
vt -0.677881 1.912869
vt -0.677881 2.113424
vt 2.129784 0.910097
vt 1.929229 0.910097
vt 2.129784 0.709543
vt 1.929229 0.709543
vt 2.129784 0.509086
vt 1.929229 0.509086
vt 1.728675 0.709543
vt 1.728675 0.910097
vt -0.076218 -0.694241
vt -0.276772 -0.493686
vt -0.076218 -0.493686
vt -0.076218 -0.293132
vt 0.124337 -0.293132
vt 0.124337 -0.694241
vt 0.124337 -0.493686
vt 0.324891 0.509086
vt 0.124337 0.709543
vt 0.324891 0.709543
vt 0.324891 0.910097
vt 0.525446 0.910097
vt 0.525446 0.509086
vt 0.525446 0.709543
vt 0.926457 -0.894795
vt 1.127012 -0.694241
vt 1.127012 -0.894795
vt 1.327566 -0.894795
vt 1.127012 -1.095350
vt 1.327566 -1.095350
vt 0.124337 -0.092578
vt 0.324891 0.107977
vt 0.324891 -0.092578
vt 0.525446 0.107977
vt 0.525446 -0.092578
vt 0.324891 -0.293132
vt 0.525446 -0.293132
vt 2.129784 -0.694241
vt 1.929229 -0.694241
vt 2.129784 -0.894795
vt 1.929229 -0.894795
vt 2.129784 -1.095350
vt 1.929229 -1.095350
vt 1.728675 -0.894795
vt -1.078990 -0.694241
vt -0.878435 -0.694241
vt -1.078990 -0.493686
vt -0.878435 -0.493686
vt -0.878435 -0.293132
vt -0.677881 -0.293132
vt -0.677881 -0.493686
vt 1.127012 -0.293132
vt 0.926457 -0.092578
vt 1.127012 -0.092578
vt 1.127012 0.107977
vt 1.327566 0.107977
vt 1.327566 -0.293132
vt 1.327566 -0.092578
vt -1.078990 0.509086
vt -1.078990 0.308531
vt -0.878435 0.509086
vt -0.878435 0.308531
vt -0.677881 0.308531
vt -0.878435 0.107977
vt -0.677881 0.107977
vt 1.528121 0.107977
vt 1.327566 0.308531
vt 1.528121 0.308531
vt 1.528121 0.509086
vt 1.728675 0.509086
vt 1.728675 0.107977
vt 1.728675 0.308531
vt 0.725903 0.107977
vt 0.525446 0.308531
vt 0.725903 0.308531
vt 0.725903 0.509086
vt 0.926457 0.509086
vt 0.926457 0.107977
vt 0.926457 0.308531
vt 1.327566 1.110651
vt 1.528121 1.311206
vt 1.528121 1.110651
vt 1.728675 1.110651
vt 1.528121 0.910097
vt 1.127012 0.509086
vt 0.926457 0.709543
vt 1.127012 0.709543
vt 1.127012 0.910097
vt 1.327566 0.910097
vt 1.327566 0.509086
vt 1.327566 0.709543
vt 0.525446 1.311206
vt 0.525446 1.110651
vt 0.725903 1.311206
vt 0.725903 1.110651
vt 0.926457 1.311206
vt 0.926457 1.110651
vt 0.725903 0.910097
vt 0.926457 0.910097
vt -0.477327 -0.293132
vt -0.677881 -0.092578
vt -0.477327 -0.092578
vt -0.477327 0.107977
vt -0.276772 -0.293132
vt -0.276772 -0.092578
vt 0.124337 -0.894795
vt 0.324891 -0.694241
vt 0.324891 -0.894795
vt 0.525446 -0.894795
vt 0.324891 -1.095350
vt 0.525446 -1.095350
vt 0.124337 1.511760
vt 0.324891 1.712315
vt 0.324891 1.511760
vt 0.525446 1.511760
vt 0.324891 1.311206
vt -1.078990 0.107977
vt 0.926457 -1.095350
vt 1.728675 -1.095350
vt -0.677881 -1.095350
vt 0.124337 -1.095350
vt -1.078990 1.311206
vt -1.078990 -0.293132
vt 1.528121 -0.092578
vt 0.324891 0.308531
vt -1.078990 -1.095350
vt -0.878435 -1.095350
vt -1.078990 -0.894795
vt -0.878435 -0.894795
vt 1.528121 1.511760
vt 2.129784 2.113424
vt 1.929229 2.113424
vt 2.129784 1.912869
vt 1.929229 1.912869
vt 0.324891 2.113424
vt 0.324891 1.912869
vt -0.076218 -0.092578
vt -0.076218 1.511760
vt 1.127012 2.113424
vt 1.127012 1.912869
vt -0.076218 -1.095350
vt -0.076218 -0.894795
vt 0.725903 1.511760
vt 0.725903 -0.092578
vt -1.078990 1.511760
vt -0.878435 1.511760
vt 1.929229 1.110651
vt 2.129784 1.110651
vt 1.127012 1.110651
vt 1.929229 -0.493686
vt 2.129784 -0.493686
vt 1.528121 0.709543
vt -0.076218 0.709543
vt 1.127012 -0.493686
vt 1.127012 0.308531
vt 1.528121 -0.894795
vt 1.528121 -1.095350
vt -1.078990 -0.092578
vt -0.878435 -0.092578
vt 1.929229 0.308531
vt 2.129784 0.308531
vt -0.477327 1.110651
vt -0.477327 0.308531
vt -0.477327 1.912869
vt -0.477327 2.113424
vt -0.477327 -0.493686
vt 0.324891 -0.493686
vt 0.725903 -1.095350
vt 0.725903 -0.894795
vt 0.725903 0.709543
vt -1.078990 0.709543
vt -0.878435 0.709543
vt 0.324891 1.110651
vn 0.000000 1.000000 0.000000
vn -0.000000 1.000000 0.000000
vn 0.000000 1.000000 0.000000
vn 0.000000 1.000000 0.000000
vn 0.000000 1.000000 -0.000000
vn 0.000000 1.000000 0.000000
vn 0.000000 1.000000 0.000000
vn 0.000000 1.000000 0.000000
vn -0.000000 1.000000 0.000000
vn 0.000000 1.000000 0.000000
vn 0.000000 1.000000 0.000000
vn 0.000000 1.000000 0.000000
vn -0.000000 1.000000 0.000000
vn 0.000000 1.000000 0.000000
vn 0.000000 1.000000 0.000000
vn -0.000000 1.000000 0.000000
vn 0.000000 1.000000 0.000000
vn 0.000000 1.000000 0.000000
vn 0.000000 1.000000 -0.000000
vn 0.000000 1.000000 0.000000
vn 0.000000 1.000000 0.000000
vn 0.000000 1.000000 -0.000000
vn 0.000000 1.000000 0.000000
vn 0.000000 1.000000 -0.000000
vn 0.000000 1.000000 0.000000
vn 0.000000 1.000000 -0.000000
vn 0.000000 1.000000 0.000000
vn 0.000000 1.000000 -0.000000
vn 0.000000 1.000000 0.000000
vn 0.000000 1.000000 0.000000
vn 0.000000 1.000000 0.000000
vn 0.000000 1.000000 0.000000
vn 0.000000 1.000000 0.000000
vn 0.000000 1.000000 0.000000
vn 0.000000 1.000000 0.000000
vn 0.000000 1.000000 0.000000
vn 0.000000 1.000000 0.000000
vn 0.000000 1.000000 0.000000
vn 0.000000 1.000000 0.000000
vn 0.000000 1.000000 0.000000
vn 0.000000 1.000000 0.000000
vn 0.000000 1.000000 0.000000
vn 0.000000 1.000000 0.000000
vn 0.000000 1.000000 0.000000
vn 0.000000 1.000000 0.000000
vn -0.000000 1.000000 0.000000
vn 0.000000 1.000000 0.000000
vn 0.000000 1.000000 0.000000
vn 0.000000 1.000000 0.000000
vn -0.000000 1.000000 0.000000
vn 0.000000 1.000000 0.000000
vn 0.000000 1.000000 0.000000
vn -0.000000 1.000000 0.000000
vn 0.000000 1.000000 0.000000
vn 0.000000 1.000000 0.000000
vn 0.000000 1.000000 0.000000
vn -0.000000 1.000000 0.000000
vn 0.000000 1.000000 0.000000
vn 0.000000 1.000000 0.000000
vn -0.000000 1.000000 0.000000
vn 0.000000 1.000000 0.000000
vn 0.000000 1.000000 0.000000
vn 0.000000 1.000000 0.000000
vn -0.000000 1.000000 0.000000
vn 0.000000 1.000000 0.000000
vn 0.000000 1.000000 -0.000000
vn 0.000000 1.000000 0.000000
vn 0.000000 1.000000 -0.000000
vn 0.000000 1.000000 0.000000
vn 0.000000 1.000000 -0.000000
vn 0.000000 1.000000 0.000000
vn 0.000000 1.000000 -0.000000
vn 0.000000 1.000000 -0.000000
vn 0.000000 1.000000 0.000000
vn 0.000000 1.000000 -0.000000
vn 0.000000 1.000000 0.000000
vn 0.000000 1.000000 -0.000000
vn 0.000000 1.000000 0.000000
vn 0.000000 1.000000 -0.000000
vn 0.000000 1.000000 0.000000
vn 0.000000 1.000000 0.000000
vn 0.000000 1.000000 0.000000
vn 0.000000 1.000000 0.000000
vn 0.000000 1.000000 0.000000
vn 0.000000 1.000000 0.000000
vn 0.000000 1.000000 0.000000
vn 0.000000 1.000000 0.000000
vn 0.000000 1.000000 0.000000
vn -0.000000 1.000000 0.000000
vn 0.000000 1.000000 0.000000
vn 0.000000 1.000000 0.000000
vn 0.000000 1.000000 0.000000
vn -0.000000 1.000000 0.000000
vn 0.000000 1.000000 0.000000
vn 0.000000 1.000000 0.000000
vn -0.000000 1.000000 0.000000
vn 0.000000 1.000000 0.000000
vn 0.000000 1.000000 0.000000
vn 0.000000 1.000000 0.000000
vn -0.000000 1.000000 0.000000
vn -0.000000 1.000000 0.000000
vn 0.000000 1.000000 0.000000
vn -0.000000 1.000000 0.000000
vn 0.000000 1.000000 0.000000
vn -0.000000 1.000000 0.000000
vn 0.000000 1.000000 0.000000
vn -0.000000 1.000000 0.000000
vn 0.000000 1.000000 0.000000
vn -0.000000 1.000000 0.000000
vn 0.000000 1.000000 0.000000
vn 0.000000 1.000000 0.000000
vn 0.000000 1.000000 0.000000
vn 0.000000 1.000000 0.000000
vn -0.000000 1.000000 0.000000
vn -0.000000 1.000000 0.000000
vn 0.000000 1.000000 0.000000
vn 0.000000 1.000000 0.000000
vn -0.000000 1.000000 0.000000
vn 0.000000 1.000000 0.000000
vn 0.000000 1.000000 0.000000
vn 0.000000 1.000000 0.000000
vn -0.000000 1.000000 0.000000
vn 0.000000 1.000000 0.000000
vn 0.000000 1.000000 0.000000
vn -0.000000 1.000000 0.000000
vn 0.000000 1.000000 0.000000
vn 0.000000 1.000000 0.000000
vn 0.000000 1.000000 0.000000
vn -0.000000 1.000000 0.000000
vn 0.000000 1.000000 0.000000
vn 0.000000 1.000000 -0.000000
vn 0.000000 1.000000 0.000000
vn 0.000000 1.000000 -0.000000
vn 0.000000 1.000000 0.000000
vn 0.000000 1.000000 -0.000000
vn 0.000000 1.000000 0.000000
vn 0.000000 1.000000 -0.000000
vn 0.000000 1.000000 -0.000000
vn 0.000000 1.000000 0.000000
vn 0.000000 1.000000 -0.000000
vn 0.000000 1.000000 0.000000
vn 0.000000 1.000000 -0.000000
vn 0.000000 1.000000 0.000000
vn 0.000000 1.000000 -0.000000
vn 0.000000 1.000000 0.000000
vn 0.000000 1.000000 0.000000
vn 0.000000 1.000000 0.000000
vn 0.000000 1.000000 0.000000
vn -0.000000 1.000000 0.000000
vn -0.000000 1.000000 0.000000
vn 0.000000 1.000000 0.000000
vn 0.000000 1.000000 0.000000
vn -0.000000 1.000000 0.000000
vn 0.000000 1.000000 0.000000
vn 0.000000 1.000000 0.000000
vn 0.000000 1.000000 0.000000
vn -0.000000 1.000000 0.000000
vn 0.000000 1.000000 0.000000
vn 0.000000 1.000000 0.000000
vn -0.000000 1.000000 0.000000
vn 0.000000 1.000000 0.000000
vn 0.000000 1.000000 0.000000
vn 0.000000 1.000000 0.000000
vn -0.000000 1.000000 0.000000
vn 0.000000 1.000000 0.000000
vn 0.000000 1.000000 -0.000000
vn 0.000000 1.000000 0.000000
vn 0.000000 1.000000 -0.000000
vn 0.000000 1.000000 0.000000
vn 0.000000 1.000000 -0.000000
vn 0.000000 1.000000 0.000000
vn 0.000000 1.000000 -0.000000
vn 0.000000 1.000000 0.000000
vn -0.000000 1.000000 0.000000
vn 0.000000 1.000000 0.000000
vn 0.000000 1.000000 0.000000
vn 0.000000 1.000000 0.000000
vn -0.000000 1.000000 0.000000
vn 0.000000 1.000000 0.000000
vn 0.000000 1.000000 0.000000
vn -0.000000 1.000000 0.000000
vn 0.000000 1.000000 0.000000
vn 0.000000 1.000000 0.000000
vn 0.000000 1.000000 0.000000
vn -0.000000 1.000000 0.000000
vn 0.000000 1.000000 0.000000
vn 0.000000 1.000000 -0.000000
vn 0.000000 1.000000 0.000000
vn 0.000000 1.000000 -0.000000
vn 0.000000 1.000000 0.000000
vn 0.000000 1.000000 -0.000000
vn 0.000000 1.000000 0.000000
vn 0.000000 1.000000 -0.000000
vn 0.000000 1.000000 0.000000
vn -0.000000 1.000000 0.000000
vn 0.000000 1.000000 0.000000
vn 0.000000 1.000000 0.000000
vn 0.000000 1.000000 0.000000
vn -0.000000 1.000000 0.000000
vn 0.000000 1.000000 0.000000
vn 0.000000 1.000000 -0.000000
vn 0.000000 1.000000 0.000000
vn 0.000000 1.000000 -0.000000
vn 0.000000 1.000000 0.000000
vn 0.000000 1.000000 -0.000000
vn 0.000000 1.000000 0.000000
vn 0.000000 1.000000 -0.000000
vn 0.000000 1.000000 0.000000
vn -0.000000 1.000000 0.000000
vn 0.000000 1.000000 0.000000
vn 0.000000 1.000000 0.000000
vn 0.000000 1.000000 0.000000
vn -0.000000 1.000000 0.000000
vn 0.000000 1.000000 0.000000
vn 0.000000 1.000000 -0.000000
vn 0.000000 1.000000 0.000000
vn 0.000000 1.000000 -0.000000
vn 0.000000 1.000000 0.000000
vn 0.000000 1.000000 -0.000000
vn 0.000000 1.000000 0.000000
vn 0.000000 1.000000 -0.000000
vn 0.000000 1.000000 -0.000000
vn 0.000000 1.000000 0.000000
vn 0.000000 1.000000 -0.000000
vn 0.000000 1.000000 0.000000
vn 0.000000 1.000000 -0.000000
vn 0.000000 1.000000 0.000000
vn 0.000000 1.000000 -0.000000
vn 0.000000 1.000000 0.000000
vn 0.000000 1.000000 0.000000
vn 0.000000 1.000000 0.000000
vn 0.000000 1.000000 0.000000
vn 0.000000 1.000000 0.000000
vn 0.000000 1.000000 0.000000
vn 0.000000 1.000000 0.000000
vn 0.000000 1.000000 0.000000
vn 0.000000 1.000000 0.000000
vn 0.000000 1.000000 0.000000
vn 0.000000 1.000000 0.000000
vn 0.000000 1.000000 0.000000
vn 0.000000 1.000000 0.000000
vn 0.000000 1.000000 0.000000
vn 0.000000 1.000000 0.000000
vn 0.000000 1.000000 0.000000
vn 0.000000 1.000000 0.000000
vn 0.000000 1.000000 0.000000
vn 0.000000 1.000000 0.000000
vn 0.000000 1.000000 0.000000
vn 0.000000 1.000000 0.000000
vn 0.000000 1.000000 0.000000
vn 0.000000 1.000000 0.000000
vn 0.000000 1.000000 0.000000
vn 0.000000 1.000000 0.000000
vn 0.000000 1.000000 0.000000
vn 0.000000 1.000000 0.000000
vn 0.000000 1.000000 0.000000
vn 0.000000 1.000000 0.000000
vn -0.000000 1.000000 0.000000
vn 0.000000 1.000000 0.000000
vn 0.000000 1.000000 0.000000
vn 0.000000 1.000000 0.000000
vn -0.000000 1.000000 0.000000
vn 0.000000 1.000000 0.000000
vn 0.000000 1.000000 0.000000
vn -0.000000 1.000000 0.000000
vn 0.000000 1.000000 0.000000
vn 0.000000 1.000000 0.000000
vn 0.000000 1.000000 0.000000
vn -0.000000 1.000000 0.000000
vn 0.000000 1.000000 0.000000
vn 0.000000 1.000000 0.000000
vn -0.000000 1.000000 0.000000
vn 0.000000 1.000000 0.000000
vn 0.000000 1.000000 0.000000
vn 0.000000 1.000000 0.000000
vn -0.000000 1.000000 0.000000
vn 0.000000 1.000000 0.000000
vn 0.000000 1.000000 0.000000
vn -0.000000 1.000000 0.000000
vn 0.000000 1.000000 0.000000
vn 0.000000 1.000000 0.000000
vn 0.000000 1.000000 0.000000
vn -0.000000 1.000000 0.000000
vn 0.000000 1.000000 0.000000
vn 0.000000 1.000000 0.000000
vn 0.000000 1.000000 0.000000
vn 0.000000 1.000000 0.000000
vn 0.000000 1.000000 0.000000
vn 0.000000 1.000000 0.000000
vn 0.000000 1.000000 0.000000
vn 0.000000 1.000000 0.000000
vn 0.000000 1.000000 0.000000
vn 0.000000 1.000000 0.000000
vn 0.000000 1.000000 0.000000
vn 0.000000 1.000000 0.000000
vn 0.000000 1.000000 0.000000
vn 0.000000 1.000000 0.000000
vn 0.000000 1.000000 0.000000
vn 0.000000 1.000000 0.000000
vn 0.000000 1.000000 0.000000
vn 0.000000 1.000000 0.000000
vn -0.000000 1.000000 0.000000
vn 0.000000 1.000000 0.000000
vn 0.000000 1.000000 0.000000
vn 0.000000 1.000000 0.000000
vn -0.000000 1.000000 0.000000
vn 0.000000 1.000000 0.000000
vn 0.000000 1.000000 0.000000
vn -0.000000 1.000000 0.000000
vn 0.000000 1.000000 0.000000
vn 0.000000 1.000000 0.000000
vn 0.000000 1.000000 0.000000
vn -0.000000 1.000000 0.000000
vn 0.000000 1.000000 0.000000
vn 0.000000 1.000000 0.000000
vn 0.000000 1.000000 0.000000
vn 0.000000 1.000000 0.000000
vn 0.000000 1.000000 0.000000
vn 0.000000 1.000000 0.000000
vn 0.000000 1.000000 0.000000
vn 0.000000 1.000000 0.000000
vn 0.000000 1.000000 0.000000
vn 0.000000 1.000000 0.000000
vn -0.000000 1.000000 0.000000
vn 0.000000 1.000000 0.000000
vn 0.000000 1.000000 0.000000
vn 0.000000 1.000000 0.000000
vn -0.000000 1.000000 0.000000
vn 0.000000 1.000000 0.000000
vn 0.000000 1.000000 -0.000000
vn 0.000000 1.000000 0.000000
vn 0.000000 1.000000 -0.000000
vn 0.000000 1.000000 0.000000
vn 0.000000 1.000000 -0.000000
vn 0.000000 1.000000 0.000000
vn 0.000000 1.000000 -0.000000
vn 0.000000 1.000000 0.000000
vn -0.000000 1.000000 0.000000
vn 0.000000 1.000000 0.000000
vn 0.000000 1.000000 0.000000
vn 0.000000 1.000000 0.000000
vn -0.000000 1.000000 0.000000
vn 0.000000 1.000000 0.000000
vn 0.000000 1.000000 -0.000000
vn 0.000000 1.000000 0.000000
vn 0.000000 1.000000 -0.000000
vn 0.000000 1.000000 0.000000
vn 0.000000 1.000000 -0.000000
vn 0.000000 1.000000 0.000000
vn 0.000000 1.000000 -0.000000
vn 0.000000 1.000000 -0.000000
vn 0.000000 1.000000 0.000000
vn 0.000000 1.000000 0.000000
vn 0.000000 1.000000 -0.000000
vn 0.000000 1.000000 0.000000
vn 0.000000 1.000000 0.000000
vn 0.000000 1.000000 0.000000
vn 0.000000 1.000000 -0.000000
vn 0.000000 1.000000 0.000000
vn 0.000000 1.000000 -0.000000
vn 0.000000 1.000000 0.000000
vn 0.000000 1.000000 -0.000000
vn 0.000000 1.000000 0.000000
vn 0.000000 1.000000 -0.000000
vn 0.000000 1.000000 0.000000
vn -0.000000 1.000000 0.000000
vn 0.000000 1.000000 0.000000
vn 0.000000 1.000000 0.000000
vn 0.000000 1.000000 -0.000000
vn 0.000000 1.000000 0.000000
vn 0.000000 1.000000 0.000000
vn 0.000000 1.000000 -0.000000
vn 0.000000 1.000000 0.000000
vn 0.000000 1.000000 -0.000000
vn 0.000000 1.000000 0.000000
vn 0.000000 1.000000 -0.000000
vn 0.000000 1.000000 0.000000
vn 0.000000 1.000000 -0.000000
vn 0.000000 1.000000 -0.000000
vn 0.000000 1.000000 0.000000
vn 0.000000 1.000000 -0.000000
vn 0.000000 1.000000 0.000000
vn 0.000000 1.000000 -0.000000
vn 0.000000 1.000000 0.000000
vn 0.000000 1.000000 -0.000000
vn 0.000000 1.000000 -0.000000
vn 0.000000 1.000000 0.000000
vn 0.000000 1.000000 0.000000
vn -0.000000 1.000000 0.000000
vn 0.000000 1.000000 -0.000000
vn 0.000000 1.000000 0.000000
vn 0.000000 1.000000 -0.000000
vn 0.000000 1.000000 -0.000000
vn 0.000000 1.000000 0.000000
vn 0.000000 1.000000 -0.000000
vn 0.000000 1.000000 0.000000
vn 0.000000 1.000000 -0.000000
vn 0.000000 1.000000 0.000000
vn 0.000000 1.000000 -0.000000
vn 0.000000 1.000000 -0.000000
vn 0.000000 1.000000 0.000000
vn 0.000000 1.000000 -0.000000
vn 0.000000 1.000000 0.000000
vn 0.000000 1.000000 -0.000000
vn 0.000000 1.000000 0.000000
vn 0.000000 1.000000 -0.000000
vn 0.000000 1.000000 0.000000
vn -0.000000 1.000000 0.000000
vn 0.000000 1.000000 0.000000
vn 0.000000 1.000000 0.000000
vn 0.000000 1.000000 0.000000
vn -0.000000 1.000000 0.000000
vn 0.000000 1.000000 0.000000
vn 0.000000 1.000000 -0.000000
vn 0.000000 1.000000 0.000000
vn 0.000000 1.000000 0.000000
vn 0.000000 1.000000 -0.000000
vn 0.000000 1.000000 0.000000
vn 0.000000 1.000000 0.000000
vn 0.000000 1.000000 0.000000
vn 0.000000 1.000000 0.000000
vn -0.000000 1.000000 0.000000
vn 0.000000 1.000000 0.000000
vn 0.000000 1.000000 0.000000
vn 0.000000 1.000000 0.000000
vn -0.000000 1.000000 0.000000
vn 0.000000 1.000000 0.000000
vn 0.000000 1.000000 0.000000
vn -0.000000 1.000000 0.000000
vn 0.000000 1.000000 0.000000
vn 0.000000 1.000000 0.000000
vn 0.000000 1.000000 0.000000
vn -0.000000 1.000000 0.000000
vn 0.000000 1.000000 0.000000
vn 0.000000 1.000000 0.000000
vn -0.000000 1.000000 0.000000
vn 0.000000 1.000000 0.000000
vn -0.000000 1.000000 0.000000
vn 0.000000 1.000000 0.000000
vn -0.000000 1.000000 0.000000
vn 0.000000 1.000000 0.000000
vn -0.000000 1.000000 0.000000
vn 0.000000 1.000000 -0.000000
vn 0.000000 1.000000 0.000000
vn 0.000000 1.000000 -0.000000
vn 0.000000 1.000000 0.000000
vn 0.000000 1.000000 -0.000000
vn 0.000000 1.000000 0.000000
vn 0.000000 1.000000 -0.000000
vn 0.000000 1.000000 -0.000000
vn 0.000000 1.000000 0.000000
vn 0.000000 1.000000 -0.000000
vn 0.000000 1.000000 0.000000
vn 0.000000 1.000000 -0.000000
vn 0.000000 1.000000 0.000000
vn 0.000000 1.000000 -0.000000
vn 0.000000 1.000000 0.000000
vn -0.000000 1.000000 0.000000
vn 0.000000 1.000000 0.000000
vn 0.000000 1.000000 0.000000
vn 0.000000 1.000000 0.000000
vn -0.000000 1.000000 0.000000
vn 0.000000 1.000000 0.000000
vn 0.000000 1.000000 0.000000
vn -0.000000 1.000000 0.000000
vn 0.000000 1.000000 0.000000
vn 0.000000 1.000000 0.000000
vn 0.000000 1.000000 0.000000
vn -0.000000 1.000000 0.000000
vn 0.000000 1.000000 0.000000
vn 0.000000 1.000000 -0.000000
vn 0.000000 1.000000 0.000000
vn 0.000000 1.000000 -0.000000
vn 0.000000 1.000000 0.000000
vn 0.000000 1.000000 -0.000000
vn 0.000000 1.000000 0.000000
vn 0.000000 1.000000 -0.000000
vn 0.000000 1.000000 -0.000000
vn 0.000000 1.000000 0.000000
vn 0.000000 1.000000 -0.000000
vn 0.000000 1.000000 0.000000
vn 0.000000 1.000000 -0.000000
vn 0.000000 1.000000 0.000000
vn 0.000000 1.000000 -0.000000
vn 0.000000 1.000000 0.000000
vn 0.000000 1.000000 0.000000
vn 0.000000 1.000000 0.000000
vn 0.000000 1.000000 0.000000
vn 0.000000 1.000000 0.000000
vn 0.000000 1.000000 0.000000
vn 0.000000 1.000000 0.000000
vn 0.000000 1.000000 0.000000
vn 0.000000 1.000000 0.000000
vn 0.000000 1.000000 0.000000
vn 0.000000 1.000000 0.000000
vn 0.000000 1.000000 0.000000
vn 0.000000 1.000000 0.000000
vn 0.000000 1.000000 0.000000
vn -0.000000 1.000000 0.000000
vn 0.000000 1.000000 0.000000
vn 0.000000 1.000000 0.000000
vn -0.000000 1.000000 0.000000
vn 0.000000 1.000000 0.000000
vn 0.000000 1.000000 0.000000
vn 0.000000 1.000000 0.000000
vn 0.000000 1.000000 0.000000
vn 0.000000 1.000000 0.000000
vn 0.000000 1.000000 0.000000
vn 0.000000 1.000000 0.000000
vn 0.000000 1.000000 0.000000
vn 0.000000 1.000000 0.000000
vn 0.000000 1.000000 0.000000
usemtl black_marble
f 1/1/1 2/2/1 3/3/1
f 2/2/2 4/4/2 3/3/2
f 3/3/3 4/4/3 5/5/3
f 4/4/4 6/6/4 5/5/4
f 5/5/5 6/6/5 7/7/5
f 6/6/6 4/4/6 8/8/6
f 4/4/7 2/2/7 8/8/7
f 9/9/8 10/10/8 11/11/8
f 10/10/9 12/12/9 11/11/9
f 11/11/10 12/12/10 13/13/10
f 12/12/11 14/14/11 13/13/11
f 10/10/12 15/15/12 12/12/12
f 15/15/13 16/16/13 12/12/13
f 12/12/14 16/16/14 14/14/14
f 17/17/15 18/18/15 19/19/15
f 18/18/16 20/20/16 19/19/16
f 19/19/17 20/20/17 21/21/17
f 20/20/18 22/22/18 21/21/18
f 21/21/19 22/22/19 23/23/19
f 22/22/20 20/20/20 24/24/20
f 20/20/21 18/18/21 24/24/21
f 25/25/22 26/26/22 27/27/22
f 26/26/23 28/28/23 27/27/23
f 27/27/24 28/28/24 29/29/24
f 28/28/25 30/30/25 29/29/25
f 26/26/26 31/31/26 28/28/26
f 31/31/27 32/32/27 28/28/27
f 28/28/28 32/32/28 30/30/28
f 33/33/29 34/34/29 35/35/29
f 34/34/30 36/36/30 35/35/30
f 35/35/31 36/36/31 37/37/31
f 36/36/32 38/38/32 37/37/32
f 34/34/33 39/39/33 36/36/33
f 39/39/34 40/40/34 36/36/34
f 36/36/35 40/40/35 38/38/35
f 40/40/36 41/41/36 38/38/36
f 42/42/37 43/43/37 44/44/37
f 43/43/38 45/45/38 44/44/38
f 44/44/39 45/45/39 46/46/39
f 45/45/40 47/47/40 46/46/40
f 43/43/41 48/48/41 45/45/41
f 48/48/42 49/49/42 45/45/42
f 45/45/43 49/49/43 47/47/43
f 49/49/44 50/50/44 47/47/44
f 51/51/45 52/52/45 53/53/45
f 52/52/46 54/54/46 53/53/46
f 53/53/47 54/54/47 55/55/47
f 54/54/48 56/56/48 55/55/48
f 52/52/49 57/57/49 54/54/49
f 57/57/50 58/58/50 54/54/50
f 54/54/51 58/58/51 56/56/51
f 14/14/52 59/59/52 60/60/52
f 59/59/53 61/61/53 60/60/53
f 60/60/54 61/61/54 62/62/54
f 61/61/55 63/63/55 62/62/55
f 59/59/56 64/64/56 61/61/56
f 64/64/57 65/65/57 61/61/57
f 61/61/58 65/65/58 63/63/58
f 66/66/59 67/67/59 68/68/59
f 67/67/60 69/69/60 68/68/60
f 68/68/61 69/69/61 70/70/61
f 69/69/62 71/71/62 70/70/62
f 67/67/63 72/72/63 69/69/63
f 72/72/64 73/73/64 69/69/64
f 69/69/65 73/73/65 71/71/65
f 37/37/66 74/74/66 75/75/66
f 74/74/67 76/76/67 75/75/67
f 75/75/68 76/76/68 77/77/68
f 76/76/69 78/78/69 77/77/69
f 74/74/70 79/79/70 76/76/70
f 79/79/71 80/80/71 76/76/71
f 76/76/72 80/80/72 78/78/72
f 81/81/73 82/82/73 83/83/73
f 82/82/74 84/84/74 83/83/74
f 83/83/75 84/84/75 50/50/75
f 84/84/76 85/85/76 50/50/76
f 82/82/77 86/86/77 84/84/77
f 86/86/78 87/87/78 84/84/78
f 84/84/79 87/87/79 85/85/79
f 88/88/80 89/89/80 90/90/80
f 89/89/81 91/91/81 90/90/81
f 90/90/82 91/91/82 92/92/82
f 91/91/83 93/93/83 92/92/83
f 89/89/84 94/94/84 91/91/84
f 94/94/85 95/95/85 91/91/85
f 91/91/86 95/95/86 93/93/86
f 95/95/87 77/77/87 93/93/87
f 96/96/88 97/97/88 98/98/88
f 97/97/89 99/99/89 98/98/89
f 98/98/90 99/99/90 100/100/90
f 99/99/91 101/101/91 100/100/91
f 97/97/92 102/102/92 99/99/92
f 102/102/93 103/103/93 99/99/93
f 99/99/94 103/103/94 101/101/94
f 104/104/95 105/105/95 106/106/95
f 105/105/96 107/107/96 106/106/96
f 106/106/97 107/107/97 108/108/97
f 107/107/98 1/1/98 108/108/98
f 105/105/99 109/109/99 107/107/99
f 109/109/100 110/110/100 107/107/100
f 110/110/101 1/1/101 107/107/101
f 111/111/102 112/112/102 113/113/102
f 112/112/103 114/114/103 113/113/103
f 113/113/104 114/114/104 115/115/104
f 114/114/105 116/116/105 115/115/105
f 112/112/106 81/81/106 114/114/106
f 81/81/107 117/117/107 114/114/107
f 114/114/108 117/117/108 116/116/108
f 117/117/109 118/118/109 116/116/109
f 119/119/110 120/120/110 121/121/110
f 120/120/111 122/122/111 121/121/111
f 121/121/112 122/122/112 123/123/112
f 122/122/113 124/124/113 123/123/113
f 124/124/114 122/122/114 125/125/114
f 122/122/115 120/120/115 125/125/115
f 125/125/116 120/120/116 126/126/116
f 29/29/117 127/127/117 128/128/117
f 127/127/118 129/129/118 128/128/118
f 128/128/119 129/129/119 130/130/119
f 129/129/120 131/131/120 130/130/120
f 127/127/121 132/132/121 129/129/121
f 132/132/122 133/133/122 129/129/122
f 129/129/123 133/133/123 131/131/123
f 56/56/124 134/134/124 135/135/124
f 134/134/125 136/136/125 135/135/125
f 135/135/126 136/136/126 137/137/126
f 136/136/127 138/138/127 137/137/127
f 134/134/128 139/139/128 136/136/128
f 139/139/129 140/140/129 136/136/129
f 136/136/130 140/140/130 138/138/130
f 102/102/131 141/141/131 142/142/131
f 141/141/132 143/143/132 142/142/132
f 142/142/133 143/143/133 104/104/133
f 143/143/134 144/144/134 104/104/134
f 141/141/135 145/145/135 143/143/135
f 145/145/136 146/146/136 143/143/136
f 143/143/137 146/146/137 144/144/137
f 57/57/138 147/147/138 148/148/138
f 147/147/139 149/149/139 148/148/139
f 148/148/140 149/149/140 150/150/140
f 149/149/141 151/151/141 150/150/141
f 147/147/142 152/152/142 149/149/142
f 152/152/143 153/153/143 149/149/143
f 149/149/144 153/153/144 151/151/144
f 154/154/145 155/155/145 156/156/145
f 155/155/146 157/157/146 156/156/146
f 156/156/147 157/157/147 158/158/147
f 157/157/148 159/159/148 158/158/148
f 159/159/149 157/157/149 160/160/149
f 157/157/150 155/155/150 160/160/150
f 160/160/151 155/155/151 109/109/151
f 161/161/152 162/162/152 163/163/152
f 162/162/153 164/164/153 163/163/153
f 163/163/154 164/164/154 165/165/154
f 164/164/155 166/166/155 165/165/155
f 162/162/156 25/25/156 164/164/156
f 25/25/157 167/167/157 164/164/157
f 164/164/158 167/167/158 166/166/158
f 101/101/159 168/168/159 169/169/159
f 168/168/160 170/170/160 169/169/160
f 169/169/161 170/170/161 171/171/161
f 170/170/162 172/172/162 171/171/162
f 168/168/163 173/173/163 170/170/163
f 173/173/164 174/174/164 170/170/164
f 170/170/165 174/174/165 172/172/165
f 175/175/166 176/176/166 177/177/166
f 176/176/167 178/178/167 177/177/167
f 177/177/168 178/178/168 9/9/168
f 178/178/169 179/179/169 9/9/169
f 176/176/170 180/180/170 178/178/170
f 180/180/171 181/181/171 178/178/171
f 178/178/172 181/181/172 179/179/172
f 172/172/173 182/182/173 183/183/173
f 182/182/174 184/184/174 183/183/174
f 183/183/175 184/184/175 185/185/175
f 184/184/176 186/186/176 185/185/176
f 182/182/177 187/187/177 184/184/177
f 187/187/178 188/188/178 184/184/178
f 184/184/179 188/188/179 186/186/179
f 150/150/180 189/189/180 190/190/180
f 189/189/181 191/191/181 190/190/181
f 190/190/182 191/191/182 192/192/182
f 191/191/183 193/193/183 192/192/183
f 189/189/184 194/194/184 191/191/184
f 194/194/185 195/195/185 191/191/185
f 191/191/186 195/195/186 193/193/186
f 80/80/187 196/196/187 197/197/187
f 196/196/188 198/198/188 197/197/188
f 197/197/189 198/198/189 17/17/189
f 198/198/190 199/199/190 17/17/190
f 196/196/191 200/200/191 198/198/191
f 200/200/192 126/126/192 198/198/192
f 198/198/193 126/126/193 199/199/193
f 193/193/194 201/201/194 202/202/194
f 201/201/195 203/203/195 202/202/195
f 202/202/196 203/203/196 204/204/196
f 203/203/197 205/205/197 204/204/197
f 201/201/198 206/206/198 203/203/198
f 206/206/199 207/207/199 203/203/199
f 203/203/200 207/207/200 205/205/200
f 208/208/201 209/209/201 210/210/201
f 209/209/202 211/211/202 210/210/202
f 210/210/203 211/211/203 212/212/203
f 211/211/204 213/213/204 212/212/204
f 209/209/205 214/214/205 211/211/205
f 214/214/206 215/215/206 211/211/206
f 211/211/207 215/215/207 213/213/207
f 166/166/208 216/216/208 217/217/208
f 216/216/209 218/218/209 217/217/209
f 217/217/210 218/218/210 219/219/210
f 218/218/211 51/51/211 219/219/211
f 216/216/212 220/220/212 218/218/212
f 220/220/213 221/221/213 218/218/213
f 218/218/214 221/221/214 51/51/214
f 132/132/215 222/222/215 223/223/215
f 222/222/216 224/224/216 223/223/216
f 223/223/217 224/224/217 96/96/217
f 224/224/218 225/225/218 96/96/218
f 222/222/219 226/226/219 224/224/219
f 226/226/220 227/227/220 224/224/220
f 224/224/221 227/227/221 225/225/221
f 46/46/222 228/228/222 229/229/222
f 228/228/223 230/230/223 229/229/223
f 229/229/224 230/230/224 41/41/224
f 230/230/225 231/231/225 41/41/225
f 228/228/226 232/232/226 230/230/226
f 232/232/227 208/208/227 230/230/227
f 230/230/228 208/208/228 231/231/228
f 152/152/229 147/147/229 131/131/229
f 180/180/230 176/176/230 233/233/230
f 145/145/231 141/141/231 234/234/231
f 159/159/232 160/160/232 235/235/232
f 31/31/233 26/26/233 236/236/233
f 226/226/234 222/222/234 237/237/234
f 124/124/235 125/125/235 186/186/235
f 214/214/236 209/209/236 138/138/236
f 200/200/237 196/196/237 205/205/237
f 86/86/238 82/82/238 71/71/238
f 232/232/239 228/228/239 63/63/239
f 79/79/240 74/74/240 212/212/240
f 19/19/241 21/21/241 92/92/241
f 60/60/242 62/62/242 87/87/242
f 68/68/243 70/70/243 238/238/243
f 202/202/244 204/204/244 215/215/244
f 135/135/245 137/137/245 64/64/245
f 11/11/246 13/13/246 72/72/246
f 183/183/247 185/185/247 206/206/247
f 190/190/248 192/192/248 139/139/248
f 53/53/249 55/55/249 15/15/249
f 3/3/250 5/5/250 187/187/250
f 169/169/251 171/171/251 194/194/251
f 217/217/252 219/219/252 181/181/252
f 106/106/253 108/108/253 173/173/253
f 98/98/254 100/100/254 153/153/254
f 128/128/255 130/130/255 220/220/255
f 163/163/256 165/165/256 239/239/256
usemtl white_marble
f 173/173/257 108/108/257 174/174/257
f 108/108/258 240/240/258 174/174/258
f 174/174/259 240/240/259 182/182/259
f 240/240/260 187/187/260 182/182/260
f 108/108/261 1/1/261 240/240/261
f 1/1/262 3/3/262 240/240/262
f 240/240/263 3/3/263 187/187/263
f 57/57/264 148/148/264 58/58/264
f 148/148/265 241/241/265 58/58/265
f 58/58/266 241/241/266 134/134/266
f 241/241/267 139/139/267 134/134/267
f 148/148/268 150/150/268 241/241/268
f 150/150/269 190/190/269 241/241/269
f 241/241/270 190/190/270 139/139/270
f 242/242/271 243/243/271 244/244/271
f 243/243/272 245/245/272 244/244/272
f 244/244/273 245/245/273 162/162/273
f 245/245/274 25/25/274 162/162/274
f 243/243/275 236/236/275 245/245/275
f 236/236/276 26/26/276 245/245/276
f 245/245/277 26/26/277 25/25/277
f 80/80/278 197/197/278 78/78/278
f 197/197/279 246/246/279 78/78/279
f 78/78/280 246/246/280 93/93/280
f 246/246/281 92/92/281 93/93/281
f 197/197/282 17/17/282 246/246/282
f 17/17/283 19/19/283 246/246/283
f 246/246/284 19/19/284 92/92/284
f 247/247/285 248/248/285 249/249/285
f 248/248/286 250/250/286 249/249/286
f 249/249/287 250/250/287 23/23/287
f 250/250/288 21/21/288 23/23/288
f 248/248/289 88/88/289 250/250/289
f 88/88/290 90/90/290 250/250/290
f 250/250/291 90/90/291 21/21/291
f 90/90/292 92/92/292 21/21/292
f 39/39/293 251/251/293 40/40/293
f 251/251/294 252/252/294 40/40/294
f 40/40/295 252/252/295 41/41/295
f 252/252/296 229/229/296 41/41/296
f 251/251/297 42/42/297 252/252/297
f 42/42/298 44/44/298 252/252/298
f 252/252/299 44/44/299 229/229/299
f 44/44/300 46/46/300 229/229/300
f 220/220/301 130/130/301 221/221/301
f 130/130/302 253/253/302 221/221/302
f 221/221/303 253/253/303 52/52/303
f 253/253/304 57/57/304 52/52/304
f 130/130/305 131/131/305 253/253/305
f 131/131/306 147/147/306 253/253/306
f 253/253/307 147/147/307 57/57/307
f 87/87/308 62/62/308 85/85/308
f 62/62/309 254/254/309 85/85/309
f 85/85/310 254/254/310 47/47/310
f 254/254/311 46/46/311 47/47/311
f 62/62/312 63/63/312 254/254/312
f 63/63/313 228/228/313 254/254/313
f 254/254/314 228/228/314 46/46/314
f 94/94/315 255/255/315 95/95/315
f 255/255/316 256/256/316 95/95/316
f 95/95/317 256/256/317 77/77/317
f 256/256/318 75/75/318 77/77/318
f 255/255/319 33/33/319 256/256/319
f 33/33/320 35/35/320 256/256/320
f 256/256/321 35/35/321 75/75/321
f 35/35/322 37/37/322 75/75/322
f 32/32/323 257/257/323 30/30/323
f 257/257/324 258/258/324 30/30/324
f 30/30/325 258/258/325 127/127/325
f 258/258/326 132/132/326 127/127/326
f 257/257/327 237/237/327 258/258/327
f 237/237/328 222/222/328 258/258/328
f 258/258/329 222/222/329 132/132/329
f 41/41/330 231/231/330 38/38/330
f 231/231/331 259/259/331 38/38/331
f 38/38/332 259/259/332 37/37/332
f 259/259/333 74/74/333 37/37/333
f 231/231/334 210/210/334 259/259/334
f 210/210/335 212/212/335 259/259/335
f 259/259/336 212/212/336 74/74/336
f 153/153/337 100/100/337 151/151/337
f 100/100/338 260/260/338 151/151/338
f 151/151/339 260/260/339 189/189/339
f 260/260/340 194/194/340 189/189/340
f 100/100/341 101/101/341 260/260/341
f 101/101/342 169/169/342 260/260/342
f 260/260/343 169/169/343 194/194/343
f 111/111/344 261/261/344 112/112/344
f 261/261/345 262/262/345 112/112/345
f 112/112/346 262/262/346 81/81/346
f 262/262/347 82/82/347 81/81/347
f 261/261/348 70/70/348 262/262/348
f 70/70/349 71/71/349 262/262/349
f 262/262/350 71/71/350 82/82/350
f 17/17/351 199/199/351 18/18/351
f 199/199/352 263/263/352 18/18/352
f 18/18/353 263/263/353 264/264/353
f 263/263/354 119/119/354 264/264/354
f 119/119/355 263/263/355 120/120/355
f 263/263/356 199/199/356 120/120/356
f 120/120/357 199/199/357 126/126/357
f 212/212/358 213/213/358 79/79/358
f 213/213/359 265/265/359 79/79/359
f 79/79/360 265/265/360 80/80/360
f 265/265/361 196/196/361 80/80/361
f 213/213/362 204/204/362 265/265/362
f 204/204/363 205/205/363 265/265/363
f 265/265/364 205/205/364 196/196/364
f 109/109/365 155/155/365 110/110/365
f 155/155/366 266/266/366 110/110/366
f 110/110/367 266/266/367 2/2/367
f 266/266/368 267/267/368 2/2/368
f 2/2/369 267/267/369 8/8/369
f 267/267/370 266/266/370 154/154/370
f 266/266/371 155/155/371 154/154/371
f 205/205/372 207/207/372 200/200/372
f 207/207/373 268/268/373 200/200/373
f 200/200/374 268/268/374 126/126/374
f 268/268/375 125/125/375 126/126/375
f 207/207/376 185/185/376 268/268/376
f 185/185/377 186/186/377 268/268/377
f 268/268/378 186/186/378 125/125/378
f 14/14/379 16/16/379 59/59/379
f 16/16/380 269/269/380 59/59/380
f 59/59/381 269/269/381 64/64/381
f 269/269/382 135/135/382 64/64/382
f 16/16/383 55/55/383 269/269/383
f 55/55/384 56/56/384 269/269/384
f 269/269/385 56/56/385 135/135/385
f 101/101/386 103/103/386 168/168/386
f 103/103/387 270/270/387 168/168/387
f 270/270/388 173/173/388 168/168/388
f 106/106/389 173/173/389 270/270/389
f 103/103/390 142/142/390 270/270/390
f 142/142/391 104/104/391 270/270/391
f 270/270/392 104/104/392 106/106/392
f 193/193/393 195/195/393 201/201/393
f 195/195/394 271/271/394 201/201/394
f 201/201/395 271/271/395 206/206/395
f 271/271/396 183/183/396 206/206/396
f 195/195/397 171/171/397 271/271/397
f 171/171/398 172/172/398 271/271/398
f 271/271/399 172/172/399 183/183/399
f 104/104/400 144/144/400 105/105/400
f 144/144/401 272/272/401 105/105/401
f 105/105/402 272/272/402 109/109/402
f 272/272/403 160/160/403 109/109/403
f 144/144/404 273/273/404 272/272/404
f 273/273/405 235/235/405 272/272/405
f 272/272/406 235/235/406 160/160/406
f 239/239/407 165/165/407 274/274/407
f 165/165/408 275/275/408 274/274/408
f 274/274/409 275/275/409 180/180/409
f 275/275/410 181/181/410 180/180/410
f 165/165/411 166/166/411 275/275/411
f 166/166/412 217/217/412 275/275/412
f 275/275/413 217/217/413 181/181/413
f 186/186/414 188/188/414 124/124/414
f 188/188/415 276/276/415 124/124/415
f 124/124/416 276/276/416 277/277/416
f 276/276/417 7/7/417 277/277/417
f 7/7/418 276/276/418 5/5/418
f 276/276/419 188/188/419 5/5/419
f 5/5/420 188/188/420 187/187/420
f 72/72/421 13/13/421 73/73/421
f 13/13/422 278/278/422 73/73/422
f 73/73/423 278/278/423 86/86/423
f 278/278/424 87/87/424 86/86/424
f 13/13/425 14/14/425 278/278/425
f 14/14/426 60/60/426 278/278/426
f 278/278/427 60/60/427 87/87/427
f 181/181/428 219/219/428 179/179/428
f 219/219/429 279/279/429 179/179/429
f 179/179/430 279/279/430 10/10/430
f 279/279/431 15/15/431 10/10/431
f 219/219/432 51/51/432 279/279/432
f 51/51/433 53/53/433 279/279/433
f 279/279/434 53/53/434 15/15/434
f 81/81/435 83/83/435 117/117/435
f 83/83/436 280/280/436 117/117/436
f 117/117/437 280/280/437 118/118/437
f 280/280/438 281/281/438 118/118/438
f 83/83/439 50/50/439 280/280/439
f 50/50/440 49/49/440 280/280/440
f 280/280/441 49/49/441 281/281/441
f 49/49/442 48/48/442 281/281/442
f 166/166/443 167/167/443 216/216/443
f 167/167/444 282/282/444 216/216/444
f 216/216/445 282/282/445 220/220/445
f 282/282/446 128/128/446 220/220/446
f 167/167/447 27/27/447 282/282/447
f 27/27/448 29/29/448 282/282/448
f 282/282/449 29/29/449 128/128/449
f 131/131/450 133/133/450 152/152/450
f 133/133/451 283/283/451 152/152/451
f 152/152/452 283/283/452 153/153/452
f 283/283/453 98/98/453 153/153/453
f 133/133/454 223/223/454 283/283/454
f 223/223/455 96/96/455 283/283/455
f 283/283/456 96/96/456 98/98/456
f 227/227/457 284/284/457 225/225/457
f 284/284/458 285/285/458 225/225/458
f 225/225/459 285/285/459 97/97/459
f 285/285/460 102/102/460 97/97/460
f 284/284/461 234/234/461 285/285/461
f 234/234/462 141/141/462 285/285/462
f 285/285/463 141/141/463 102/102/463
f 139/139/464 192/192/464 140/140/464
f 192/192/465 286/286/465 140/140/465
f 140/140/466 286/286/466 214/214/466
f 286/286/467 215/215/467 214/214/467
f 192/192/468 193/193/468 286/286/468
f 193/193/469 202/202/469 286/286/469
f 286/286/470 202/202/470 215/215/470
f 66/66/471 287/287/471 67/67/471
f 287/287/472 288/288/472 67/67/472
f 67/67/473 288/288/473 72/72/473
f 288/288/474 11/11/474 72/72/474
f 287/287/475 177/177/475 288/288/475
f 177/177/476 9/9/476 288/288/476
f 288/288/477 9/9/477 11/11/477
f 63/63/478 65/65/478 232/232/478
f 65/65/479 289/289/479 232/232/479
f 232/232/480 289/289/480 208/208/480
f 289/289/481 209/209/481 208/208/481
f 65/65/482 137/137/482 289/289/482
f 137/137/483 138/138/483 289/289/483
f 289/289/484 138/138/484 209/209/484
f 171/171/485 195/195/485 194/194/485
f 70/70/486 261/261/486 238/238/486
f 177/177/487 287/287/487 175/175/487
f 273/273/488 144/144/488 146/146/488
f 27/27/489 167/167/489 25/25/489
f 223/223/490 133/133/490 132/132/490
f 142/142/491 103/103/491 102/102/491
f 185/185/492 207/207/492 206/206/492
f 137/137/493 65/65/493 64/64/493
f 204/204/494 213/213/494 215/215/494
f 210/210/495 231/231/495 208/208/495
f 55/55/496 16/16/496 15/15/496
f 78/78/497 93/93/497 77/77/497
f 85/85/498 47/47/498 50/50/498
f 264/264/499 24/24/499 18/18/499
f 73/73/500 86/86/500 71/71/500
f 140/140/501 214/214/501 138/138/501
f 277/277/502 123/123/502 124/124/502
f 58/58/503 134/134/503 56/56/503
f 179/179/504 10/10/504 9/9/504
f 174/174/505 182/182/505 172/172/505
f 151/151/506 189/189/506 150/150/506
f 221/221/507 52/52/507 51/51/507
f 274/274/508 180/180/508 233/233/508
f 110/110/509 2/2/509 1/1/509
f 225/225/510 97/97/510 96/96/510
f 30/30/511 127/127/511 29/29/511
f 244/244/512 162/162/512 161/161/512
