mtllib chess.mtl
o rook
v 0.049108 0.155258 0.000034
v 0.042512 0.155258 0.024531
v 0.050994 0.167995 0.000034
v 0.044126 0.167995 0.025473
v 0.024537 0.155258 0.042500
v 0.025479 0.167995 0.044115
v 0.000034 0.155258 0.049028
v 0.000034 0.167995 0.050979
v -0.024537 0.155258 0.042500
v -0.025481 0.167995 0.044115
v -0.042512 0.155258 0.024531
v -0.044127 0.167995 0.025473
v -0.049042 0.155258 0.000034
v -0.050994 0.167995 0.000034
v -0.042512 0.155258 -0.024532
v -0.044127 0.167995 -0.025474
v -0.024537 0.155258 -0.042501
v -0.025481 0.167995 -0.044115
v 0.000034 0.155258 -0.049029
v 0.000034 0.167995 -0.050980
v 0.024537 0.155258 -0.042501
v 0.025479 0.167995 -0.044115
v 0.042512 0.155258 -0.024532
v 0.044126 0.167995 -0.025474
v 0.049108 0.155258 0.000034
v 0.050994 0.167995 0.000034
v 0.037664 0.078798 0.000034
v 0.032616 0.078798 -0.018877
v 0.035106 0.061812 0.000034
v 0.030462 0.061812 -0.017599
v 0.018883 0.078798 -0.032608
v 0.017603 0.061812 -0.030454
v 0.000034 0.078798 -0.037721
v 0.000034 0.061812 -0.035165
v -0.018815 0.078798 -0.032608
v -0.017605 0.061812 -0.030454
v -0.032617 0.078798 -0.018877
v -0.030394 0.061812 -0.017599
v -0.037664 0.078798 0.000034
v -0.035107 0.061812 0.000034
v -0.032617 0.078798 0.018877
v -0.030394 0.061812 0.017598
v -0.018815 0.078798 0.032606
v -0.017605 0.061812 0.030454
v 0.000034 0.078798 0.037655
v 0.000034 0.061812 0.035164
v 0.018883 0.078798 0.032606
v 0.017603 0.061812 0.030454
v 0.032616 0.078798 0.018877
v 0.030462 0.061812 0.017598
v 0.037664 0.078798 0.000034
v 0.035106 0.061812 0.000034
v 0.044801 0.148889 0.000034
v 0.038809 0.148889 0.022444
v 0.045743 0.155258 0.000034
v 0.039616 0.155258 0.022848
v 0.022450 0.148889 0.038798
v 0.022854 0.155258 0.039605
v 0.000034 0.148889 0.044789
v 0.000034 0.155258 0.045731
v -0.022384 0.148889 0.038798
v -0.022854 0.155258 0.039605
v -0.038743 0.148889 0.022444
v -0.039617 0.155258 0.022848
v -0.044801 0.148889 0.000034
v -0.045744 0.155258 0.000034
v -0.038743 0.148889 -0.022444
v -0.039617 0.155258 -0.022849
v -0.022384 0.148889 -0.038798
v -0.022854 0.155258 -0.039674
v 0.000034 0.148889 -0.044789
v 0.000034 0.155258 -0.045731
v 0.022450 0.148889 -0.038798
v 0.022854 0.155258 -0.039674
v 0.038809 0.148889 -0.022444
v 0.039616 0.155258 -0.022849
v 0.044801 0.148889 0.000034
v 0.045743 0.155258 0.000034
v 0.067958 0.223220 0.000034
v 0.073410 0.227938 0.000034
v 0.058870 0.223220 -0.033953
v 0.063582 0.227938 -0.036713
v 0.036721 0.227938 -0.063566
v 0.067284 0.233678 -0.038865
v 0.038876 0.233678 -0.067267
v 0.040357 0.240206 -0.069891
v 0.000034 0.233678 -0.077699
v 0.000034 0.240206 -0.080727
v -0.040358 0.240206 -0.069891
v -0.038876 0.233678 -0.067267
v 0.000034 0.227938 -0.073391
v 0.033961 0.223220 -0.058854
v -0.036656 0.227938 -0.063566
v 0.000034 0.223220 -0.067940
v -0.063516 0.227938 -0.036713
v -0.033963 0.223220 -0.058854
v -0.067285 0.233678 -0.038865
v -0.077653 0.233678 0.000034
v -0.073344 0.227938 0.000034
v -0.067285 0.233678 0.038865
v -0.063516 0.227938 0.036713
v -0.038876 0.233678 0.067267
v -0.036656 0.227938 0.063565
v 0.000034 0.227938 0.073391
v -0.033963 0.223220 0.058854
v 0.000034 0.223220 0.067940
v -0.080749 0.240206 0.000034
v -0.069844 0.240206 -0.040347
v -0.069844 0.240206 0.040346
v -0.040358 0.240206 0.069890
v 0.000034 0.240206 0.080727
v 0.000034 0.233678 0.077697
v 0.040357 0.240206 0.069890
v 0.038876 0.233678 0.067267
v 0.069909 0.240206 0.040346
v 0.067284 0.233678 0.038865
v 0.080749 0.240206 0.000034
v 0.077719 0.233678 0.000034
v 0.063582 0.227938 0.036713
v 0.036721 0.227938 0.063565
v 0.058870 0.223220 0.033952
v 0.033961 0.223220 0.058854
v 0.067958 0.223220 0.000034
v 0.073410 0.227938 0.000034
v -0.058871 0.223220 0.033952
v -0.067959 0.223220 0.000034
v -0.058871 0.223220 -0.033953
v 0.042107 0.108530 0.000034
v 0.036452 0.108530 0.021031
v 0.044598 0.125525 0.000034
v 0.038674 0.125525 0.022309
v 0.021037 0.108530 0.036442
v 0.022315 0.125525 0.038663
v 0.000034 0.108530 0.042096
v 0.000034 0.125525 0.044654
v -0.021038 0.108530 0.036442
v -0.022317 0.125525 0.038663
v -0.036454 0.108530 0.021031
v -0.038675 0.125525 0.022309
v -0.042107 0.108530 0.000034
v -0.044598 0.125525 0.000034
v -0.036454 0.108530 -0.021099
v -0.038675 0.125525 -0.022311
v -0.021038 0.108530 -0.036443
v -0.022317 0.125525 -0.038663
v 0.000034 0.108530 -0.042096
v 0.000034 0.125525 -0.044654
v 0.021037 0.108530 -0.036443
v 0.022315 0.125525 -0.038663
v 0.036452 0.108530 -0.021099
v 0.038674 0.125525 -0.022311
v 0.042107 0.108530 0.000034
v 0.044598 0.125525 0.000034
v 0.000034 0.000000 -0.048894
v 0.000034 0.016950 -0.048894
v -0.024404 0.000000 -0.042299
v -0.024404 0.016950 -0.042299
v -0.024404 0.026461 -0.042299
v -0.042309 0.026461 -0.024397
v -0.042309 0.016950 -0.024397
v -0.048840 0.026461 0.000034
v -0.048840 0.016950 0.000034
v -0.042309 0.026461 0.024463
v -0.042309 0.016950 0.024463
v -0.024404 0.026461 0.042299
v -0.024404 0.016950 0.042299
v 0.000034 0.026461 0.048894
v 0.000034 0.016950 0.048894
v 0.024470 0.026461 0.042299
v 0.024470 0.016950 0.042299
v 0.042309 0.026461 0.024463
v 0.042309 0.016950 0.024463
v 0.048840 0.026461 0.000034
v 0.048840 0.016950 0.000034
v 0.000034 0.026461 -0.048894
v 0.024470 0.016950 -0.042299
v 0.024470 0.026461 -0.042299
v 0.042309 0.016950 -0.024397
v 0.042309 0.026461 -0.024397
v 0.048840 0.016950 0.000034
v 0.048840 0.026461 0.000034
v 0.024470 0.000000 -0.042299
v 0.042309 0.000000 -0.024397
v -0.042309 0.000000 -0.024397
v -0.048840 0.000000 0.000034
v -0.042309 0.016950 0.024463
v -0.028846 0.016950 0.016656
v -0.048840 0.016950 0.000034
v -0.033289 0.016950 0.000034
v -0.042309 0.016950 -0.024397
v -0.028846 0.016950 -0.016656
v -0.024404 0.016950 -0.042299
v -0.016661 0.016950 -0.028838
v 0.000034 0.016950 0.048894
v 0.000034 0.016950 0.033280
v -0.024404 0.016950 0.042299
v -0.016661 0.016950 0.028837
v 0.000034 0.016950 -0.048894
v 0.000034 0.016950 -0.033281
v 0.024470 0.016950 -0.042299
v 0.016661 0.016950 -0.028838
v 0.042309 0.016950 0.024463
v 0.028845 0.016950 0.016656
v 0.024470 0.016950 0.042299
v 0.016661 0.016950 0.028837
v 0.042309 0.016950 -0.024397
v 0.028845 0.016950 -0.016656
v 0.048840 0.016950 0.000034
v 0.033357 0.016950 0.000034
v 0.041165 0.102161 0.000034
v 0.035644 0.102161 -0.020560
v 0.038606 0.085166 0.000034
v 0.033423 0.085166 -0.019282
v 0.020566 0.102161 -0.035636
v 0.019286 0.085166 -0.033482
v 0.000034 0.102161 -0.041154
v 0.000034 0.085166 -0.038597
v -0.020567 0.102161 -0.035636
v -0.019286 0.085166 -0.033482
v -0.035645 0.102161 -0.020560
v -0.033424 0.085166 -0.019282
v -0.041165 0.102161 0.000034
v -0.038608 0.085166 0.000034
v -0.035645 0.102161 0.020560
v -0.033424 0.085166 0.019281
v -0.020567 0.102161 0.035636
v -0.019286 0.085166 0.033415
v 0.000034 0.102161 0.041153
v 0.000034 0.085166 0.038597
v 0.020566 0.102161 0.035636
v 0.019286 0.085166 0.033415
v 0.035644 0.102161 0.020560
v 0.033423 0.085166 0.019281
v 0.041165 0.102161 0.000034
v 0.038606 0.085166 0.000034
v 0.053080 0.167995 0.000034
v 0.045944 0.167995 0.026550
v 0.054897 0.179306 0.000034
v 0.047492 0.179306 0.027424
v 0.051936 0.189539 0.029983
v 0.029991 0.189539 0.051921
v 0.033961 0.197737 0.058854
v 0.000034 0.197737 0.067940
v 0.000034 0.205634 0.073592
v -0.036790 0.205634 0.063700
v -0.036790 0.215323 0.063700
v -0.063717 0.215323 0.036779
v 0.026556 0.167995 0.045999
v 0.027432 0.179306 0.047481
v 0.000034 0.189539 0.059998
v -0.029991 0.189539 0.051921
v -0.033963 0.197737 0.058854
v -0.058871 0.197737 0.033952
v -0.063717 0.205634 0.036779
v -0.073612 0.215323 0.000034
v 0.000034 0.167995 0.053133
v 0.000034 0.179306 0.054883
v -0.026558 0.167995 0.045999
v -0.027432 0.179306 0.047481
v -0.047493 0.179306 0.027424
v -0.051937 0.189539 0.029983
v -0.054899 0.179306 0.000034
v -0.059948 0.189539 0.000034
v -0.051937 0.189539 -0.029983
v -0.058871 0.197737 -0.033953
v -0.029991 0.189539 -0.051922
v -0.033963 0.197737 -0.058854
v 0.000034 0.197737 -0.067940
v -0.036790 0.205634 -0.063700
v 0.000034 0.205634 -0.073593
v 0.000034 0.215323 -0.073593
v 0.036790 0.205634 -0.063700
v 0.036790 0.215323 -0.063700
v 0.063716 0.215323 -0.036779
v 0.073612 0.215323 0.000034
v -0.067959 0.197737 0.000034
v -0.073612 0.205634 0.000034
v -0.063717 0.205634 -0.036779
v -0.036790 0.215323 -0.063700
v -0.063717 0.215323 -0.036779
v 0.053080 0.167995 0.000034
v 0.045944 0.167995 -0.026550
v 0.026556 0.167995 -0.045999
v 0.000034 0.167995 -0.053134
v -0.026558 0.167995 -0.045999
v -0.045945 0.167995 -0.026550
v -0.053080 0.167995 0.000034
v -0.045945 0.167995 0.026550
v 0.000034 0.215323 0.073592
v 0.036790 0.205634 0.063700
v 0.058870 0.197737 0.033952
v 0.067958 0.197737 0.000034
v 0.059947 0.189539 0.000034
v 0.063716 0.205634 0.036779
v 0.036790 0.215323 0.063700
v 0.063716 0.215323 0.036779
v 0.073612 0.205634 0.000034
v 0.073612 0.215323 0.000034
v 0.048840 0.054074 0.000034
v 0.042309 0.054074 -0.024397
v 0.048840 0.028590 0.000034
v 0.042309 0.028590 -0.024397
v 0.024470 0.054074 -0.042299
v 0.024470 0.028590 -0.042299
v 0.000034 0.054074 -0.048894
v 0.000034 0.028590 -0.048894
v -0.024404 0.054074 -0.042299
v -0.024404 0.028590 -0.042299
v -0.042309 0.054074 -0.024397
v -0.042309 0.028590 -0.024397
v -0.048840 0.054074 0.000034
v -0.048840 0.028590 0.000034
v -0.042309 0.054074 0.024463
v -0.042309 0.028590 0.024463
v -0.024404 0.054074 0.042299
v -0.024404 0.028590 0.042299
v 0.000034 0.054074 0.048894
v 0.000034 0.028590 0.048894
v 0.024470 0.054074 0.042299
v 0.024470 0.028590 0.042299
v 0.042309 0.054074 0.024463
v 0.042309 0.028590 0.024463
v 0.048840 0.054074 0.000034
v 0.048840 0.028590 0.000034
v 0.048098 0.148889 0.000034
v 0.041636 0.148889 -0.024060
v 0.024066 0.148889 -0.041693
v 0.000034 0.148889 -0.048153
v -0.024066 0.148889 -0.041693
v -0.041636 0.148889 -0.024060
v -0.048100 0.148889 0.000034
v -0.041636 0.148889 0.024060
v -0.024066 0.148889 0.041693
v 0.000034 0.148889 0.048086
v 0.024066 0.148889 0.041693
v 0.041636 0.148889 0.024060
v 0.048098 0.148889 0.000034
v -0.042309 0.000000 0.024463
v -0.024404 0.000000 0.042299
v 0.038741 0.108530 0.000034
v 0.033625 0.108530 -0.019348
v 0.037867 0.102161 0.000034
v 0.032751 0.102161 -0.018946
v 0.019354 0.108530 -0.033617
v 0.018949 0.102161 -0.032809
v 0.000034 0.108530 -0.038798
v 0.000034 0.102161 -0.037856
v -0.019355 0.108530 -0.033617
v -0.018884 0.102161 -0.032809
v -0.033625 0.108530 -0.019348
v -0.032751 0.102161 -0.018946
v -0.038743 0.108530 0.000034
v -0.037867 0.102161 0.000034
v -0.033625 0.108530 0.019348
v -0.032751 0.102161 0.018945
v -0.019355 0.108530 0.033616
v -0.018884 0.102161 0.032741
v 0.000034 0.108530 0.038798
v 0.000034 0.102161 0.037856
v 0.019354 0.108530 0.033616
v 0.018949 0.102161 0.032741
v 0.033625 0.108530 0.019348
v 0.032751 0.102161 0.018945
v 0.038741 0.108530 0.000034
v 0.037867 0.102161 0.000034
v -0.047493 0.179306 -0.027424
v -0.027432 0.179306 -0.047547
v 0.000034 0.179306 -0.054883
v 0.000034 0.189539 -0.059999
v 0.029991 0.189539 -0.051922
v 0.033961 0.197737 -0.058854
v 0.058870 0.197737 -0.033953
v 0.063716 0.205634 -0.036779
v 0.073612 0.205634 0.000034
v 0.051936 0.189539 -0.029983
v 0.067958 0.197737 0.000034
v 0.059947 0.189539 0.000034
v 0.077719 0.233678 0.000034
v 0.069909 0.240206 -0.040347
v 0.080749 0.240206 0.000034
v 0.016661 0.000000 0.028837
v 0.000034 0.000000 0.033280
v 0.024470 0.000000 0.042299
v 0.000034 0.000000 0.048894
v 0.045608 0.131894 0.000034
v 0.042242 0.131894 0.000034
v 0.039482 0.131894 0.022780
v 0.036587 0.131894 0.021165
v 0.022787 0.131894 0.039471
v 0.021172 0.131894 0.036578
v 0.000034 0.131894 0.045596
v 0.000034 0.131894 0.042230
v -0.022788 0.131894 0.039471
v -0.021172 0.131894 0.036578
v -0.039482 0.131894 0.022780
v -0.036587 0.131894 0.021165
v -0.045609 0.131894 0.000034
v -0.042243 0.131894 0.000034
v -0.039482 0.131894 -0.022782
v -0.036587 0.131894 -0.021166
v -0.022788 0.131894 -0.039471
v -0.021172 0.131894 -0.036578
v 0.000034 0.131894 -0.045596
v 0.000034 0.131894 -0.042299
v 0.022787 0.131894 -0.039471
v 0.021172 0.131894 -0.036578
v 0.039482 0.131894 -0.022782
v 0.036587 0.131894 -0.021166
v 0.045608 0.131894 0.000034
v 0.042242 0.131894 0.000034
v 0.046752 0.028590 0.000034
v 0.040492 0.028590 -0.023386
v 0.023325 0.028590 -0.040482
v 0.000034 0.028590 -0.046740
v -0.023327 0.028590 -0.040482
v -0.040493 0.028590 -0.023386
v -0.046752 0.028590 0.000034
v -0.040493 0.028590 0.023319
v -0.023327 0.028590 0.040481
v 0.000034 0.028590 0.046739
v 0.023325 0.028590 0.040481
v 0.040492 0.028590 0.023319
v 0.046752 0.028590 0.000034
v 0.016661 0.045285 -0.028838
v 0.028845 0.045285 -0.016656
v 0.016661 0.016950 -0.028838
v 0.016661 0.000000 -0.028838
v 0.028845 0.000000 -0.016656
v 0.033357 0.045285 0.000034
v 0.028845 0.045285 0.016656
v 0.033357 0.000000 0.000034
v 0.028845 0.000000 0.016656
v 0.016661 0.045285 0.028837
v 0.000034 0.045285 0.033280
v -0.016661 0.045285 0.028837
v -0.028846 0.045285 0.016656
v -0.016661 0.000000 0.028837
v -0.028846 0.000000 0.016656
v -0.033289 0.045285 0.000034
v -0.028846 0.045285 -0.016656
v -0.033289 0.000000 0.000034
v -0.028846 0.000000 -0.016656
v -0.016661 0.045285 -0.028838
v 0.000034 0.045285 -0.033281
v -0.016661 0.000000 -0.028838
v 0.000034 0.000000 -0.033281
v 0.016661 0.045285 -0.028838
v 0.000034 0.016950 0.048894
v 0.000034 0.000000 0.048894
v 0.000034 0.016950 -0.048894
v 0.000034 0.000000 -0.048894
v 0.042309 0.016950 -0.024397
v 0.042309 0.000000 -0.024397
v -0.042309 0.000000 0.024463
v -0.042309 0.016950 0.024463
v 0.046752 0.026461 0.000034
v 0.040492 0.026461 -0.023386
v 0.023325 0.026461 -0.040482
v 0.000034 0.026461 -0.046740
v -0.023327 0.026461 -0.040482
v -0.040493 0.026461 -0.023386
v -0.046752 0.026461 0.000034
v -0.040493 0.026461 0.023319
v -0.023327 0.026461 0.040481
v 0.000034 0.026461 0.046739
v 0.023325 0.026461 0.040481
v 0.040492 0.026461 0.023319
v 0.046752 0.026461 0.000034
v 0.034365 0.078798 0.000034
v 0.029720 0.078798 -0.017196
v 0.017132 0.078798 -0.029714
v 0.000034 0.078798 -0.034357
v -0.017132 0.078798 -0.029714
v -0.029722 0.078798 -0.017196
v -0.034366 0.078798 0.000034
v -0.029722 0.078798 0.017127
v -0.017132 0.078798 0.029713
v 0.000034 0.078798 0.034357
v 0.017132 0.078798 0.029713
v 0.029720 0.078798 0.017127
v 0.034365 0.078798 0.000034
v 0.054897 0.179306 0.000034
v 0.047492 0.179306 -0.027424
v 0.027432 0.179306 -0.047547
v 0.035308 0.085166 0.000034
v 0.030528 0.085166 -0.017667
v 0.017671 0.085166 -0.030587
v 0.000034 0.085166 -0.035300
v -0.017672 0.085166 -0.030587
v -0.030529 0.085166 -0.017667
v -0.035308 0.085166 0.000034
v -0.030529 0.085166 0.017667
v -0.017672 0.085166 0.030520
v 0.000034 0.085166 0.035299
v 0.017671 0.085166 0.030520
v 0.030528 0.085166 0.017667
v 0.035308 0.085166 0.000034
v -0.024404 0.016950 0.042299
v -0.024404 0.000000 0.042299
v 0.041299 0.125525 0.000034
v 0.035779 0.125525 -0.020628
v 0.020632 0.125525 -0.035771
v 0.000034 0.125525 -0.041355
v -0.020633 0.125525 -0.035771
v -0.035780 0.125525 -0.020628
v -0.041301 0.125525 0.000034
v -0.035780 0.125525 0.020628
v -0.020633 0.125525 0.035770
v 0.000034 0.125525 0.041288
v 0.020632 0.125525 0.035770
v 0.035779 0.125525 0.020628
v 0.041299 0.125525 0.000034
v 0.048840 0.000000 0.000034
v 0.048840 0.016950 0.000034
v 0.042309 0.000000 -0.024397
v 0.024470 0.000000 -0.042299
v 0.000034 0.000000 0.048894
v 0.024470 0.000000 0.042299
v -0.024404 0.016950 -0.042299
v -0.024404 0.000000 -0.042299
v 0.024470 0.000000 -0.042299
v 0.024470 0.016950 -0.042299
v -0.024404 0.000000 -0.042299
v 0.000034 0.000000 -0.048894
v -0.048840 0.016950 0.000034
v -0.048840 0.000000 0.000034
v 0.048840 0.000000 0.000034
v 0.042309 0.000000 0.024463
v -0.024404 0.000000 0.042299
v -0.042309 0.000000 0.024463
v 0.024470 0.000000 0.042299
v 0.024470 0.016950 0.042299
v 0.042309 0.016950 0.024463
v 0.042309 0.000000 0.024463
v -0.042309 0.000000 -0.024397
v -0.048840 0.000000 0.000034
v -0.042309 0.000000 -0.024397
v -0.042309 0.016950 -0.024397
v 0.042309 0.000000 0.024463
v 0.048840 0.000000 0.000034
v -0.028846 0.045285 0.016656
v -0.016661 0.045285 0.028837
v 0.000034 0.045285 -0.000034
v 0.000034 0.045285 0.033280
v 0.016661 0.045285 0.028837
v 0.028845 0.045285 0.016656
v 0.033357 0.045285 0.000034
v 0.028845 0.045285 -0.016656
v 0.016661 0.045285 -0.028838
v 0.000034 0.045285 -0.033281
v -0.016661 0.045285 -0.028838
v -0.028846 0.045285 -0.016656
v -0.033289 0.045285 0.000034
v -0.042309 0.054074 0.024463
v -0.038270 0.055030 0.022107
v -0.024404 0.054074 0.042299
v -0.022047 0.055030 0.038260
v 0.000034 0.054074 0.048894
v 0.000034 0.055030 0.044183
v 0.024470 0.054074 0.042299
v 0.022046 0.055030 0.038260
v 0.042309 0.054074 0.024463
v 0.038270 0.055030 0.022107
v 0.048840 0.054074 0.000034
v 0.044195 0.055030 0.000034
v 0.042309 0.054074 -0.024397
v 0.038270 0.055030 -0.022108
v 0.024470 0.054074 -0.042299
v 0.022046 0.055030 -0.038261
v 0.000034 0.055030 -0.044183
v 0.020161 0.057760 -0.034828
v 0.000034 0.057760 -0.040212
v 0.000034 0.061812 -0.037721
v -0.018884 0.061812 -0.032608
v -0.020095 0.057760 -0.034828
v -0.032617 0.061812 -0.018877
v -0.034837 0.057760 -0.020157
v -0.037664 0.061812 0.000034
v -0.040223 0.057760 0.000034
v -0.032617 0.061812 0.018877
v -0.034837 0.057760 0.020157
v -0.018884 0.061812 0.032606
v -0.020095 0.057760 0.034828
v 0.000034 0.057760 0.040211
v -0.044195 0.055030 0.000034
v -0.048840 0.054074 0.000034
v -0.038270 0.055030 -0.022108
v -0.022047 0.055030 -0.038261
v -0.042309 0.054074 -0.024397
v -0.024404 0.054074 -0.042299
v 0.000034 0.054074 -0.048894
v 0.034837 0.057760 -0.020157
v 0.032682 0.061812 -0.018877
v 0.040222 0.057760 0.000034
v 0.037664 0.061812 0.000034
v 0.034837 0.057760 0.020157
v 0.032682 0.061812 0.018877
v 0.018883 0.061812 0.032606
v 0.020161 0.057760 0.034828
v 0.000034 0.061812 0.037655
v 0.018883 0.061812 -0.032608
v 0.069909 0.240206 -0.040347
v 0.080749 0.240206 0.000034
v 0.000034 0.240206 -0.000034
v 0.069909 0.240206 0.040346
v 0.040357 0.240206 0.069890
v 0.000034 0.240206 0.080727
v -0.040358 0.240206 0.069890
v -0.069844 0.240206 0.040346
v -0.080749 0.240206 0.000034
v -0.069844 0.240206 -0.040347
v -0.040358 0.240206 -0.069891
v 0.000034 0.240206 -0.080727
v 0.040357 0.240206 -0.069891
v 0.030462 0.061812 0.017598
v 0.035106 0.061812 0.000034
v 0.030462 0.061812 -0.017599
v 0.017603 0.061812 -0.030454
v 0.000034 0.061812 -0.035165
v -0.017605 0.061812 -0.030454
v -0.030394 0.061812 -0.017599
v -0.035107 0.061812 0.000034
v -0.030394 0.061812 0.017598
v -0.017605 0.061812 0.030454
v 0.000034 0.061812 0.035164
v 0.017603 0.061812 0.030454
vt 0.277610 0.742985
vt 0.229344 0.742985
vt 0.285663 0.722081
vt 0.234416 0.722081
vt 0.183169 0.742985
vt 0.186411 0.722081
vt 0.138041 0.742985
vt 0.140132 0.722081
vt 0.093644 0.742985
vt 0.094847 0.722081
vt 0.049666 0.742985
vt 0.050241 0.722081
vt 0.006002 0.742985
vt 0.005949 0.722081
vt -0.037767 0.742985
vt -0.038343 0.722081
vt -0.081746 0.742985
vt -0.082948 0.722081
vt -0.126194 0.742985
vt -0.128234 0.722081
vt -0.171271 0.742985
vt -0.174513 0.722081
vt -0.217497 0.742985
vt -0.222570 0.722081
vt -0.265816 0.742985
vt -0.273869 0.722081
vt -0.212111 0.917415
vt -0.179428 0.917415
vt -0.209654 0.945469
vt -0.178226 0.945469
vt -0.145124 0.917415
vt -0.144183 0.945469
vt -0.108833 0.917415
vt -0.108206 0.945469
vt -0.071235 0.917415
vt -0.070816 0.945469
vt -0.032852 0.917415
vt -0.032643 0.945469
vt 0.006054 0.917415
vt 0.006054 0.945469
vt 0.044855 0.917415
vt 0.044646 0.945469
vt 0.083238 0.917415
vt 0.082819 0.945469
vt 0.120836 0.917415
vt 0.120209 0.945469
vt 0.157075 0.917415
vt 0.156134 0.945469
vt 0.191379 0.917415
vt 0.190176 0.945469
vt 0.224010 0.917415
vt 0.221500 0.945469
vt 0.269870 0.767961
vt 0.224899 0.767961
vt 0.274629 0.748348
vt 0.227984 0.748348
vt 0.180293 0.767961
vt 0.182228 0.748348
vt 0.136263 0.767961
vt 0.137518 0.748348
vt 0.092598 0.767961
vt 0.093330 0.748348
vt 0.049248 0.767961
vt 0.049509 0.748348
vt 0.006002 0.767961
vt 0.006002 0.748348
vt -0.037297 0.767961
vt -0.037611 0.748348
vt -0.080700 0.767961
vt -0.081432 0.748348
vt -0.124364 0.767961
vt -0.125619 0.748348
vt -0.168395 0.767961
vt -0.170329 0.748348
vt -0.213000 0.767961
vt -0.216086 0.748348
vt -0.258077 0.767961
vt -0.262835 0.748348
vt -0.288093 0.605745
vt -0.290812 0.594673
vt -0.234127 0.605745
vt -0.234493 0.594673
vt -0.182566 0.594673
vt -0.234702 0.583501
vt -0.182671 0.583501
vt -0.182671 0.572627
vt -0.133463 0.583501
vt -0.133463 0.572627
vt -0.086086 0.572627
vt -0.086086 0.583501
vt -0.133411 0.594673
vt -0.182357 0.605745
vt -0.086086 0.594673
vt -0.133306 0.605745
vt -0.039859 0.594673
vt -0.085981 0.605745
vt -0.039807 0.583501
vt 0.005897 0.583501
vt 0.005949 0.594673
vt 0.051653 0.583501
vt 0.051653 0.594673
vt 0.097932 0.583501
vt 0.097880 0.594673
vt 0.145257 0.594673
vt 0.097827 0.605745
vt 0.145152 0.605745
vt 0.005949 0.572627
vt -0.039859 0.572627
vt 0.051653 0.572627
vt 0.097932 0.572627
vt 0.145309 0.572627
vt 0.145309 0.583501
vt 0.194517 0.572627
vt 0.194517 0.583501
vt 0.246653 0.572627
vt 0.246600 0.583501
vt 0.305900 0.572627
vt 0.304645 0.583501
vt 0.246391 0.594673
vt 0.194464 0.594673
vt 0.246025 0.605745
vt 0.194203 0.605745
vt 0.299939 0.605745
vt 0.302658 0.594673
vt 0.051601 0.605745
vt 0.005949 0.605745
vt -0.039755 0.605745
vt 0.238233 0.848448
vt 0.202674 0.848448
vt 0.247280 0.820990
vt 0.209368 0.820990
vt 0.165337 0.848448
vt 0.170044 0.820990
vt 0.126484 0.848448
vt 0.129674 0.820990
vt 0.086689 0.848448
vt 0.088676 0.820990
vt 0.046528 0.848448
vt 0.047365 0.820990
vt 0.006054 0.848448
vt 0.006002 0.820990
vt -0.034525 0.848448
vt -0.035414 0.820990
vt -0.074738 0.848448
vt -0.076726 0.820990
vt -0.114533 0.848448
vt -0.117723 0.820990
vt -0.153387 0.848448
vt -0.158093 0.820990
vt -0.190776 0.848448
vt -0.197469 0.820990
vt -0.226387 0.848448
vt -0.235486 0.820990
vt 0.871393 -0.215510
vt 0.871393 -0.241528
vt 0.912339 -0.215510
vt 0.912339 -0.241528
vt 0.912339 -0.256772
vt 0.953075 -0.256772
vt 0.953075 -0.241528
vt 0.993811 -0.256772
vt 0.993811 -0.241528
vt 1.034547 -0.256772
vt 1.034547 -0.241528
vt 1.075073 -0.256772
vt 1.075073 -0.241528
vt 1.115339 -0.256772
vt 1.115339 -0.241528
vt 1.155761 -0.256772
vt 1.155761 -0.241528
vt 1.195922 -0.256772
vt 1.195922 -0.241528
vt 1.236292 -0.256772
vt 1.236292 -0.241528
vt 0.871393 -0.256772
vt 0.830501 -0.241528
vt 0.830501 -0.256772
vt 0.789398 -0.241528
vt 0.789398 -0.256772
vt 0.748976 -0.241528
vt 0.748976 -0.256772
vt 0.830501 -0.213574
vt 0.789398 -0.213574
vt 0.953075 -0.216355
vt 0.993811 -0.216355
vt 1.200001 0.669003
vt 1.193307 0.693978
vt 1.158062 0.669052
vt 1.164755 0.693978
vt 1.142792 0.669052
vt 1.136099 0.693978
vt 1.100801 0.669052
vt 1.107495 0.693978
vt 1.257261 0.669003
vt 1.250568 0.693978
vt 1.215270 0.669052
vt 1.221911 0.693978
vt 1.085532 0.669003
vt 1.078839 0.693978
vt 1.043593 0.669052
vt 1.050234 0.693978
vt 1.314417 0.669052
vt 1.307828 0.693978
vt 1.272478 0.669052
vt 1.279172 0.693978
vt 1.371678 0.669102
vt 1.364984 0.693978
vt 1.329687 0.669052
vt 1.336380 0.693978
vt -0.221158 0.868904
vt -0.186331 0.868904
vt -0.214831 0.896611
vt -0.181782 0.896611
vt -0.150144 0.868904
vt -0.146798 0.896611
vt -0.112285 0.868904
vt -0.110036 0.896611
vt -0.073379 0.868904
vt -0.071967 0.896611
vt -0.033846 0.868904
vt -0.033166 0.896611
vt 0.006054 0.868904
vt 0.006054 0.896611
vt 0.045849 0.868904
vt 0.045169 0.896611
vt 0.085330 0.868904
vt 0.083970 0.896611
vt 0.124288 0.868904
vt 0.122039 0.896611
vt 0.162043 0.868904
vt 0.158748 0.896611
vt 0.198229 0.868904
vt 0.193732 0.896611
vt 0.233004 0.868904
vt 0.226729 0.896611
vt 0.288068 0.716471
vt 0.235148 0.716471
vt 0.291520 0.685537
vt 0.238547 0.685537
vt 0.241109 0.666818
vt 0.190961 0.666818
vt 0.192216 0.648943
vt 0.143845 0.648943
vt 0.144368 0.634693
vt 0.097357 0.634693
vt 0.097618 0.619946
vt 0.051496 0.619946
vt 0.186830 0.716471
vt 0.189183 0.685537
vt 0.143061 0.666818
vt 0.096572 0.666818
vt 0.097043 0.648943
vt 0.051235 0.648943
vt 0.051392 0.634693
vt 0.005949 0.619946
vt 0.140394 0.716471
vt 0.141858 0.685537
vt 0.095004 0.716471
vt 0.095893 0.685537
vt 0.050712 0.685537
vt 0.051026 0.666818
vt 0.005949 0.685537
vt 0.005949 0.666818
vt -0.039179 0.666818
vt -0.039389 0.648943
vt -0.084726 0.666818
vt -0.085197 0.648943
vt -0.131999 0.648943
vt -0.085511 0.634693
vt -0.132522 0.634693
vt -0.132940 0.619946
vt -0.181154 0.634693
vt -0.181782 0.619946
vt -0.233394 0.619946
vt -0.289661 0.619946
vt 0.005949 0.648943
vt 0.005949 0.634693
vt -0.039545 0.634693
vt -0.085772 0.619946
vt -0.039650 0.619946
vt -0.276222 0.716471
vt -0.223250 0.716471
vt -0.174984 0.716471
vt -0.128548 0.716471
vt -0.083158 0.716471
vt -0.038447 0.716471
vt 0.005949 0.716471
vt 0.050293 0.716471
vt 0.144786 0.619946
vt 0.193000 0.634693
vt 0.243097 0.648943
vt 0.297795 0.648943
vt 0.293716 0.666818
vt 0.244299 0.634693
vt 0.193680 0.619946
vt 0.245241 0.619946
vt 0.300775 0.634693
vt 0.301508 0.619946
vt 0.748976 -0.313227
vt 0.789398 -0.313227
vt 0.748976 -0.271767
vt 0.789398 -0.271767
vt 0.830501 -0.313227
vt 0.830501 -0.271767
vt 0.871393 -0.313227
vt 0.871393 -0.271767
vt 0.912339 -0.313227
vt 0.912339 -0.271767
vt 0.953075 -0.313227
vt 0.953075 -0.271767
vt 0.993811 -0.313227
vt 0.993811 -0.271767
vt 1.034547 -0.313227
vt 1.034547 -0.271767
vt 1.075073 -0.313227
vt 1.075073 -0.271767
vt 1.115339 -0.313227
vt 1.115339 -0.271767
vt 1.155761 -0.313227
vt 1.155761 -0.271767
vt 1.195922 -0.313227
vt 1.195922 -0.271767
vt 1.236292 -0.313227
vt 1.236292 -0.271767
vt -0.256769 0.773720
vt -0.211484 0.773720
vt -0.167453 0.773720
vt -0.123737 0.773720
vt -0.080281 0.773720
vt -0.037140 0.773720
vt 0.006002 0.773720
vt 0.049038 0.773720
vt 0.092180 0.773720
vt 0.135635 0.773720
vt 0.179352 0.773720
vt 0.223382 0.773720
vt 0.268615 0.773720
vt 1.034547 -0.216206
vt 1.075073 -0.216206
vt -0.223563 0.853314
vt -0.189521 0.853314
vt -0.220740 0.863145
vt -0.187220 0.863145
vt -0.152445 0.853314
vt -0.150824 0.863145
vt -0.113958 0.853314
vt -0.112808 0.863145
vt -0.074425 0.853314
vt -0.073745 0.863145
vt -0.034264 0.853314
vt -0.034002 0.863145
vt 0.006054 0.853314
vt 0.006054 0.863145
vt 0.046267 0.853314
vt 0.046005 0.863145
vt 0.086375 0.853314
vt 0.085696 0.863145
vt 0.125909 0.853314
vt 0.124758 0.863145
vt 0.164396 0.853314
vt 0.162775 0.863145
vt 0.201472 0.853314
vt 0.199118 0.863145
vt 0.235410 0.853314
vt 0.232586 0.863145
vt -0.038866 0.685537
vt -0.083994 0.685537
vt -0.130012 0.685537
vt -0.131162 0.666818
vt -0.179062 0.666818
vt -0.180317 0.648943
vt -0.231198 0.648943
vt -0.232453 0.634693
vt -0.288929 0.634693
vt -0.229263 0.666818
vt -0.285949 0.648943
vt -0.281922 0.666818
vt -0.292799 0.583501
vt -0.234754 0.572627
vt -0.294054 0.572627
vt 1.279172 0.665825
vt 1.250568 0.665825
vt 1.285865 0.640899
vt 1.243874 0.640850
vt 0.255124 0.800781
vt 0.251568 0.805548
vt 0.215277 0.800781
vt 0.213656 0.805548
vt 0.174070 0.800781
vt 0.173077 0.805548
vt 0.132288 0.800781
vt 0.131661 0.805548
vt 0.090245 0.800781
vt 0.089827 0.805548
vt 0.048097 0.800781
vt 0.047940 0.805548
vt 0.006002 0.800781
vt 0.006002 0.805548
vt -0.036146 0.800781
vt -0.035990 0.805548
vt -0.078294 0.800781
vt -0.077876 0.805548
vt -0.120390 0.800781
vt -0.119710 0.805548
vt -0.162172 0.800781
vt -0.161178 0.805548
vt -0.203378 0.800781
vt -0.201757 0.805548
vt -0.243278 0.800781
vt -0.239722 0.805548
vt 0.748976 -0.266454
vt 0.789398 -0.266454
vt 0.830501 -0.266454
vt 0.871393 -0.266454
vt 0.912339 -0.266454
vt 0.953075 -0.266454
vt 0.993811 -0.266454
vt 1.034547 -0.266454
vt 1.075073 -0.266454
vt 1.115339 -0.266454
vt 1.155761 -0.266454
vt 1.195922 -0.266454
vt 1.236292 -0.266454
vt 1.393641 0.740999
vt 1.364984 0.740999
vt 1.393641 0.693978
vt 1.393588 0.665825
vt 1.364984 0.665825
vt 1.336380 0.740999
vt 1.307828 0.740999
vt 1.336380 0.665825
vt 1.307776 0.665825
vt 1.279172 0.740999
vt 1.250568 0.740999
vt 1.221911 0.740999
vt 1.193307 0.740999
vt 1.221911 0.665825
vt 1.193307 0.665825
vt 1.164755 0.740999
vt 1.136099 0.740999
vt 1.164755 0.665825
vt 1.136099 0.665825
vt 1.107495 0.740999
vt 1.078839 0.740999
vt 1.107495 0.665825
vt 1.078839 0.665825
vt 1.050234 0.740999
vt 1.224735 0.693978
vt 1.224735 0.665825
vt 1.053006 0.693978
vt 1.053006 0.665825
vt 1.339256 0.693978
vt 1.339256 0.665825
vt 1.167475 0.665825
vt 1.167475 0.693978
vt 0.748976 -0.261737
vt 0.789398 -0.261737
vt 0.830501 -0.261737
vt 0.871393 -0.261737
vt 0.912339 -0.261737
vt 0.953075 -0.261737
vt 0.993811 -0.261737
vt 1.034547 -0.261737
vt 1.075073 -0.261737
vt 1.115339 -0.261737
vt 1.155761 -0.261737
vt 1.195922 -0.261737
vt 1.236292 -0.261737
vt -0.211013 0.911556
vt -0.179794 0.911556
vt -0.145334 0.911556
vt -0.109042 0.911556
vt -0.071339 0.911556
vt -0.032852 0.911556
vt 0.006054 0.911556
vt 0.044907 0.911556
vt 0.083342 0.911556
vt 0.121045 0.911556
vt 0.157337 0.911556
vt 0.191745 0.911556
vt 0.222859 0.911556
vt -0.279726 0.685537
vt -0.226649 0.685537
vt -0.177284 0.685537
vt -0.212530 0.901526
vt -0.180997 0.901526
vt -0.146275 0.901526
vt -0.109670 0.901526
vt -0.071705 0.901526
vt -0.033061 0.901526
vt 0.006054 0.901526
vt 0.045116 0.901526
vt 0.083708 0.901526
vt 0.121621 0.901526
vt 0.158226 0.901526
vt 0.192948 0.901526
vt 0.224428 0.901526
vt 1.247744 0.693978
vt 1.247744 0.665825
vt -0.235591 0.815329
vt -0.198724 0.815329
vt -0.159087 0.815329
vt -0.118351 0.815329
vt -0.077092 0.815329
vt -0.035623 0.815329
vt 0.006002 0.815329
vt 0.047574 0.815329
vt 0.089042 0.815329
vt 0.130301 0.815329
vt 0.170985 0.815329
vt 0.210623 0.815329
vt 0.247437 0.815329
vt 1.362160 0.665825
vt 1.362160 0.693978
vt 1.358343 0.640949
vt 1.400282 0.640899
vt 1.115339 -0.215113
vt 1.155761 -0.215113
vt 1.133275 0.693978
vt 1.133275 0.665825
vt 1.419421 0.665825
vt 1.419421 0.693978
vt 1.114136 0.640899
vt 1.072197 0.640850
vt 1.190536 0.693978
vt 1.190536 0.665825
vt 1.236292 -0.213673
vt 1.195922 -0.213673
vt 1.228605 0.640899
vt 1.186666 0.640850
vt 1.305004 0.665825
vt 1.305004 0.693978
vt 1.281996 0.693978
vt 1.281996 0.665825
vt 1.129458 0.640899
vt 1.171397 0.640949
vt 1.110319 0.665825
vt 1.110319 0.693978
vt 1.301082 0.640949
vt 1.343074 0.640949
vt 0.192164 1.269900
vt 0.177835 1.245123
vt 0.231226 1.230823
vt 0.177835 1.216473
vt 0.192164 1.191697
vt 0.216950 1.177397
vt 0.245502 1.177397
vt 0.270289 1.191697
vt 0.284617 1.216473
vt 0.284617 1.245123
vt 0.270289 1.269900
vt 0.245502 1.284200
vt 0.216898 1.284200
vt 0.548381 1.291945
vt 0.554029 1.286235
vt 0.585405 1.313396
vt 0.587444 1.305699
vt 0.628546 1.313743
vt 0.626402 1.305948
vt 0.665831 1.291697
vt 0.660026 1.286086
vt 0.687375 1.253961
vt 0.679532 1.251925
vt 0.687166 1.210366
vt 0.679375 1.212501
vt 0.665622 1.173027
vt 0.659922 1.178688
vt 0.628232 1.151081
vt 0.626088 1.158827
vt 0.586660 1.158976
vt 0.624049 1.166622
vt 0.588804 1.166721
vt 0.590948 1.174417
vt 0.564383 1.190207
vt 0.558631 1.184696
vt 0.549480 1.217268
vt 0.541688 1.215381
vt 0.549741 1.248350
vt 0.542054 1.250486
vt 0.565220 1.275064
vt 0.559677 1.280674
vt 0.591523 1.290655
vt 0.589588 1.298053
vt 0.624310 1.298202
vt 0.534367 1.252621
vt 0.526680 1.254756
vt 0.533896 1.213445
vt 0.552879 1.179135
vt 0.526105 1.211558
vt 0.547074 1.173524
vt 0.584463 1.151081
vt 0.654222 1.184298
vt 0.648783 1.189711
vt 0.671635 1.214537
vt 0.663948 1.216622
vt 0.671688 1.249890
vt 0.663739 1.247804
vt 0.648836 1.275014
vt 0.654379 1.280426
vt 0.622166 1.290357
vt 0.621905 1.174567
vt 0.823127 1.099591
vt 0.857850 1.039511
vt 0.952552 1.134298
vt 0.917829 1.004854
vt 0.987222 1.004903
vt 1.047254 1.039511
vt 1.081924 1.099641
vt 1.081924 1.168956
vt 1.047306 1.228986
vt 0.987222 1.263644
vt 0.917882 1.263644
vt 0.857797 1.228986
vt 0.823180 1.168956
vt 0.659765 1.246762
vt 0.659922 1.217665
vt 0.645907 1.192640
vt 0.620859 1.178489
vt 0.592046 1.178390
vt 0.567364 1.193037
vt 0.553454 1.218310
vt 0.553715 1.247258
vt 0.568148 1.272184
vt 0.592569 1.286732
vt 0.621121 1.286434
vt 0.645855 1.272184
vn -0.955888 0.141466 -0.257419
vn -0.955896 0.140287 -0.258034
vn -0.699991 0.140540 -0.700186
vn -0.700007 0.140603 -0.700158
vn -0.254883 0.140238 -0.956749
vn -0.257634 0.146372 -0.955092
vn 0.254000 0.146518 -0.956042
vn 0.257220 0.140349 -0.956107
vn 0.699979 0.140658 -0.700174
vn 0.700008 0.140595 -0.700158
vn 0.956710 0.140243 -0.255024
vn 0.955056 0.146366 -0.257770
vn 0.956008 0.146512 0.254131
vn 0.956072 0.140335 0.257356
vn 0.699986 0.140594 0.700181
vn 0.699988 0.140604 0.700176
vn 0.254237 0.140158 0.956932
vn 0.256995 0.146324 0.955271
vn -0.254653 0.146418 0.955884
vn -0.257864 0.140281 0.955943
vn -0.699990 0.140550 0.700185
vn -0.699995 0.140540 0.700183
vn -0.956236 0.140239 0.256800
vn -0.955907 0.141469 0.257349
vn -0.956091 0.143982 0.255264
vn -0.957434 0.140389 0.252213
vn -0.699923 0.141430 0.700076
vn -0.699885 0.141480 0.700103
vn -0.259243 0.140689 0.955510
vn -0.256285 0.143887 0.955832
vn 0.259127 0.143774 0.955082
vn 0.255523 0.139534 0.956681
vn 0.698452 0.138824 0.702063
vn 0.701453 0.144273 0.697961
vn 0.956063 0.144267 0.255206
vn 0.956035 0.143974 0.255478
vn 0.955881 0.143951 -0.256065
vn 0.955738 0.144329 -0.256387
vn 0.697892 0.144119 -0.701552
vn 0.702056 0.138589 -0.698506
vn 0.256166 0.139503 -0.956513
vn 0.255498 0.140227 -0.956586
vn -0.256141 0.140203 -0.956418
vn -0.256410 0.140519 -0.956299
vn -0.699896 0.141439 -0.700100
vn -0.699913 0.141470 -0.700077
vn -0.956338 0.140568 -0.256238
vn -0.956681 0.144071 -0.252991
vn -0.956353 0.141448 -0.255699
vn -0.956597 0.137651 -0.256854
vn -0.700706 0.133353 -0.700877
vn -0.700696 0.133257 -0.700905
vn -0.255700 0.137470 -0.956932
vn -0.256614 0.141413 -0.956113
vn 0.255555 0.141454 -0.956390
vn 0.255961 0.140122 -0.956478
vn 0.699987 0.140486 -0.700201
vn 0.699959 0.140579 -0.700210
vn 0.954788 0.147544 -0.258092
vn 0.956066 0.141556 -0.256711
vn 0.955831 0.141521 0.257604
vn 0.955417 0.147484 0.255786
vn 0.699978 0.140581 0.700192
vn 0.700639 0.147716 0.698058
vn 0.255226 0.150098 0.955160
vn 0.253254 0.141542 0.956989
vn -0.255555 0.141454 0.956390
vn -0.253728 0.147430 0.955974
vn -0.699998 0.140595 0.700169
vn -0.702096 0.133440 0.699467
vn -0.957066 0.137601 0.255127
vn -0.956270 0.141436 0.256014
vn -0.644512 0.744918 0.172340
vn -0.644644 0.744786 0.172415
vn -0.470917 0.745884 0.471057
vn -0.573417 0.584970 0.573588
vn -0.573384 0.585063 0.573526
vn -0.646004 0.406389 0.646163
vn -0.236779 0.408235 0.881635
vn -0.236819 0.408815 0.881355
vn 0.236448 0.408853 0.881437
vn 0.236403 0.408198 0.881753
vn 0.209665 0.586926 0.782022
vn -0.209435 0.586955 0.782062
vn -0.172625 0.744771 0.644606
vn -0.470890 0.745910 0.471042
vn 0.209635 0.585861 0.782828
vn 0.172622 0.744764 0.644615
vn -0.172629 0.744763 0.644614
vn 0.571169 0.589375 0.571318
vn 0.473263 0.742919 0.473386
vn 0.172632 0.743633 0.645917
vn 0.571143 0.589412 0.571304
vn 0.779987 0.590262 0.207875
vn 0.782043 0.587077 0.209163
vn 0.782105 0.587124 -0.208799
vn 0.779611 0.590398 -0.208894
vn 0.571143 0.589412 -0.571304
vn 0.571124 0.589442 -0.571294
vn 0.209637 0.585954 -0.782758
vn 0.172969 0.743617 -0.645845
vn 0.172294 0.744807 -0.644652
vn 0.878343 0.416567 -0.234492
vn 0.878426 0.416606 0.234110
vn 0.884489 0.400778 0.238865
vn 0.647734 0.400807 0.647916
vn 0.646762 0.406283 0.645471
vn 0.884373 0.400816 -0.239230
vn 0.647734 0.400807 -0.647916
vn 0.646777 0.406202 -0.645507
vn 0.236556 0.408099 -0.881758
vn 0.236291 0.408980 -0.881420
vn -0.236826 0.408925 -0.881302
vn -0.236771 0.408121 -0.881690
vn -0.646022 0.406308 -0.646197
vn -0.646011 0.406366 -0.646170
vn -0.881557 0.408260 -0.237025
vn -0.881258 0.409040 -0.236791
vn -0.573431 0.584972 -0.573572
vn -0.573323 0.585133 -0.573515
vn -0.210450 0.584438 -0.783673
vn -0.209472 0.586863 -0.782121
vn 0.209662 0.586839 -0.782088
vn -0.470874 0.745926 -0.471032
vn -0.470936 0.745864 -0.471069
vn -0.172658 0.744712 -0.644665
vn -0.172629 0.744763 -0.644614
vn -0.644507 0.744843 -0.172684
vn -0.644473 0.744873 -0.172684
vn -0.782043 0.586941 -0.209545
vn -0.783666 0.584405 -0.210568
vn 0.473292 0.742875 -0.473425
vn 0.473273 0.742894 -0.473414
vn 0.648981 0.740665 -0.173892
vn 0.648951 0.740696 -0.173875
vn 0.648986 0.740735 0.173576
vn 0.649139 0.740600 0.173578
vn 0.473303 0.742848 0.473456
vn -0.956068 0.140133 -0.257480
vn -0.956316 0.144157 -0.254319
vn -0.699614 0.144098 -0.699841
vn -0.699619 0.144110 -0.699833
vn -0.257227 0.144232 -0.955527
vn -0.256912 0.143788 -0.955678
vn 0.256469 0.143805 -0.955795
vn 0.256168 0.144190 -0.955818
vn 0.699612 0.144110 -0.699839
vn 0.699645 0.144059 -0.699817
vn 0.955513 0.144219 -0.257285
vn 0.956859 0.140249 -0.254464
vn 0.956480 0.140194 0.255912
vn 0.956655 0.143109 0.253635
vn 0.698394 0.141306 0.701625
vn 0.699623 0.144069 0.699837
vn 0.256414 0.144145 0.955758
vn 0.256182 0.143816 0.955870
vn -0.257202 0.143776 0.955602
vn -0.256898 0.144164 0.955626
vn -0.698105 0.144151 0.701335
vn -0.699870 0.141434 0.700127
vn -0.956047 0.143243 0.255842
vn -0.957047 0.140277 0.253739
vn 0.260556 -0.000000 0.965459
vn 0.260556 0.000000 0.965459
vn 0.260556 0.000000 0.965459
vn 0.707028 0.000000 0.707186
vn 0.707028 0.000000 0.707186
vn 0.966084 0.000000 0.258229
vn 0.966084 0.000000 0.258229
vn 0.966084 0.000000 -0.258229
vn 0.966084 0.000000 -0.258229
vn 0.705701 0.000000 -0.708510
vn 0.705701 0.000000 -0.708510
vn 0.260556 0.000000 -0.965459
vn 0.260556 0.000000 -0.965459
vn -0.260556 -0.000000 -0.965459
vn -0.260556 0.000000 -0.965459
vn -0.707027 -0.000000 -0.707186
vn -0.707027 0.000000 -0.707186
vn -0.966084 -0.000000 -0.258229
vn -0.966084 0.000000 -0.258229
vn 0.260556 0.000000 0.965459
vn -0.260556 0.000000 0.965459
vn -0.260556 0.000000 0.965459
vn -0.708352 0.000000 0.705859
vn -0.708352 0.000000 0.705859
vn -0.966084 0.000000 0.258229
vn -0.966084 0.000000 0.258229
vn -0.708352 0.000000 0.705859
vn -0.708352 0.000000 0.705859
vn 0.966084 -0.000000 0.258229
vn 0.966084 0.000000 0.258229
vn 0.000000 1.000000 0.000000
vn 0.000000 1.000000 0.000000
vn -0.000000 1.000000 0.000000
vn 0.000000 1.000000 0.000000
vn 0.000000 1.000000 0.000000
vn 0.000000 1.000000 0.000000
vn 0.000000 1.000000 0.000000
vn -0.000000 1.000000 0.000000
vn 0.000000 1.000000 0.000000
vn 0.000000 1.000000 0.000000
vn 0.000000 1.000000 -0.000000
vn 0.000000 1.000000 0.000000
vn -0.955836 0.143924 0.256248
vn -0.955737 0.144202 0.256463
vn -0.699634 0.144099 0.699820
vn -0.701565 0.141322 0.698452
vn -0.257010 0.140526 0.956137
vn -0.254091 0.143954 0.956407
vn 0.256094 0.143875 0.955885
vn 0.253399 0.140393 0.957120
vn 0.699905 0.141446 0.700090
vn 0.701267 0.144228 0.698156
vn 0.955802 0.144246 0.256193
vn 0.955773 0.143858 0.256522
vn 0.955650 0.143840 -0.256988
vn 0.955488 0.144291 -0.257338
vn 0.699630 0.144139 -0.699816
vn 0.699623 0.144149 -0.699821
vn 0.256038 0.144200 -0.955851
vn 0.256370 0.143809 -0.955821
vn -0.256845 0.143790 -0.955696
vn -0.257186 0.144230 -0.955538
vn -0.699633 0.144109 -0.699819
vn -0.699628 0.144098 -0.699826
vn -0.955585 0.144223 -0.257017
vn -0.955558 0.143882 -0.257308
vn -0.954230 0.153288 -0.256803
vn -0.954340 0.150567 -0.258000
vn -0.868761 0.435997 -0.234865
vn -0.636419 0.435525 -0.636622
vn -0.515016 0.685089 -0.515181
vn -0.188289 0.685719 -0.703091
vn -0.212773 0.568747 -0.794515
vn 0.213426 0.568664 -0.794399
vn 0.259463 0.000000 -0.965753
vn 0.707002 0.000000 -0.707212
vn 0.582714 -0.566292 -0.582887
vn 0.582709 -0.566313 -0.582873
vn -0.700240 0.149830 -0.698008
vn -0.699483 0.145777 -0.699623
vn -0.636501 0.435398 -0.636628
vn -0.234285 0.435725 -0.869054
vn -0.190095 0.683116 -0.705136
vn 0.189686 0.683171 -0.705192
vn 0.187947 0.685683 -0.703218
vn 0.515005 0.685121 -0.515150
vn 0.582719 0.566291 -0.582883
vn 0.582705 0.566312 -0.582878
vn 0.707002 0.000000 -0.707212
vn 0.965604 0.000000 -0.260019
vn 0.796349 -0.565547 -0.214442
vn 0.794452 -0.568803 -0.212860
vn -0.256997 0.145008 -0.955471
vn -0.257977 0.147722 -0.954791
vn -0.234927 0.434528 -0.869480
vn 0.233934 0.434634 -0.869694
vn 0.256277 0.147791 -0.955238
vn 0.257495 0.145006 -0.955337
vn 0.234243 0.435720 -0.869068
vn 0.636484 0.435401 -0.636643
vn 0.636437 0.435475 -0.636640
vn 0.868793 0.435928 -0.234873
vn 0.872042 0.430269 -0.233261
vn 0.872148 0.430321 0.232769
vn 0.703243 0.685728 0.187689
vn 0.515003 0.685127 0.515144
vn 0.515016 0.685089 0.515181
vn 0.187958 0.685637 0.703259
vn 0.212992 0.565282 0.796926
vn 0.213426 0.568664 0.794399
vn 0.259463 0.000000 0.965753
vn -0.259904 0.000000 0.965635
vn -0.259904 0.000000 0.965635
vn -0.707015 0.000000 0.707199
vn -0.582739 -0.566264 0.582890
vn -0.796483 -0.565484 0.214109
vn -0.794479 -0.568922 0.212441
vn 0.515015 0.685091 -0.515179
vn 0.702986 0.685809 -0.188353
vn 0.794452 0.568803 -0.212860
vn 0.794524 0.568854 0.212453
vn 0.796490 0.565481 0.214089
vn 0.582729 0.566262 0.582902
vn 0.707002 0.000000 0.707212
vn 0.259463 -0.000000 0.965753
vn 0.214006 -0.565419 0.796557
vn 0.212367 -0.568798 0.794587
vn 0.707002 0.000000 0.707212
vn 0.965722 0.000000 0.259577
vn 0.965722 0.000000 0.259577
vn 0.965604 0.000000 -0.260019
vn 0.796349 0.565547 -0.214442
vn 0.582714 -0.566292 0.582887
vn 0.582722 -0.566260 0.582910
vn 0.796490 -0.565481 0.214089
vn 0.794524 -0.568854 0.212453
vn -0.000000 1.000000 0.000000
vn 0.000000 1.000000 0.000000
vn 0.000000 1.000000 0.000000
vn 0.000000 1.000000 0.000000
vn 0.000000 1.000000 0.000000
vn 0.000000 1.000000 0.000000
vn 0.000000 1.000000 0.000000
vn 0.000000 1.000000 0.000000
vn 0.000000 1.000000 0.000000
vn 0.000000 1.000000 0.000000
vn 0.000000 1.000000 0.000000
vn 0.000000 1.000000 0.000000
vn 0.000000 1.000000 -0.000000
vn 0.000000 1.000000 0.000000
vn 0.000000 1.000000 -0.000000
vn 0.000000 1.000000 0.000000
vn 0.000000 1.000000 -0.000000
vn 0.000000 1.000000 0.000000
vn -0.000000 1.000000 0.000000
vn 0.000000 1.000000 0.000000
vn -0.000000 1.000000 0.000000
vn 0.000000 1.000000 0.000000
vn -0.000000 1.000000 0.000000
vn 0.000000 1.000000 0.000000
vn 0.702477 0.686453 -0.187904
vn 0.702486 0.686462 0.187842
vn 0.212992 -0.565282 -0.796926
vn 0.213426 -0.568664 -0.794399
vn 0.259463 0.000000 -0.965753
vn -0.259904 -0.000000 -0.965635
vn -0.214358 0.565485 -0.796415
vn -0.582695 0.566341 -0.582859
vn -0.515046 0.685060 -0.515191
vn -0.703027 0.685764 -0.188364
vn -0.702480 0.686456 -0.187882
vn -0.796705 0.565416 -0.213463
vn -0.582714 0.566314 -0.582866
vn -0.707015 0.000000 -0.707199
vn -0.259904 0.000000 -0.965635
vn -0.213797 -0.568617 -0.794333
vn -0.213378 -0.565353 -0.796772
vn -0.582702 -0.566340 -0.582853
vn -0.707015 0.000000 -0.707199
vn -0.965597 -0.000000 -0.260043
vn -0.794222 0.568738 -0.213890
vn -0.582709 -0.566313 -0.582873
vn -0.796705 -0.565416 -0.213463
vn -0.794222 -0.568738 -0.213890
vn -0.966084 0.000000 0.258229
vn -0.966084 0.000000 0.258229
vn -0.708352 0.000000 0.705859
vn -0.708352 0.000000 0.705859
vn -0.260556 0.000000 0.965459
vn -0.260556 0.000000 0.965459
vn 0.260556 0.000000 0.965459
vn 0.260556 0.000000 0.965459
vn 0.707028 0.000000 0.707186
vn 0.707028 0.000000 0.707186
vn 0.966084 0.000000 0.258229
vn 0.966084 0.000000 0.258229
vn 0.966084 0.000000 -0.258229
vn 0.966084 0.000000 -0.258229
vn 0.705701 0.000000 -0.708510
vn 0.705701 0.000000 -0.708510
vn 0.260556 0.000000 -0.965459
vn 0.260556 0.000000 -0.965459
vn -0.260556 -0.000000 -0.965459
vn -0.260556 -0.000000 -0.965459
vn -0.707027 -0.000000 -0.707186
vn -0.707027 -0.000000 -0.707186
vn -0.966084 -0.000000 -0.258229
vn -0.966084 -0.000000 -0.258229
vn -0.000000 -1.000000 0.000000
vn 0.000000 -1.000000 0.000000
vn -0.000000 -1.000000 0.000000
vn 0.000000 -1.000000 0.000000
vn -0.000000 -1.000000 0.000000
vn 0.000000 -1.000000 0.000000
vn 0.000000 -1.000000 0.000000
vn 0.000000 -1.000000 0.000000
vn 0.000000 -1.000000 0.000000
vn 0.000000 -1.000000 0.000000
vn 0.000000 -1.000000 0.000000
vn 0.000000 -1.000000 0.000000
vn 0.000000 -1.000000 0.000000
vn 0.000000 -1.000000 0.000000
vn 0.000000 -1.000000 0.000000
vn 0.000000 -1.000000 0.000000
vn 0.000000 -1.000000 0.000000
vn 0.000000 -1.000000 0.000000
vn 0.000000 -1.000000 0.000000
vn 0.000000 -1.000000 0.000000
vn 0.000000 -1.000000 -0.000000
vn 0.000000 -1.000000 0.000000
vn 0.000000 -1.000000 -0.000000
vn 0.000000 -1.000000 0.000000
vn 0.705701 0.000000 -0.708510
vn 0.705701 0.000000 -0.708510
vn -0.958465 0.131678 0.252993
vn -0.954977 0.147487 0.257425
vn -0.699997 0.140473 0.700194
vn -0.702369 0.133260 0.699228
vn -0.256597 0.137644 0.956667
vn -0.255248 0.141466 0.956471
vn 0.255618 0.141451 0.956374
vn 0.255280 0.140242 0.956642
vn 0.700010 0.140592 0.700157
vn 0.699994 0.140473 0.700196
vn 0.956317 0.147358 0.252475
vn 0.957132 0.131645 0.258006
vn 0.958221 0.131795 -0.253855
vn 0.954735 0.147549 -0.258285
vn 0.700011 0.140583 -0.700158
vn 0.697558 0.147905 -0.701097
vn 0.255289 0.150101 -0.955142
vn 0.258398 0.141343 -0.955643
vn -0.256459 0.141419 -0.956153
vn -0.258174 0.147546 -0.954765
vn -0.699985 0.140595 -0.700181
vn -0.699983 0.140581 -0.700186
vn -0.956104 0.147418 -0.253245
vn -0.956922 0.131466 -0.258876
vn 0.700682 0.145655 -0.698448
vn 0.699045 0.149760 -0.699219
vn 0.954649 0.150523 -0.256880
vn 0.953931 0.153324 -0.257890
vn 0.954385 0.153397 0.256161
vn 0.954502 0.150544 0.257415
vn 0.868964 0.435871 0.234346
vn 0.636450 0.435477 0.636624
vn 0.700240 0.149830 0.698008
vn 0.700216 0.149702 0.698059
vn 0.638735 0.431910 0.636767
vn 0.232857 0.430944 0.871817
vn 0.233926 0.434703 0.869662
vn -0.234420 0.434650 0.869555
vn -0.190106 0.683070 0.705177
vn -0.188300 0.685673 0.703132
vn -0.212773 0.568747 0.794515
vn -0.214358 0.565485 0.796415
vn -0.582682 0.566343 0.582870
vn -0.582739 0.566264 0.582890
vn -0.707015 0.000000 0.707199
vn -0.965716 0.000000 0.259602
vn -0.965716 0.000000 0.259602
vn -0.515038 0.685056 0.515203
vn -0.515025 0.685093 0.515166
vn -0.703154 0.685728 0.188021
vn -0.702535 0.686510 0.187477
vn -0.794479 0.568922 0.212441
vn -0.796483 0.565484 0.214109
vn -0.783992 0.584284 0.209685
vn -0.782006 0.586913 0.209760
vn -0.881720 0.408208 0.236507
vn -0.881308 0.409063 0.236565
vn 0.000000 1.000000 -0.000000
vn 0.000000 1.000000 0.000000
vn 0.000000 1.000000 0.000000
vn 0.000000 1.000000 0.000000
vn 0.000000 1.000000 0.000000
vn 0.000000 1.000000 0.000000
vn 0.000000 1.000000 0.000000
vn 0.000000 1.000000 0.000000
vn 0.000000 1.000000 0.000000
vn 0.000000 1.000000 0.000000
vn 0.000000 1.000000 0.000000
vn 0.000000 1.000000 0.000000
vn 0.000000 1.000000 0.000000
vn 0.000000 1.000000 0.000000
vn -0.000000 1.000000 0.000000
vn 0.000000 1.000000 0.000000
vn -0.000000 1.000000 0.000000
vn 0.000000 1.000000 0.000000
vn -0.000000 1.000000 0.000000
vn 0.000000 1.000000 0.000000
vn 0.000000 1.000000 0.000000
vn 0.000000 1.000000 0.000000
vn 0.000000 1.000000 -0.000000
vn 0.000000 1.000000 0.000000
vn 0.000000 1.000000 -0.000000
vn 0.000000 1.000000 0.000000
vn -0.000000 1.000000 0.000000
vn 0.000000 1.000000 0.000000
vn 0.000000 1.000000 0.000000
vn 0.000000 1.000000 0.000000
vn 0.000000 1.000000 0.000000
vn 0.000000 1.000000 0.000000
vn 0.000000 1.000000 0.000000
vn 0.000000 1.000000 0.000000
vn 0.000000 1.000000 0.000000
vn 0.000000 1.000000 0.000000
vn 0.000000 1.000000 0.000000
vn 0.000000 1.000000 0.000000
vn 0.000000 1.000000 -0.000000
vn 0.000000 1.000000 0.000000
vn 0.000000 1.000000 -0.000000
vn 0.000000 1.000000 0.000000
vn 0.000000 1.000000 -0.000000
vn 0.000000 1.000000 0.000000
vn -0.000000 1.000000 0.000000
vn 0.000000 1.000000 0.000000
vn -0.000000 1.000000 0.000000
vn 0.000000 1.000000 0.000000
vn -0.000000 1.000000 0.000000
vn 0.000000 1.000000 0.000000
vn 0.707049 0.000000 -0.707165
vn 0.707049 0.000000 -0.707165
vn 0.707049 0.000000 -0.707165
vn 0.707049 0.000000 -0.707165
vn 0.965361 0.000000 -0.260919
vn 0.965361 0.000000 -0.260919
vn 0.965095 0.000000 0.261899
vn 0.965095 0.000000 0.261899
vn 0.965095 0.000000 0.261899
vn 0.965095 0.000000 0.261899
vn 0.707020 0.000000 0.707194
vn 0.707020 0.000000 0.707194
vn 0.258089 0.000000 0.966121
vn 0.258089 0.000000 0.966121
vn 0.258089 0.000000 0.966121
vn 0.258089 0.000000 0.966121
vn -0.257122 0.000000 0.966379
vn -0.257122 0.000000 0.966379
vn -0.706991 0.000000 0.707223
vn -0.706991 0.000000 0.707223
vn -0.706991 0.000000 0.707223
vn -0.706991 0.000000 0.707223
vn -0.966087 0.000000 0.258216
vn -0.966087 0.000000 0.258216
vn -0.966345 -0.000000 -0.257248
vn -0.966345 -0.000000 -0.257248
vn -0.966345 -0.000000 -0.257248
vn -0.966345 -0.000000 -0.257248
vn -0.707020 -0.000000 -0.707194
vn -0.707020 -0.000000 -0.707194
vn -0.257122 -0.000000 -0.966379
vn -0.257122 -0.000000 -0.966379
vn -0.257122 -0.000000 -0.966379
vn -0.257122 -0.000000 -0.966379
vn 0.258089 0.000000 -0.966121
vn 0.258089 0.000000 -0.966121
vn 1.000000 0.000000 0.000000
vn 1.000000 0.000000 0.000000
vn -1.000000 0.000000 0.000000
vn -1.000000 0.000000 0.000000
vn -0.498384 -0.000000 -0.866956
vn -0.498384 0.000000 -0.866956
vn 0.501644 -0.000000 0.865074
vn 0.501644 0.000000 0.865074
vn -0.000000 -1.000000 0.000000
vn 0.000000 -1.000000 0.000000
vn -0.000000 -1.000000 0.000000
vn 0.000000 -1.000000 0.000000
vn -0.000000 -1.000000 0.000000
vn 0.000000 -1.000000 0.000000
vn 0.000000 -1.000000 0.000000
vn 0.000000 -1.000000 0.000000
vn 0.000000 -1.000000 0.000000
vn 0.000000 -1.000000 0.000000
vn 0.000000 -1.000000 0.000000
vn 0.000000 -1.000000 0.000000
vn 0.000000 -1.000000 0.000000
vn 0.000000 -1.000000 0.000000
vn 0.000000 -1.000000 0.000000
vn 0.000000 -1.000000 0.000000
vn 0.000000 -1.000000 0.000000
vn 0.000000 -1.000000 0.000000
vn 0.000000 -1.000000 0.000000
vn 0.000000 -1.000000 0.000000
vn 0.000000 -1.000000 -0.000000
vn 0.000000 -1.000000 0.000000
vn 0.000000 -1.000000 -0.000000
vn 0.000000 -1.000000 0.000000
vn -0.212773 -0.568747 0.794515
vn -0.214358 -0.565485 0.796415
vn -0.582682 -0.566343 0.582870
vn -0.956076 0.140078 -0.257481
vn -0.956098 0.140531 -0.257151
vn -0.699919 0.141397 -0.700086
vn -0.700985 0.144036 -0.698480
vn -0.257174 0.144230 -0.955541
vn -0.254531 0.140192 -0.956849
vn 0.256623 0.140111 -0.956302
vn 0.253726 0.144093 -0.956483
vn 0.699642 0.144108 -0.699810
vn 0.701247 0.141464 -0.698742
vn 0.956012 0.140544 -0.257464
vn 0.956142 0.140144 -0.257202
vn 0.956257 0.140161 0.256762
vn 0.956273 0.140491 0.256522
vn 0.699902 0.141355 0.700112
vn 0.700985 0.144036 0.698480
vn 0.256471 0.144202 0.955735
vn 0.256253 0.143869 0.955843
vn -0.257189 0.143832 0.955597
vn -0.256906 0.144219 0.955615
vn -0.699621 0.144109 0.699831
vn -0.701251 0.141424 0.698746
vn -0.956211 0.140500 0.256750
vn -0.956335 0.140116 0.256499
vn -0.000000 -1.000000 0.000000
vn 0.000000 -1.000000 0.000000
vn -0.000000 -1.000000 0.000000
vn 0.000000 -1.000000 0.000000
vn -0.000000 -1.000000 0.000000
vn 0.000000 -1.000000 0.000000
vn 0.000000 -1.000000 0.000000
vn 0.000000 -1.000000 0.000000
vn 0.000000 -1.000000 0.000000
vn 0.000000 -1.000000 0.000000
vn 0.000000 -1.000000 0.000000
vn 0.000000 -1.000000 0.000000
vn 0.000000 -1.000000 0.000000
vn 0.000000 -1.000000 0.000000
vn 0.000000 -1.000000 0.000000
vn 0.000000 -1.000000 0.000000
vn 0.000000 -1.000000 0.000000
vn 0.000000 -1.000000 0.000000
vn 0.000000 -1.000000 0.000000
vn 0.000000 -1.000000 0.000000
vn 0.000000 -1.000000 -0.000000
vn 0.000000 -1.000000 0.000000
vn 0.000000 -1.000000 -0.000000
vn 0.000000 -1.000000 0.000000
vn -0.872154 0.430324 0.232741
vn -0.868932 0.435939 0.234338
vn -0.954098 0.153266 0.257306
vn -0.954806 0.150501 0.256310
vn -0.700220 0.149829 0.698028
vn -0.637462 0.435689 0.635466
vn -0.637612 0.432065 0.637786
vn -0.700247 0.149761 0.698015
vn -0.255691 0.150498 0.954972
vn -0.256891 0.147766 0.955077
vn 0.255213 0.147834 0.955516
vn 0.256172 0.150495 0.954844
vn -0.955698 0.141524 0.258093
vn -0.955967 0.140360 0.257732
vn -0.701782 0.140698 0.698360
vn -0.696611 0.154997 0.700506
vn -0.255090 0.152596 0.954800
vn -0.259412 0.141472 0.955349
vn 0.254593 0.141660 0.956616
vn 0.258030 0.152773 0.953982
vn 0.700275 0.154916 0.696861
vn 0.698110 0.140507 0.702069
vn 0.955870 0.140374 0.258085
vn 0.955825 0.141392 0.257694
vn 0.955490 0.141343 -0.258962
vn 0.955068 0.143150 -0.259523
vn 0.699219 0.147922 -0.699437
vn 0.699216 0.147931 -0.699438
vn 0.257866 0.143068 -0.955529
vn 0.258525 0.141360 -0.955606
vn -0.258857 0.141347 -0.955518
vn -0.259402 0.143104 -0.955108
vn -0.699230 0.147823 -0.699447
vn -0.699244 0.147923 -0.699411
vn -0.955229 0.143121 -0.258946
vn -0.955302 0.141465 -0.259587
vn -0.000000 1.000000 0.000000
vn 0.000000 1.000000 0.000000
vn 0.000000 1.000000 0.000000
vn 0.000000 1.000000 0.000000
vn 0.000000 1.000000 0.000000
vn 0.000000 1.000000 0.000000
vn 0.000000 1.000000 0.000000
vn 0.000000 1.000000 0.000000
vn 0.000000 1.000000 0.000000
vn 0.000000 1.000000 0.000000
vn 0.000000 1.000000 0.000000
vn 0.000000 1.000000 0.000000
vn 0.000000 1.000000 -0.000000
vn 0.000000 1.000000 0.000000
vn 0.000000 1.000000 -0.000000
vn 0.000000 1.000000 0.000000
vn 0.000000 1.000000 -0.000000
vn 0.000000 1.000000 0.000000
vn -0.000000 1.000000 0.000000
vn 0.000000 1.000000 0.000000
vn -0.000000 1.000000 0.000000
vn 0.000000 1.000000 0.000000
vn -0.000000 1.000000 0.000000
vn 0.000000 1.000000 0.000000
vn -0.866853 -0.000000 -0.498564
vn -0.866853 0.000000 -0.498564
vn 0.000000 -1.000000 0.000000
vn 0.000000 -1.000000 0.000000
vn 0.000000 -1.000000 0.000000
vn 0.000000 -1.000000 0.000000
vn 0.000000 -1.000000 0.000000
vn 0.000000 -1.000000 0.000000
vn -0.000000 -1.000000 0.000000
vn 0.000000 -1.000000 0.000000
vn -0.000000 -1.000000 0.000000
vn 0.000000 -1.000000 0.000000
vn -0.000000 -1.000000 0.000000
vn 0.000000 -1.000000 0.000000
vn -0.000000 -1.000000 -0.000000
vn 0.000000 -1.000000 0.000000
vn 0.000000 -1.000000 -0.000000
vn 0.000000 -1.000000 0.000000
vn 0.000000 -1.000000 -0.000000
vn 0.000000 -1.000000 0.000000
vn 0.000000 -1.000000 0.000000
vn 0.000000 -1.000000 0.000000
vn 0.000000 -1.000000 0.000000
vn 0.000000 -1.000000 0.000000
vn 0.000000 -1.000000 0.000000
vn 0.000000 -1.000000 0.000000
vn 0.000000 1.000000 0.000000
vn 0.000000 1.000000 0.000000
vn 0.000000 1.000000 0.000000
vn 0.000000 1.000000 0.000000
vn 0.000000 1.000000 0.000000
vn 0.000000 1.000000 0.000000
vn 0.000000 1.000000 0.000000
vn 0.000000 1.000000 0.000000
vn 0.000000 1.000000 0.000000
vn 0.000000 1.000000 0.000000
vn 0.000000 1.000000 0.000000
vn 0.000000 1.000000 0.000000
vn -0.000000 1.000000 0.000000
vn 0.000000 1.000000 0.000000
vn -0.000000 1.000000 0.000000
vn 0.000000 1.000000 0.000000
vn -0.000000 1.000000 0.000000
vn 0.000000 1.000000 0.000000
vn 0.000000 1.000000 0.000000
vn 0.000000 1.000000 0.000000
vn 0.000000 1.000000 -0.000000
vn 0.000000 1.000000 0.000000
vn 0.000000 1.000000 -0.000000
vn 0.000000 1.000000 0.000000
vn -0.956475 0.141617 0.255147
vn -0.956200 0.142888 0.255468
vn -0.699251 0.147792 0.699432
vn -0.699248 0.147800 0.699433
vn -0.258568 0.142934 0.955360
vn -0.259050 0.141464 0.955448
vn 0.257860 0.141511 0.955763
vn 0.258203 0.142876 0.955467
vn 0.699261 0.147692 0.699443
vn 0.699261 0.147685 0.699445
vn 0.956322 0.142722 0.255106
vn 0.956399 0.141455 0.255521
vn 0.956298 0.141440 -0.255909
vn 0.956008 0.142779 -0.256248
vn 0.699262 0.147685 -0.699444
vn 0.699225 0.147801 -0.699456
vn 0.254950 0.142862 -0.956343
vn 0.255409 0.141460 -0.956429
vn -0.255756 0.141446 -0.956338
vn -0.256140 0.142960 -0.956010
vn -0.699239 0.147907 -0.699420
vn -0.699226 0.147791 -0.699457
vn -0.956094 0.142907 -0.255854
vn -0.956175 0.141572 -0.256293
vn 0.000000 -0.000000 1.000000
vn 0.000000 0.000000 1.000000
vn 0.000000 1.000000 0.000000
vn 0.000000 1.000000 -0.000000
vn -0.260556 0.000000 -0.965459
vn -0.260556 0.000000 -0.965459
vn -0.000000 -1.000000 0.000000
vn 0.000000 -1.000000 0.000000
vn -0.000000 -1.000000 0.000000
vn 0.000000 -1.000000 0.000000
vn -0.000000 -1.000000 0.000000
vn 0.000000 -1.000000 0.000000
vn 0.000000 -1.000000 0.000000
vn 0.000000 -1.000000 0.000000
vn 0.000000 -1.000000 0.000000
vn 0.000000 -1.000000 0.000000
vn 0.000000 -1.000000 0.000000
vn 0.000000 -1.000000 0.000000
vn 0.000000 -1.000000 0.000000
vn 0.000000 -1.000000 0.000000
vn 0.000000 -1.000000 0.000000
vn 0.000000 -1.000000 0.000000
vn 0.000000 -1.000000 0.000000
vn 0.000000 -1.000000 0.000000
vn 0.000000 -1.000000 0.000000
vn 0.000000 -1.000000 0.000000
vn 0.000000 -1.000000 -0.000000
vn 0.000000 -1.000000 0.000000
vn 0.000000 -1.000000 -0.000000
vn 0.000000 -1.000000 0.000000
vn 0.866837 0.000000 -0.498592
vn 0.866837 0.000000 -0.498592
vn 0.864970 -0.000000 0.501824
vn 0.864970 0.000000 0.501824
vn 0.000000 1.000000 0.000000
vn 0.000000 1.000000 0.000000
vn -0.000000 -0.000000 -1.000000
vn 0.000000 0.000000 -1.000000
vn -0.966084 -0.000000 -0.258229
vn -0.966084 0.000000 -0.258229
vn 0.000000 1.000000 0.000000
vn 0.000000 1.000000 -0.000000
vn -0.864986 0.000000 0.501796
vn -0.864986 0.000000 0.501796
vn 0.501616 0.000000 -0.865090
vn 0.501616 0.000000 -0.865090
vn -0.000000 1.000000 0.000000
vn 0.000000 1.000000 0.000000
vn 0.000000 1.000000 0.000000
vn 0.000000 1.000000 0.000000
vn 0.000000 1.000000 0.000000
vn 0.000000 1.000000 0.000000
vn 0.000000 1.000000 0.000000
vn 0.000000 1.000000 0.000000
vn 0.000000 1.000000 0.000000
vn 0.000000 1.000000 0.000000
vn 0.000000 1.000000 0.000000
vn 0.000000 1.000000 0.000000
vn 0.000000 1.000000 -0.000000
vn 0.000000 1.000000 0.000000
vn 0.000000 1.000000 -0.000000
vn 0.000000 1.000000 0.000000
vn 0.000000 1.000000 -0.000000
vn 0.000000 1.000000 0.000000
vn -0.000000 1.000000 0.000000
vn 0.000000 1.000000 0.000000
vn -0.000000 1.000000 0.000000
vn 0.000000 1.000000 0.000000
vn -0.000000 1.000000 0.000000
vn 0.000000 1.000000 0.000000
vn 0.000000 1.000000 -0.000000
vn -0.000000 1.000000 0.000000
vn -0.498412 0.000000 0.866940
vn -0.498412 0.000000 0.866940
vn 0.000000 1.000000 0.000000
vn 0.000000 1.000000 0.000000
vn -0.965702 0.000000 -0.259652
vn -0.965702 0.000000 -0.259652
vn -0.707004 0.000000 -0.707210
vn -0.707004 0.000000 -0.707210
vn -0.259512 0.000000 -0.965740
vn -0.259512 0.000000 -0.965740
vn 0.258808 0.000000 -0.965929
vn 0.258808 0.000000 -0.965929
vn 0.707004 0.000000 -0.707210
vn 0.707004 0.000000 -0.707210
vn 0.965713 0.000000 -0.259614
vn 0.965713 0.000000 -0.259614
vn 0.966084 -0.000000 0.258227
vn 0.966084 -0.000000 0.258227
vn 0.705640 -0.000000 0.708571
vn 0.705640 -0.000000 0.708571
vn 0.258808 -0.000000 0.965929
vn 0.258808 -0.000000 0.965929
vn -0.259512 0.000000 0.965740
vn -0.259512 0.000000 0.965740
vn -0.705640 0.000000 0.708571
vn -0.705640 0.000000 0.708571
vn -0.966074 0.000000 0.258266
vn -0.966074 0.000000 0.258266
vn -0.000000 1.000000 0.000000
vn -0.000000 1.000000 0.000000
vn 0.000000 1.000000 0.000000
vn 0.000000 1.000000 0.000000
vn 0.000000 1.000000 0.000000
vn -0.000000 1.000000 0.000000
vn 0.000000 1.000000 0.000000
vn 0.000000 1.000000 0.000000
vn 0.000000 1.000000 0.000000
vn 0.000000 1.000000 -0.000000
vn 0.000000 1.000000 -0.000000
vn 0.000000 1.000000 0.000000
vn 0.146041 -0.978353 -0.146623
vn 0.145858 -0.978399 -0.146499
vn 0.053992 -0.978295 -0.200061
vn 0.053271 -0.978633 -0.198593
vn -0.053595 -0.978616 -0.198590
vn -0.053650 -0.978450 -0.199393
vn -0.144765 -0.978814 -0.144797
vn -0.146015 -0.978350 -0.146666
vn -0.200316 -0.978267 -0.053543
vn -0.201293 -0.978040 -0.054021
vn -0.201295 -0.978052 0.053805
vn -0.201040 -0.978105 0.053788
vn -0.147954 -0.977943 0.147433
vn -0.144408 -0.978829 0.145051
vn -0.053654 -0.978440 0.199439
vn -0.151448 -0.812493 0.562955
vn -0.149827 -0.814746 0.560125
vn -0.222200 -0.510469 0.830691
vn 0.224449 -0.510199 0.830252
vn 0.220943 -0.518575 0.825993
vn 0.606605 -0.513711 0.606738
vn 0.602080 -0.520992 0.605035
vn 0.824461 -0.521374 0.220077
vn 0.824784 -0.520884 0.220024
vn 0.824617 -0.520778 -0.220901
vn 0.824273 -0.521442 -0.220620
vn 0.603369 -0.521228 -0.603545
vn 0.605029 -0.514080 -0.607998
vn 0.220920 -0.518724 -0.825905
vn 0.150243 -0.813597 -0.561682
vn 0.150238 -0.814695 -0.560090
vn 0.410821 -0.812891 -0.412837
vn 0.411323 -0.812488 -0.413131
vn 0.561435 -0.813688 -0.150672
vn 0.200209 -0.978279 -0.053730
vn 0.201295 -0.978052 -0.053805
vn 0.560117 -0.814735 -0.149918
vn 0.560159 -0.814796 0.149431
vn 0.561600 -0.813652 0.150254
vn 0.411273 -0.812539 0.413080
vn 0.410771 -0.812942 0.412787
vn 0.150218 -0.813666 0.561588
vn 0.201295 -0.978049 0.053856
vn 0.201065 -0.978103 0.053743
vn 0.147524 -0.977896 0.148173
vn 0.146260 -0.978369 0.146293
vn 0.053711 -0.978268 0.200268
vn 0.053595 -0.978616 0.198590
vn -0.053595 -0.978616 0.198590
vn -0.414319 -0.809410 0.416166
vn -0.411955 -0.812693 0.412096
vn -0.606440 -0.514013 0.606647
vn -0.830276 -0.511470 0.221448
vn -0.825366 -0.521048 0.217438
vn -0.824746 -0.520657 -0.220706
vn -0.830892 -0.511237 -0.219672
vn -0.605076 -0.513779 -0.608205
vn -0.603340 -0.521261 -0.603546
vn -0.415386 -0.809192 -0.415528
vn -0.150702 -0.812326 -0.563396
vn -0.150692 -0.814638 -0.560051
vn -0.411313 -0.812485 -0.413146
vn -0.561435 -0.813688 -0.150672
vn -0.560026 -0.814807 -0.149865
vn -0.560068 -0.814868 0.149379
vn -0.561600 -0.813652 0.150254
vn -0.220495 -0.521426 -0.824316
vn -0.220892 -0.520488 -0.824802
vn -0.601850 -0.521393 0.604918
vn -0.223400 -0.521638 0.823399
vn 0.000000 -1.000000 0.000000
vn -0.000000 -1.000000 0.000000
vn 0.000000 -1.000000 0.000000
vn -0.000000 -1.000000 0.000000
vn 0.000000 -1.000000 -0.000000
vn 0.000000 -1.000000 0.000000
vn 0.000000 -1.000000 -0.000000
vn 0.000000 -1.000000 0.000000
vn 0.000000 -1.000000 0.000000
vn 0.000000 -1.000000 0.000000
vn 0.000000 -1.000000 0.000000
vn 0.000000 -1.000000 0.000000
vn 0.000000 -1.000000 -0.000000
vn 0.000000 -1.000000 0.000000
vn -0.000000 -1.000000 0.000000
vn 0.000000 -1.000000 0.000000
vn -0.000000 -1.000000 0.000000
vn 0.000000 -1.000000 0.000000
vn -0.000000 -1.000000 0.000000
vn 0.000000 -1.000000 0.000000
vn 0.000000 -1.000000 0.000000
vn 0.000000 -1.000000 0.000000
vn 0.000000 -1.000000 0.000000
vn 0.000000 -1.000000 0.000000
vn 0.000000 -1.000000 0.000000
vn 0.000000 -1.000000 0.000000
vn 0.000000 -1.000000 0.000000
vn 0.000000 -1.000000 0.000000
vn 0.000000 -1.000000 0.000000
vn 0.000000 -1.000000 0.000000
vn 0.000000 -1.000000 0.000000
vn 0.000000 -1.000000 0.000000
vn 0.000000 -1.000000 0.000000
vn 0.000000 -1.000000 0.000000
vn 0.000000 -1.000000 -0.000000
vn 0.000000 -1.000000 0.000000
vn -0.210485 0.584351 0.783728
vn -0.965597 0.000000 -0.260043
vn -0.233381 0.431002 0.871648
vn -0.872048 0.430272 -0.233233
vn 0.189697 0.683125 0.705234
vn 0.582707 0.566293 0.582894
vn 0.150214 -0.814698 0.560092
vn -0.646014 0.406367 0.646167
vn 0.212992 0.565282 -0.796926
vn 0.220137 -0.520580 -0.824946
usemtl white_marble
f 1/1/1 2/2/1 3/3/1
f 2/2/2 4/4/2 3/3/2
f 2/2/3 5/5/3 4/4/3
f 5/5/4 6/6/4 4/4/4
f 5/5/5 7/7/5 6/6/5
f 7/7/6 8/8/6 6/6/6
f 7/7/7 9/9/7 8/8/7
f 9/9/8 10/10/8 8/8/8
f 9/9/9 11/11/9 10/10/9
f 11/11/10 12/12/10 10/10/10
f 11/11/11 13/13/11 12/12/11
f 13/13/12 14/14/12 12/12/12
f 13/13/13 15/15/13 14/14/13
f 15/15/14 16/16/14 14/14/14
f 15/15/15 17/17/15 16/16/15
f 17/17/16 18/18/16 16/16/16
f 17/17/17 19/19/17 18/18/17
f 19/19/18 20/20/18 18/18/18
f 19/19/19 21/21/19 20/20/19
f 21/21/20 22/22/20 20/20/20
f 21/21/21 23/23/21 22/22/21
f 23/23/22 24/24/22 22/22/22
f 23/23/23 25/25/23 24/24/23
f 25/25/24 26/26/24 24/24/24
f 27/27/25 28/28/25 29/29/25
f 28/28/26 30/30/26 29/29/26
f 28/28/27 31/31/27 30/30/27
f 31/31/28 32/32/28 30/30/28
f 31/31/29 33/33/29 32/32/29
f 33/33/30 34/34/30 32/32/30
f 33/33/31 35/35/31 34/34/31
f 35/35/32 36/36/32 34/34/32
f 35/35/33 37/37/33 36/36/33
f 37/37/34 38/38/34 36/36/34
f 37/37/35 39/39/35 38/38/35
f 39/39/36 40/40/36 38/38/36
f 39/39/37 41/41/37 40/40/37
f 41/41/38 42/42/38 40/40/38
f 41/41/39 43/43/39 42/42/39
f 43/43/40 44/44/40 42/42/40
f 43/43/41 45/45/41 44/44/41
f 45/45/42 46/46/42 44/44/42
f 45/45/43 47/47/43 46/46/43
f 47/47/44 48/48/44 46/46/44
f 47/47/45 49/49/45 48/48/45
f 49/49/46 50/50/46 48/48/46
f 49/49/47 51/51/47 50/50/47
f 51/51/48 52/52/48 50/50/48
f 53/53/49 54/54/49 55/55/49
f 54/54/50 56/56/50 55/55/50
f 54/54/51 57/57/51 56/56/51
f 57/57/52 58/58/52 56/56/52
f 57/57/53 59/59/53 58/58/53
f 59/59/54 60/60/54 58/58/54
f 59/59/55 61/61/55 60/60/55
f 61/61/56 62/62/56 60/60/56
f 61/61/57 63/63/57 62/62/57
f 63/63/58 64/64/58 62/62/58
f 63/63/59 65/65/59 64/64/59
f 65/65/60 66/66/60 64/64/60
f 65/65/61 67/67/61 66/66/61
f 67/67/62 68/68/62 66/66/62
f 67/67/63 69/69/63 68/68/63
f 69/69/64 70/70/64 68/68/64
f 69/69/65 71/71/65 70/70/65
f 71/71/66 72/72/66 70/70/66
f 71/71/67 73/73/67 72/72/67
f 73/73/68 74/74/68 72/72/68
f 73/73/69 75/75/69 74/74/69
f 75/75/70 76/76/70 74/74/70
f 75/75/71 77/77/71 76/76/71
f 77/77/72 78/78/72 76/76/72
f 79/79/73 80/80/73 81/81/73
f 80/80/74 82/82/74 81/81/74
f 81/81/75 82/82/75 83/83/75
f 82/82/76 84/84/76 83/83/76
f 83/83/77 84/84/77 85/85/77
f 84/84/78 86/86/78 85/85/78
f 85/85/79 86/86/79 87/87/79
f 86/86/80 88/88/80 87/87/80
f 87/87/81 88/88/81 89/89/81
f 89/89/82 90/90/82 87/87/82
f 90/90/83 91/91/83 87/87/83
f 87/87/84 91/91/84 83/83/84
f 91/91/85 92/92/85 83/83/85
f 83/83/86 92/92/86 81/81/86
f 90/90/87 93/93/87 91/91/87
f 93/93/88 94/94/88 91/91/88
f 91/91/89 94/94/89 92/92/89
f 90/90/90 95/95/90 93/93/90
f 95/95/91 96/96/91 93/93/91
f 93/93/92 96/96/92 94/94/92
f 90/90/93 97/97/93 95/95/93
f 97/97/94 98/98/94 95/95/94
f 95/95/95 98/98/95 99/99/95
f 98/98/96 100/100/96 99/99/96
f 99/99/97 100/100/97 101/101/97
f 100/100/98 102/102/98 101/101/98
f 101/101/99 102/102/99 103/103/99
f 102/102/100 104/104/100 103/103/100
f 103/103/101 104/104/101 105/105/101
f 104/104/102 106/106/102 105/105/102
f 100/100/103 98/98/103 107/107/103
f 98/98/104 97/97/104 107/107/104
f 107/107/105 97/97/105 108/108/105
f 97/97/106 90/90/106 108/108/106
f 108/108/107 90/90/107 89/89/107
f 107/107/108 109/109/108 100/100/108
f 109/109/109 102/102/109 100/100/109
f 109/109/110 110/110/110 102/102/110
f 110/110/111 111/111/111 102/102/111
f 102/102/112 111/111/112 112/112/112
f 111/111/113 113/113/113 112/112/113
f 112/112/114 113/113/114 114/114/114
f 113/113/115 115/115/115 114/114/115
f 114/114/116 115/115/116 116/116/116
f 115/115/117 117/117/117 116/116/117
f 116/116/118 117/117/118 118/118/118
f 116/116/119 119/119/119 114/114/119
f 119/119/120 120/120/120 114/114/120
f 114/114/121 120/120/121 112/112/121
f 120/120/122 104/104/122 112/112/122
f 112/112/123 104/104/123 102/102/123
f 119/119/124 121/121/124 120/120/124
f 121/121/125 122/122/125 120/120/125
f 120/120/126 122/122/126 104/104/126
f 122/122/127 106/106/127 104/104/127
f 121/121/128 119/119/128 123/123/128
f 119/119/129 124/124/129 123/123/129
f 124/124/130 119/119/130 118/118/130
f 119/119/131 116/116/131 118/118/131
f 105/105/132 125/125/132 103/103/132
f 125/125/133 101/101/133 103/103/133
f 101/101/134 125/125/134 99/99/134
f 125/125/135 126/126/135 99/99/135
f 99/99/136 126/126/136 95/95/136
f 126/126/137 127/127/137 95/95/137
f 95/95/138 127/127/138 96/96/138
f 128/128/139 129/129/139 130/130/139
f 129/129/140 131/131/140 130/130/140
f 129/129/141 132/132/141 131/131/141
f 132/132/142 133/133/142 131/131/142
f 132/132/143 134/134/143 133/133/143
f 134/134/144 135/135/144 133/133/144
f 134/134/145 136/136/145 135/135/145
f 136/136/146 137/137/146 135/135/146
f 136/136/147 138/138/147 137/137/147
f 138/138/148 139/139/148 137/137/148
f 138/138/149 140/140/149 139/139/149
f 140/140/150 141/141/150 139/139/150
f 140/140/151 142/142/151 141/141/151
f 142/142/152 143/143/152 141/141/152
f 142/142/153 144/144/153 143/143/153
f 144/144/154 145/145/154 143/143/154
f 144/144/155 146/146/155 145/145/155
f 146/146/156 147/147/156 145/145/156
f 146/146/157 148/148/157 147/147/157
f 148/148/158 149/149/158 147/147/158
f 148/148/159 150/150/159 149/149/159
f 150/150/160 151/151/160 149/149/160
f 150/150/161 152/152/161 151/151/161
f 152/152/162 153/153/162 151/151/162
f 154/154/163 155/155/163 156/156/163
f 155/155/164 157/157/164 156/156/164
f 155/155/165 158/158/165 157/157/165
f 158/158/166 159/159/166 157/157/166
f 157/157/167 159/159/167 160/160/167
f 159/159/168 161/161/168 160/160/168
f 160/160/169 161/161/169 162/162/169
f 161/161/170 163/163/170 162/162/170
f 162/162/171 163/163/171 164/164/171
f 163/163/172 165/165/172 164/164/172
f 164/164/173 165/165/173 166/166/173
f 165/165/174 167/167/174 166/166/174
f 166/166/175 167/167/175 168/168/175
f 167/167/176 169/169/176 168/168/176
f 168/168/177 169/169/177 170/170/177
f 169/169/178 171/171/178 170/170/178
f 170/170/179 171/171/179 172/172/179
f 171/171/180 173/173/180 172/172/180
f 172/172/181 173/173/181 174/174/181
f 158/158/182 155/155/182 175/175/182
f 155/155/183 176/176/183 175/175/183
f 175/175/184 176/176/184 177/177/184
f 176/176/185 178/178/185 177/177/185
f 177/177/186 178/178/186 179/179/186
f 178/178/187 180/180/187 179/179/187
f 179/179/188 180/180/188 181/181/188
f 176/176/189 182/182/189 178/178/189
f 182/182/190 183/183/190 178/178/190
f 184/184/191 160/160/191 185/185/191
f 160/160/192 162/162/192 185/185/192
f 186/186/193 187/187/193 188/188/193
f 187/187/194 189/189/194 188/188/194
f 190/190/195 191/191/195 192/192/195
f 191/191/196 193/193/196 192/192/196
f 194/194/197 195/195/197 196/196/197
f 195/195/198 197/197/198 196/196/198
f 198/198/199 199/199/199 200/200/199
f 199/199/200 201/201/200 200/200/200
f 202/202/201 203/203/201 204/204/201
f 203/203/202 205/205/202 204/204/202
f 206/206/203 207/207/203 208/208/203
f 207/207/204 209/209/204 208/208/204
f 210/210/205 211/211/205 212/212/205
f 211/211/206 213/213/206 212/212/206
f 211/211/207 214/214/207 213/213/207
f 214/214/208 215/215/208 213/213/208
f 214/214/209 216/216/209 215/215/209
f 216/216/210 217/217/210 215/215/210
f 216/216/211 218/218/211 217/217/211
f 218/218/212 219/219/212 217/217/212
f 218/218/213 220/220/213 219/219/213
f 220/220/214 221/221/214 219/219/214
f 220/220/215 222/222/215 221/221/215
f 222/222/216 223/223/216 221/221/216
f 222/222/217 224/224/217 223/223/217
f 224/224/218 225/225/218 223/223/218
f 224/224/219 226/226/219 225/225/219
f 226/226/220 227/227/220 225/225/220
f 226/226/221 228/228/221 227/227/221
f 228/228/222 229/229/222 227/227/222
f 228/228/223 230/230/223 229/229/223
f 230/230/224 231/231/224 229/229/224
f 230/230/225 232/232/225 231/231/225
f 232/232/226 233/233/226 231/231/226
f 232/232/227 234/234/227 233/233/227
f 234/234/228 235/235/228 233/233/228
f 236/236/229 237/237/229 238/238/229
f 237/237/230 239/239/230 238/238/230
f 238/238/231 239/239/231 240/240/231
f 239/239/232 241/241/232 240/240/232
f 240/240/233 241/241/233 242/242/233
f 241/241/234 243/243/234 242/242/234
f 242/242/235 243/243/235 244/244/235
f 243/243/236 245/245/236 244/244/236
f 244/244/237 245/245/237 246/246/237
f 245/245/238 247/247/238 246/246/238
f 246/246/239 247/247/239 105/105/239
f 247/247/240 125/125/240 105/105/240
f 237/237/241 248/248/241 239/239/241
f 248/248/242 249/249/242 239/239/242
f 239/239/243 249/249/243 241/241/243
f 249/249/244 250/250/244 241/241/244
f 241/241/245 250/250/245 243/243/245
f 250/250/246 251/251/246 243/243/246
f 243/243/247 251/251/247 252/252/247
f 251/251/248 253/253/248 252/252/248
f 252/252/249 253/253/249 245/245/249
f 253/253/250 254/254/250 245/245/250
f 245/245/251 254/254/251 247/247/251
f 254/254/252 255/255/252 247/247/252
f 247/247/253 255/255/253 125/125/253
f 255/255/254 126/126/254 125/125/254
f 248/248/255 256/256/255 249/249/255
f 256/256/256 257/257/256 249/249/256
f 249/249/257 257/257/257 250/250/257
f 257/257/258 251/251/258 250/250/258
f 256/256/259 258/258/259 257/257/259
f 258/258/260 259/259/260 257/257/260
f 257/257/261 259/259/261 251/251/261
f 259/259/262 260/260/262 251/251/262
f 251/251/263 260/260/263 261/261/263
f 260/260/264 262/262/264 261/261/264
f 261/261/265 262/262/265 263/263/265
f 262/262/266 264/264/266 263/263/266
f 263/263/267 264/264/267 265/265/267
f 264/264/268 266/266/268 265/265/268
f 265/265/269 266/266/269 267/267/269
f 266/266/270 268/268/270 267/267/270
f 267/267/271 268/268/271 269/269/271
f 268/268/272 270/270/272 269/269/272
f 269/269/273 270/270/273 271/271/273
f 270/270/274 272/272/274 271/271/274
f 271/271/275 272/272/275 273/273/275
f 272/272/276 274/274/276 273/273/276
f 273/273/277 274/274/277 81/81/277
f 274/274/278 275/275/278 81/81/278
f 81/81/279 275/275/279 79/79/279
f 251/251/280 261/261/280 253/253/280
f 261/261/281 276/276/281 253/253/281
f 253/253/282 276/276/282 277/277/282
f 276/276/283 265/265/283 277/277/283
f 277/277/284 265/265/284 278/278/284
f 265/265/285 269/269/285 278/278/285
f 278/278/286 269/269/286 279/279/286
f 269/269/287 271/271/287 279/279/287
f 279/279/288 271/271/288 96/96/288
f 271/271/289 94/94/289 96/96/289
f 279/279/290 280/280/290 278/278/290
f 280/280/291 255/255/291 278/278/291
f 278/278/292 255/255/292 277/277/292
f 255/255/293 254/254/293 277/277/293
f 277/277/294 254/254/294 253/253/294
f 279/279/295 96/96/295 280/280/295
f 96/96/296 127/127/296 280/280/296
f 280/280/297 127/127/297 255/255/297
f 127/127/298 126/126/298 255/255/298
f 26/26/299 281/281/299 24/24/299
f 281/281/300 282/282/300 24/24/300
f 24/24/301 282/282/301 22/22/301
f 282/282/302 283/283/302 22/22/302
f 22/22/303 283/283/303 20/20/303
f 283/283/304 284/284/304 20/20/304
f 20/20/305 284/284/305 18/18/305
f 284/284/306 285/285/306 18/18/306
f 18/18/307 285/285/307 16/16/307
f 285/285/308 286/286/308 16/16/308
f 16/16/309 286/286/309 14/14/309
f 286/286/310 287/287/310 14/14/310
f 14/14/311 287/287/311 12/12/311
f 287/287/312 288/288/312 12/12/312
f 12/12/313 288/288/313 10/10/313
f 288/288/314 258/258/314 10/10/314
f 10/10/315 258/258/315 8/8/315
f 258/258/316 256/256/316 8/8/316
f 8/8/317 256/256/317 6/6/317
f 256/256/318 248/248/318 6/6/318
f 6/6/319 248/248/319 4/4/319
f 248/248/320 237/237/320 4/4/320
f 4/4/321 237/237/321 3/3/321
f 237/237/322 236/236/322 3/3/322
f 261/261/323 263/263/323 276/276/323
f 263/263/324 265/265/324 276/276/324
f 105/105/325 106/106/325 246/246/325
f 106/106/326 289/289/326 246/246/326
f 246/246/327 289/289/327 244/244/327
f 289/289/328 290/290/328 244/244/328
f 244/244/329 290/290/329 242/242/329
f 290/290/330 291/291/330 242/242/330
f 242/242/331 291/291/331 240/240/331
f 291/291/332 292/292/332 240/240/332
f 240/240/333 292/292/333 293/293/333
f 292/292/334 291/291/334 294/294/334
f 291/291/335 290/290/335 294/294/335
f 294/294/336 290/290/336 295/295/336
f 290/290/337 289/289/337 295/295/337
f 295/295/338 289/289/338 106/106/338
f 106/106/339 122/122/339 295/295/339
f 122/122/340 296/296/340 295/295/340
f 295/295/341 296/296/341 294/294/341
f 296/296/342 297/297/342 294/294/342
f 294/294/343 297/297/343 292/292/343
f 122/122/344 121/121/344 296/296/344
f 121/121/345 123/123/345 296/296/345
f 296/296/346 123/123/346 298/298/346
f 299/299/347 300/300/347 301/301/347
f 300/300/348 302/302/348 301/301/348
f 300/300/349 303/303/349 302/302/349
f 303/303/350 304/304/350 302/302/350
f 303/303/351 305/305/351 304/304/351
f 305/305/352 306/306/352 304/304/352
f 305/305/353 307/307/353 306/306/353
f 307/307/354 308/308/354 306/306/354
f 307/307/355 309/309/355 308/308/355
f 309/309/356 310/310/356 308/308/356
f 309/309/357 311/311/357 310/310/357
f 311/311/358 312/312/358 310/310/358
f 311/311/359 313/313/359 312/312/359
f 313/313/360 314/314/360 312/312/360
f 313/313/361 315/315/361 314/314/361
f 315/315/362 316/316/362 314/314/362
f 315/315/363 317/317/363 316/316/363
f 317/317/364 318/318/364 316/316/364
f 317/317/365 319/319/365 318/318/365
f 319/319/366 320/320/366 318/318/366
f 319/319/367 321/321/367 320/320/367
f 321/321/368 322/322/368 320/320/368
f 321/321/369 323/323/369 322/322/369
f 323/323/370 324/324/370 322/322/370
f 325/325/371 77/77/371 326/326/371
f 77/77/372 75/75/372 326/326/372
f 326/326/373 75/75/373 327/327/373
f 75/75/374 73/73/374 327/327/374
f 327/327/375 73/73/375 328/328/375
f 73/73/376 71/71/376 328/328/376
f 328/328/377 71/71/377 329/329/377
f 71/71/378 69/69/378 329/329/378
f 329/329/379 69/69/379 330/330/379
f 69/69/380 67/67/380 330/330/380
f 330/330/381 67/67/381 331/331/381
f 67/67/382 65/65/382 331/331/382
f 331/331/383 65/65/383 332/332/383
f 65/65/384 63/63/384 332/332/384
f 332/332/385 63/63/385 333/333/385
f 63/63/386 61/61/386 333/333/386
f 333/333/387 61/61/387 334/334/387
f 61/61/388 59/59/388 334/334/388
f 334/334/389 59/59/389 335/335/389
f 59/59/390 57/57/390 335/335/390
f 335/335/391 57/57/391 336/336/391
f 57/57/392 54/54/392 336/336/392
f 336/336/393 54/54/393 337/337/393
f 54/54/394 53/53/394 337/337/394
f 338/338/395 164/164/395 339/339/395
f 164/164/396 166/166/396 339/339/396
f 340/340/397 341/341/397 342/342/397
f 341/341/398 343/343/398 342/342/398
f 341/341/399 344/344/399 343/343/399
f 344/344/400 345/345/400 343/343/400
f 344/344/401 346/346/401 345/345/401
f 346/346/402 347/347/402 345/345/402
f 346/346/403 348/348/403 347/347/403
f 348/348/404 349/349/404 347/347/404
f 348/348/405 350/350/405 349/349/405
f 350/350/406 351/351/406 349/349/406
f 350/350/407 352/352/407 351/351/407
f 352/352/408 353/353/408 351/351/408
f 352/352/409 354/354/409 353/353/409
f 354/354/410 355/355/410 353/353/410
f 354/354/411 356/356/411 355/355/411
f 356/356/412 357/357/412 355/355/412
f 356/356/413 358/358/413 357/357/413
f 358/358/414 359/359/414 357/357/414
f 358/358/415 360/360/415 359/359/415
f 360/360/416 361/361/416 359/359/416
f 360/360/417 362/362/417 361/361/417
f 362/362/418 363/363/418 361/361/418
f 362/362/419 364/364/419 363/363/419
f 364/364/420 365/365/420 363/363/420
f 258/258/421 288/288/421 259/259/421
f 288/288/422 260/260/422 259/259/422
f 288/288/423 287/287/423 260/260/423
f 287/287/424 262/262/424 260/260/424
f 287/287/425 286/286/425 262/262/425
f 286/286/426 366/366/426 262/262/426
f 262/262/427 366/366/427 264/264/427
f 366/366/428 266/266/428 264/264/428
f 286/286/429 285/285/429 366/366/429
f 285/285/430 367/367/430 366/366/430
f 366/366/431 367/367/431 266/266/431
f 367/367/432 368/368/432 266/266/432
f 266/266/433 368/368/433 369/369/433
f 368/368/434 370/370/434 369/369/434
f 369/369/435 370/370/435 268/268/435
f 370/370/436 371/371/436 268/268/436
f 268/268/437 371/371/437 270/270/437
f 371/371/438 272/272/438 270/270/438
f 371/371/439 372/372/439 272/272/439
f 372/372/440 373/373/440 272/272/440
f 272/272/441 373/373/441 274/274/441
f 373/373/442 374/374/442 274/274/442
f 274/274/443 374/374/443 275/275/443
f 371/371/444 370/370/444 372/372/444
f 370/370/445 375/375/445 372/372/445
f 372/372/446 375/375/446 376/376/446
f 375/375/447 377/377/447 376/376/447
f 376/376/448 374/374/448 372/372/448
f 374/374/449 373/373/449 372/372/449
f 82/82/450 80/80/450 84/84/450
f 80/80/451 378/378/451 84/84/451
f 84/84/452 378/378/452 379/379/452
f 378/378/453 380/380/453 379/379/453
f 381/381/454 382/382/454 383/383/454
f 382/382/455 384/384/455 383/383/455
f 385/385/456 386/386/456 387/387/456
f 386/386/457 388/388/457 387/387/457
f 387/387/458 388/388/458 389/389/458
f 388/388/459 390/390/459 389/389/459
f 389/389/460 390/390/460 391/391/460
f 390/390/461 392/392/461 391/391/461
f 391/391/462 392/392/462 393/393/462
f 392/392/463 394/394/463 393/393/463
f 393/393/464 394/394/464 395/395/464
f 394/394/465 396/396/465 395/395/465
f 395/395/466 396/396/466 397/397/466
f 396/396/467 398/398/467 397/397/467
f 397/397/468 398/398/468 399/399/468
f 398/398/469 400/400/469 399/399/469
f 399/399/470 400/400/470 401/401/470
f 400/400/471 402/402/471 401/401/471
f 401/401/472 402/402/472 403/403/472
f 402/402/473 404/404/473 403/403/473
f 403/403/474 404/404/474 405/405/474
f 404/404/475 406/406/475 405/405/475
f 405/405/476 406/406/476 407/407/476
f 406/406/477 408/408/477 407/407/477
f 407/407/478 408/408/478 409/409/478
f 408/408/479 410/410/479 409/409/479
f 411/411/480 301/301/480 412/412/480
f 301/301/481 302/302/481 412/412/481
f 412/412/482 302/302/482 413/413/482
f 302/302/483 304/304/483 413/413/483
f 413/413/484 304/304/484 414/414/484
f 304/304/485 306/306/485 414/414/485
f 414/414/486 306/306/486 415/415/486
f 306/306/487 308/308/487 415/415/487
f 415/415/488 308/308/488 416/416/488
f 308/308/489 310/310/489 416/416/489
f 416/416/490 310/310/490 417/417/490
f 310/310/491 312/312/491 417/417/491
f 417/417/492 312/312/492 418/418/492
f 312/312/493 314/314/493 418/418/493
f 418/418/494 314/314/494 419/419/494
f 314/314/495 316/316/495 419/419/495
f 419/419/496 316/316/496 420/420/496
f 316/316/497 318/318/497 420/420/497
f 420/420/498 318/318/498 421/421/498
f 318/318/499 320/320/499 421/421/499
f 421/421/500 320/320/500 422/422/500
f 320/320/501 322/322/501 422/422/501
f 422/422/502 322/322/502 423/423/502
f 322/322/503 324/324/503 423/423/503
f 424/424/504 425/425/504 426/426/504
f 425/425/505 207/207/505 426/426/505
f 426/426/506 207/207/506 427/427/506
f 207/207/507 428/428/507 427/427/507
f 425/425/508 429/429/508 207/207/508
f 429/429/509 209/209/509 207/207/509
f 429/429/510 430/430/510 209/209/510
f 430/430/511 203/203/511 209/209/511
f 209/209/512 203/203/512 431/431/512
f 203/203/513 432/432/513 431/431/513
f 430/430/514 433/433/514 203/203/514
f 433/433/515 205/205/515 203/203/515
f 433/433/516 434/434/516 205/205/516
f 434/434/517 195/195/517 205/205/517
f 205/205/518 195/195/518 381/381/518
f 195/195/519 382/382/519 381/381/519
f 434/434/520 435/435/520 195/195/520
f 435/435/521 197/197/521 195/195/521
f 435/435/522 436/436/522 197/197/522
f 436/436/523 187/187/523 197/197/523
f 197/197/524 187/187/524 437/437/524
f 187/187/525 438/438/525 437/437/525
f 436/436/526 439/439/526 187/187/526
f 439/439/527 189/189/527 187/187/527
f 439/439/528 440/440/528 189/189/528
f 440/440/529 191/191/529 189/189/529
f 189/189/530 191/191/530 441/441/530
f 191/191/531 442/442/531 441/441/531
f 440/440/532 443/443/532 191/191/532
f 443/443/533 193/193/533 191/191/533
f 443/443/534 444/444/534 193/193/534
f 444/444/535 199/199/535 193/193/535
f 193/193/536 199/199/536 445/445/536
f 199/199/537 446/446/537 445/445/537
f 444/444/538 447/447/538 199/199/538
f 447/447/539 201/201/539 199/199/539
f 448/448/540 449/449/540 195/195/540
f 449/449/541 382/382/541 195/195/541
f 450/450/542 451/451/542 199/199/542
f 451/451/543 446/446/543 199/199/543
f 452/452/544 453/453/544 207/207/544
f 453/453/545 428/428/545 207/207/545
f 438/438/546 187/187/546 454/454/546
f 187/187/547 455/455/547 454/454/547
f 181/181/548 456/456/548 179/179/548
f 456/456/549 457/457/549 179/179/549
f 179/179/550 457/457/550 177/177/550
f 457/457/551 458/458/551 177/177/551
f 177/177/552 458/458/552 175/175/552
f 458/458/553 459/459/553 175/175/553
f 175/175/554 459/459/554 158/158/554
f 459/459/555 460/460/555 158/158/555
f 158/158/556 460/460/556 159/159/556
f 460/460/557 461/461/557 159/159/557
f 159/159/558 461/461/558 161/161/558
f 461/461/559 462/462/559 161/161/559
f 161/161/560 462/462/560 163/163/560
f 462/462/561 463/463/561 163/163/561
f 163/163/562 463/463/562 165/165/562
f 463/463/563 464/464/563 165/165/563
f 165/165/564 464/464/564 167/167/564
f 464/464/565 465/465/565 167/167/565
f 167/167/566 465/465/566 169/169/566
f 465/465/567 466/466/567 169/169/567
f 169/169/568 466/466/568 171/171/568
f 466/466/569 467/467/569 171/171/569
f 171/171/570 467/467/570 173/173/570
f 467/467/571 468/468/571 173/173/571
f 94/94/572 271/271/572 92/92/572
f 271/271/573 273/273/573 92/92/573
f 92/92/574 273/273/574 81/81/574
f 385/385/575 387/387/575 337/337/575
f 387/387/576 336/336/576 337/337/576
f 387/387/577 389/389/577 336/336/577
f 389/389/578 335/335/578 336/336/578
f 389/389/579 391/391/579 335/335/579
f 391/391/580 334/334/580 335/335/580
f 391/391/581 393/393/581 334/334/581
f 393/393/582 333/333/582 334/334/582
f 393/393/583 395/395/583 333/333/583
f 395/395/584 332/332/584 333/333/584
f 395/395/585 397/397/585 332/332/585
f 397/397/586 331/331/586 332/332/586
f 397/397/587 399/399/587 331/331/587
f 399/399/588 330/330/588 331/331/588
f 399/399/589 401/401/589 330/330/589
f 401/401/590 329/329/590 330/330/590
f 401/401/591 403/403/591 329/329/591
f 403/403/592 328/328/592 329/329/592
f 403/403/593 405/405/593 328/328/593
f 405/405/594 327/327/594 328/328/594
f 405/405/595 407/407/595 327/327/595
f 407/407/596 326/326/596 327/327/596
f 407/407/597 409/409/597 326/326/597
f 409/409/598 325/325/598 326/326/598
f 27/27/599 469/469/599 28/28/599
f 469/469/600 470/470/600 28/28/600
f 28/28/601 470/470/601 31/31/601
f 470/470/602 471/471/602 31/31/602
f 31/31/603 471/471/603 33/33/603
f 471/471/604 472/472/604 33/33/604
f 33/33/605 472/472/605 35/35/605
f 472/472/606 473/473/606 35/35/606
f 35/35/607 473/473/607 37/37/607
f 473/473/608 474/474/608 37/37/608
f 37/37/609 474/474/609 39/39/609
f 474/474/610 475/475/610 39/39/610
f 39/39/611 475/475/611 41/41/611
f 475/475/612 476/476/612 41/41/612
f 41/41/613 476/476/613 43/43/613
f 476/476/614 477/477/614 43/43/614
f 43/43/615 477/477/615 45/45/615
f 477/477/616 478/478/616 45/45/616
f 45/45/617 478/478/617 47/47/617
f 478/478/618 479/479/618 47/47/618
f 47/47/619 479/479/619 49/49/619
f 479/479/620 480/480/620 49/49/620
f 49/49/621 480/480/621 51/51/621
f 480/480/622 481/481/622 51/51/622
f 377/377/623 375/375/623 482/482/623
f 375/375/624 483/483/624 482/482/624
f 482/482/625 483/483/625 281/281/625
f 483/483/626 282/282/626 281/281/626
f 282/282/627 483/483/627 484/484/627
f 483/483/628 375/375/628 484/484/628
f 484/484/629 375/375/629 370/370/629
f 282/282/630 484/484/630 283/283/630
f 484/484/631 368/368/631 283/283/631
f 283/283/632 368/368/632 284/284/632
f 368/368/633 367/367/633 284/284/633
f 284/284/634 367/367/634 285/285/634
f 485/485/635 486/486/635 469/469/635
f 486/486/636 470/470/636 469/469/636
f 486/486/637 487/487/637 470/470/637
f 487/487/638 471/471/638 470/470/638
f 487/487/639 488/488/639 471/471/639
f 488/488/640 472/472/640 471/471/640
f 488/488/641 489/489/641 472/472/641
f 489/489/642 473/473/642 472/472/642
f 489/489/643 490/490/643 473/473/643
f 490/490/644 474/474/644 473/473/644
f 490/490/645 491/491/645 474/474/645
f 491/491/646 475/475/646 474/474/646
f 491/491/647 492/492/647 475/475/647
f 492/492/648 476/476/648 475/475/648
f 492/492/649 493/493/649 476/476/649
f 493/493/650 477/477/650 476/476/650
f 493/493/651 494/494/651 477/477/651
f 494/494/652 478/478/652 477/477/652
f 494/494/653 495/495/653 478/478/653
f 495/495/654 479/479/654 478/478/654
f 495/495/655 496/496/655 479/479/655
f 496/496/656 480/480/656 479/479/656
f 496/496/657 497/497/657 480/480/657
f 497/497/658 481/481/658 480/480/658
f 485/485/659 212/212/659 486/486/659
f 212/212/660 213/213/660 486/486/660
f 486/486/661 213/213/661 487/487/661
f 213/213/662 215/215/662 487/487/662
f 487/487/663 215/215/663 488/488/663
f 215/215/664 217/217/664 488/488/664
f 488/488/665 217/217/665 489/489/665
f 217/217/666 219/219/666 489/489/666
f 489/489/667 219/219/667 490/490/667
f 219/219/668 221/221/668 490/490/668
f 490/490/669 221/221/669 491/491/669
f 221/221/670 223/223/670 491/491/670
f 491/491/671 223/223/671 492/492/671
f 223/223/672 225/225/672 492/492/672
f 492/492/673 225/225/673 493/493/673
f 225/225/674 227/227/674 493/493/674
f 493/493/675 227/227/675 494/494/675
f 227/227/676 229/229/676 494/494/676
f 494/494/677 229/229/677 495/495/677
f 229/229/678 231/231/678 495/495/678
f 495/495/679 231/231/679 496/496/679
f 231/231/680 233/233/680 496/496/680
f 496/496/681 233/233/681 497/497/681
f 233/233/682 235/235/682 497/497/682
f 197/197/683 437/437/683 498/498/683
f 437/437/684 499/499/684 498/498/684
f 365/365/685 234/234/685 363/363/685
f 234/234/686 232/232/686 363/363/686
f 363/363/687 232/232/687 361/361/687
f 232/232/688 230/230/688 361/361/688
f 361/361/689 230/230/689 359/359/689
f 230/230/690 228/228/690 359/359/690
f 359/359/691 228/228/691 357/357/691
f 228/228/692 226/226/692 357/357/692
f 357/357/693 226/226/693 355/355/693
f 226/226/694 224/224/694 355/355/694
f 355/355/695 224/224/695 353/353/695
f 224/224/696 222/222/696 353/353/696
f 353/353/697 222/222/697 351/351/697
f 222/222/698 220/220/698 351/351/698
f 351/351/699 220/220/699 349/349/699
f 220/220/700 218/218/700 349/349/700
f 349/349/701 218/218/701 347/347/701
f 218/218/702 216/216/702 347/347/702
f 347/347/703 216/216/703 345/345/703
f 216/216/704 214/214/704 345/345/704
f 345/345/705 214/214/705 343/343/705
f 214/214/706 211/211/706 343/343/706
f 343/343/707 211/211/707 342/342/707
f 211/211/708 210/210/708 342/342/708
f 128/128/709 364/364/709 129/129/709
f 364/364/710 362/362/710 129/129/710
f 129/129/711 362/362/711 132/132/711
f 362/362/712 360/360/712 132/132/712
f 132/132/713 360/360/713 134/134/713
f 360/360/714 358/358/714 134/134/714
f 134/134/715 358/358/715 136/136/715
f 358/358/716 356/356/716 136/136/716
f 136/136/717 356/356/717 138/138/717
f 356/356/718 354/354/718 138/138/718
f 138/138/719 354/354/719 140/140/719
f 354/354/720 352/352/720 140/140/720
f 140/140/721 352/352/721 142/142/721
f 352/352/722 350/350/722 142/142/722
f 142/142/723 350/350/723 144/144/723
f 350/350/724 348/348/724 144/144/724
f 144/144/725 348/348/725 146/146/725
f 348/348/726 346/346/726 146/146/726
f 146/146/727 346/346/727 148/148/727
f 346/346/728 344/344/728 148/148/728
f 148/148/729 344/344/729 150/150/729
f 344/344/730 341/341/730 150/150/730
f 150/150/731 341/341/731 152/152/731
f 341/341/732 340/340/732 152/152/732
f 410/410/733 408/408/733 500/500/733
f 408/408/734 501/501/734 500/500/734
f 408/408/735 406/406/735 501/501/735
f 406/406/736 502/502/736 501/501/736
f 406/406/737 404/404/737 502/502/737
f 404/404/738 503/503/738 502/502/738
f 404/404/739 402/402/739 503/503/739
f 402/402/740 504/504/740 503/503/740
f 402/402/741 400/400/741 504/504/741
f 400/400/742 505/505/742 504/504/742
f 400/400/743 398/398/743 505/505/743
f 398/398/744 506/506/744 505/505/744
f 398/398/745 396/396/745 506/506/745
f 396/396/746 507/507/746 506/506/746
f 396/396/747 394/394/747 507/507/747
f 394/394/748 508/508/748 507/507/748
f 394/394/749 392/392/749 508/508/749
f 392/392/750 509/509/750 508/508/750
f 392/392/751 390/390/751 509/509/751
f 390/390/752 510/510/752 509/509/752
f 390/390/753 388/388/753 510/510/753
f 388/388/754 511/511/754 510/510/754
f 388/388/755 386/386/755 511/511/755
f 386/386/756 512/512/756 511/511/756
f 513/513/757 514/514/757 431/431/757
f 514/514/758 209/209/758 431/431/758
f 515/515/759 516/516/759 428/428/759
f 516/516/760 427/427/760 428/428/760
f 517/517/761 168/168/761 518/518/761
f 168/168/762 170/170/762 518/518/762
f 153/153/763 500/500/763 151/151/763
f 500/500/764 501/501/764 151/151/764
f 151/151/765 501/501/765 149/149/765
f 501/501/766 502/502/766 149/149/766
f 149/149/767 502/502/767 147/147/767
f 502/502/768 503/503/768 147/147/768
f 147/147/769 503/503/769 145/145/769
f 503/503/770 504/504/770 145/145/770
f 145/145/771 504/504/771 143/143/771
f 504/504/772 505/505/772 143/143/772
f 143/143/773 505/505/773 141/141/773
f 505/505/774 506/506/774 141/141/774
f 141/141/775 506/506/775 139/139/775
f 506/506/776 507/507/776 139/139/776
f 139/139/777 507/507/777 137/137/777
f 507/507/778 508/508/778 137/137/778
f 137/137/779 508/508/779 135/135/779
f 508/508/780 509/509/780 135/135/780
f 135/135/781 509/509/781 133/133/781
f 509/509/782 510/510/782 133/133/782
f 133/133/783 510/510/783 131/131/783
f 510/510/784 511/511/784 131/131/784
f 131/131/785 511/511/785 130/130/785
f 511/511/786 512/512/786 130/130/786
f 193/193/787 445/445/787 519/519/787
f 445/445/788 520/520/788 519/519/788
f 521/521/789 522/522/789 427/427/789
f 522/522/790 426/426/790 427/427/790
f 445/445/791 446/446/791 523/523/791
f 446/446/792 524/524/792 523/523/792
f 189/189/793 441/441/793 525/525/793
f 441/441/794 526/526/794 525/525/794
f 174/174/795 527/527/795 172/172/795
f 527/527/796 528/528/796 172/172/796
f 437/437/797 438/438/797 529/529/797
f 438/438/798 530/530/798 529/529/798
f 531/531/799 532/532/799 381/381/799
f 532/532/800 205/205/800 381/381/800
f 533/533/801 534/534/801 203/203/801
f 534/534/802 432/432/802 203/203/802
f 78/78/803 25/25/803 76/76/803
f 25/25/804 23/23/804 76/76/804
f 76/76/805 23/23/805 74/74/805
f 23/23/806 21/21/806 74/74/806
f 74/74/807 21/21/807 72/72/807
f 21/21/808 19/19/808 72/72/808
f 72/72/809 19/19/809 70/70/809
f 19/19/810 17/17/810 70/70/810
f 70/70/811 17/17/811 68/68/811
f 17/17/812 15/15/812 68/68/812
f 68/68/813 15/15/813 66/66/813
f 15/15/814 13/13/814 66/66/814
f 66/66/815 13/13/815 64/64/815
f 13/13/816 11/11/816 64/64/816
f 64/64/817 11/11/817 62/62/817
f 11/11/818 9/9/818 62/62/818
f 62/62/819 9/9/819 60/60/819
f 9/9/820 7/7/820 60/60/820
f 60/60/821 7/7/821 58/58/821
f 7/7/822 5/5/822 58/58/822
f 58/58/823 5/5/823 56/56/823
f 5/5/824 2/2/824 56/56/824
f 56/56/825 2/2/825 55/55/825
f 2/2/826 1/1/826 55/55/826
f 535/535/827 536/536/827 442/442/827
f 536/536/828 441/441/828 442/442/828
f 442/442/829 191/191/829 537/537/829
f 191/191/830 538/538/830 537/537/830
f 539/539/831 540/540/831 432/432/831
f 540/540/832 431/431/832 432/432/832
f 468/468/833 467/467/833 423/423/833
f 467/467/834 422/422/834 423/423/834
f 467/467/835 466/466/835 422/422/835
f 466/466/836 421/421/836 422/422/836
f 466/466/837 465/465/837 421/421/837
f 465/465/838 420/420/838 421/421/838
f 465/465/839 464/464/839 420/420/839
f 464/464/840 419/419/840 420/420/840
f 464/464/841 463/463/841 419/419/841
f 463/463/842 418/418/842 419/419/842
f 463/463/843 462/462/843 418/418/843
f 462/462/844 417/417/844 418/418/844
f 462/462/845 461/461/845 417/417/845
f 461/461/846 416/416/846 417/417/846
f 461/461/847 460/460/847 416/416/847
f 460/460/848 415/415/848 416/416/848
f 460/460/849 459/459/849 415/415/849
f 459/459/850 414/414/850 415/415/850
f 459/459/851 458/458/851 414/414/851
f 458/458/852 413/413/852 414/414/852
f 458/458/853 457/457/853 413/413/853
f 457/457/854 412/412/854 413/413/854
f 457/457/855 456/456/855 412/412/855
f 456/456/856 411/411/856 412/412/856
f 541/541/857 542/542/857 543/543/857
f 542/542/858 544/544/858 543/543/858
f 543/543/859 544/544/859 545/545/859
f 545/545/860 546/546/860 543/543/860
f 546/546/861 547/547/861 543/543/861
f 543/543/862 547/547/862 548/548/862
f 548/548/863 549/549/863 543/543/863
f 549/549/864 550/550/864 543/543/864
f 543/543/865 550/550/865 551/551/865
f 551/551/866 552/552/866 543/543/866
f 552/552/867 553/553/867 543/543/867
f 543/543/868 553/553/868 541/541/868
f 554/554/869 555/555/869 556/556/869
f 555/555/870 557/557/870 556/556/870
f 556/556/871 557/557/871 558/558/871
f 557/557/872 559/559/872 558/558/872
f 558/558/873 559/559/873 560/560/873
f 559/559/874 561/561/874 560/560/874
f 560/560/875 561/561/875 562/562/875
f 561/561/876 563/563/876 562/562/876
f 562/562/877 563/563/877 564/564/877
f 563/563/878 565/565/878 564/564/878
f 564/564/879 565/565/879 566/566/879
f 565/565/880 567/567/880 566/566/880
f 566/566/881 567/567/881 568/568/881
f 567/567/882 569/569/882 568/568/882
f 568/568/883 569/569/883 570/570/883
f 569/569/884 571/571/884 570/570/884
f 570/570/885 571/571/885 572/572/885
f 571/571/886 573/573/886 572/572/886
f 572/572/887 573/573/887 574/574/887
f 572/572/888 574/574/888 575/575/888
f 574/574/889 576/576/889 575/575/889
f 575/575/890 576/576/890 577/577/890
f 576/576/891 578/578/891 577/577/891
f 577/577/892 578/578/892 579/579/892
f 578/578/893 580/580/893 579/579/893
f 579/579/894 580/580/894 581/581/894
f 580/580/895 582/582/895 581/581/895
f 581/581/896 582/582/896 583/583/896
f 582/582/897 584/584/897 583/583/897
f 583/583/898 584/584/898 557/557/898
f 584/584/899 559/559/899 557/557/899
f 583/583/900 557/557/900 581/581/900
f 557/557/901 555/555/901 581/581/901
f 581/581/902 555/555/902 585/585/902
f 555/555/903 554/554/903 585/585/903
f 585/585/904 554/554/904 586/586/904
f 581/581/905 585/585/905 579/579/905
f 585/585/906 577/577/906 579/579/906
f 585/585/907 587/587/907 577/577/907
f 587/587/908 588/588/908 577/577/908
f 577/577/909 588/588/909 575/575/909
f 588/588/910 572/572/910 575/575/910
f 585/585/911 586/586/911 587/587/911
f 586/586/912 589/589/912 587/587/912
f 587/587/913 589/589/913 588/588/913
f 589/589/914 590/590/914 588/588/914
f 588/588/915 590/590/915 570/570/915
f 590/590/916 591/591/916 570/570/916
f 570/570/917 591/591/917 568/568/917
f 569/569/918 567/567/918 571/571/918
f 567/567/919 592/592/919 571/571/919
f 571/571/920 592/592/920 593/593/920
f 592/592/921 594/594/921 593/593/921
f 593/593/922 594/594/922 595/595/922
f 594/594/923 596/596/923 595/595/923
f 595/595/924 596/596/924 597/597/924
f 596/596/925 598/598/925 597/597/925
f 598/598/926 596/596/926 599/599/926
f 596/596/927 561/561/927 599/599/927
f 599/599/928 561/561/928 584/584/928
f 561/561/929 559/559/929 584/584/929
f 561/561/930 596/596/930 563/563/930
f 596/596/931 565/565/931 563/563/931
f 596/596/932 594/594/932 565/565/932
f 594/594/933 592/592/933 565/565/933
f 565/565/934 592/592/934 567/567/934
f 599/599/935 584/584/935 598/598/935
f 584/584/936 600/600/936 598/598/936
f 593/593/937 601/601/937 571/571/937
f 601/601/938 573/573/938 571/571/938
f 602/602/939 603/603/939 604/604/939
f 603/603/940 605/605/940 604/604/940
f 604/604/941 605/605/941 606/606/941
f 606/606/942 607/607/942 604/604/942
f 607/607/943 608/608/943 604/604/943
f 604/604/944 608/608/944 609/609/944
f 609/609/945 610/610/945 604/604/945
f 610/610/946 611/611/946 604/604/946
f 604/604/947 611/611/947 612/612/947
f 612/612/948 613/613/948 604/604/948
f 613/613/949 614/614/949 604/604/949
f 604/604/950 614/614/950 602/602/950
f 597/597/951 615/615/951 595/595/951
f 615/615/952 616/616/952 595/595/952
f 595/595/953 616/616/953 593/593/953
f 616/616/954 617/617/954 593/593/954
f 593/593/955 617/617/955 601/601/955
f 617/617/956 618/618/956 601/601/956
f 601/601/957 618/618/957 573/573/957
f 618/618/958 619/619/958 573/573/958
f 573/573/959 619/619/959 574/574/959
f 619/619/960 620/620/960 574/574/960
f 574/574/961 620/620/961 576/576/961
f 620/620/962 621/621/962 576/576/962
f 576/576/963 621/621/963 578/578/963
f 621/621/964 622/622/964 578/578/964
f 578/578/965 622/622/965 580/580/965
f 622/622/966 623/623/966 580/580/966
f 580/580/967 623/623/967 582/582/967
f 623/623/968 624/624/968 582/582/968
f 582/582/969 624/624/969 600/600/969
f 624/624/970 625/625/970 600/600/970
f 600/600/971 625/625/971 598/598/971
f 625/625/972 626/626/972 598/598/972
f 598/598/973 626/626/973 597/597/973
f 626/626/974 615/615/974 597/597/974
f 87/87/975 83/83/975 85/85/975
f 296/296/976 298/298/976 297/297/976
f 370/370/977 368/368/977 484/484/977
f 240/240/978 293/293/978 238/238/978
f 266/266/979 369/369/979 268/268/979
f 265/265/980 267/267/980 269/269/980
f 572/572/981 588/588/981 570/570/981
f 86/86/982 84/84/982 379/379/982
f 245/245/983 243/243/983 252/252/983
f 584/584/984 582/582/984 600/600/984
