# Snub Dodecahedron (dextro)

v 0.1738636051 0.1534999943 0.9727328506
v 0.1738636051 -0.1534999943 -0.9727328506
v -0.1738636051 -0.1534999943 0.9727328506
v -0.1738636051 0.1534999943 -0.9727328506
v 0.9727328506 0.1738636051 0.1534999943
v 0.9727328506 -0.1738636051 -0.1534999943
v -0.9727328506 -0.1738636051 0.1534999943
v -0.9727328506 0.1738636051 -0.1534999943
v 0.1534999943 0.9727328506 0.1738636051
v 0.1534999943 -0.9727328506 -0.1738636051
v -0.1534999943 -0.9727328506 0.1738636051
v -0.1534999943 0.9727328506 -0.1738636051
v 0.2633386804 -0.2982737072 0.9174342129
v 0.2633386804 0.2982737072 -0.9174342129
v -0.2633386804 0.2982737072 0.9174342129
v -0.2633386804 -0.2982737072 -0.9174342129
v 0.9174342129 -0.2633386804 0.2982737072
v 0.9174342129 0.2633386804 -0.2982737072
v -0.9174342129 0.2633386804 0.2982737072
v -0.9174342129 -0.2633386804 -0.2982737072
v 0.2982737072 -0.9174342129 0.2633386804
v 0.2982737072 0.9174342129 -0.2633386804
v -0.2982737072 0.9174342129 0.2633386804
v -0.2982737072 -0.9174342129 -0.2633386804
v 0.0894750752 0.5795909297 0.8099805955
v 0.0894750752 -0.5795909297 -0.8099805955
v -0.0894750752 -0.5795909297 0.8099805955
v -0.0894750752 0.5795909297 -0.8099805955
v 0.8099805955 0.0894750752 0.5795909297
v 0.8099805955 -0.0894750752 -0.5795909297
v -0.8099805955 -0.0894750752 0.5795909297
v -0.8099805955 0.0894750752 -0.5795909297
v 0.5795909297 0.8099805955 0.0894750752
v 0.5795909297 -0.8099805955 -0.0894750752
v -0.5795909297 -0.8099805955 0.0894750752
v -0.5795909297 0.8099805955 -0.0894750752
v 0.5117068884 0.3931419209 0.7639342186
v 0.5117068884 -0.3931419209 -0.7639342186
v -0.5117068884 -0.3931419209 0.7639342186
v -0.5117068884 0.3931419209 -0.7639342186
v 0.7639342186 0.5117068884 0.3931419209
v 0.7639342186 -0.5117068884 -0.3931419209
v -0.7639342186 -0.5117068884 0.3931419209
v -0.7639342186 0.5117068884 -0.3931419209
v 0.3931419209 0.7639342186 0.5117068884
v 0.3931419209 -0.7639342186 -0.5117068884
v -0.3931419209 -0.7639342186 0.5117068884
v -0.3931419209 0.7639342186 -0.5117068884
v 0.6564806013 -0.3378432832 0.6744591434
v 0.6564806013 0.3378432832 -0.6744591434
v -0.6564806013 0.3378432832 0.6744591434
v -0.6564806013 -0.3378432832 -0.6744591434
v 0.6744591434 -0.6564806013 0.3378432832
v 0.6744591434 0.6564806013 -0.3378432832
v -0.6744591434 0.6564806013 0.3378432832
v -0.6744591434 -0.6564806013 -0.3378432832
v 0.3378432832 -0.6744591434 0.6564806013
v 0.3378432832 0.6744591434 -0.6564806013
v -0.3378432832 0.6744591434 0.6564806013
v -0.3378432832 -0.6744591434 -0.6564806013

g pentagons
f 1 13 49 29 37
f 2 14 50 30 38
f 3 15 51 31 39
f 4 16 52 32 40
f 5 18 54 33 41
f 6 17 53 34 42
f 7 20 56 35 43
f 8 19 55 36 44
f 9 23 59 25 45
f 10 24 60 26 46
f 11 21 57 27 47
f 12 22 58 28 48

g triangles
f 1 15 3
f 2 16 4
f 3 13 1
f 4 14 2
f 5 17 6
f 6 18 5
f 7 19 8
f 8 20 7
f 9 22 12
f 10 21 11
f 11 24 10
f 12 23 9
f 13 57 49
f 14 58 50
f 15 59 51
f 16 60 52
f 17 49 53
f 18 50 54
f 19 51 55
f 20 52 56
f 21 53 57
f 22 54 58
f 23 55 59
f 24 56 60
f 25 37 45
f 26 38 46
f 27 39 47
f 28 40 48
f 29 41 37
f 30 42 38
f 31 43 39
f 32 44 40
f 33 45 41
f 34 46 42
f 35 47 43
f 36 48 44
f 37 25 1
f 38 26 2
f 39 27 3
f 40 28 4
f 41 29 5
f 42 30 6
f 43 31 7
f 44 32 8
f 45 33 9
f 46 34 10
f 47 35 11
f 48 36 12
f 49 17 29
f 50 18 30
f 51 19 31
f 52 20 32
f 53 21 34
f 54 22 33
f 55 23 36
f 56 24 35
f 57 13 27
f 58 14 28
f 59 15 25
f 60 16 26
f 25 15 1
f 26 16 2
f 27 13 3
f 28 14 4
f 29 17 5
f 30 18 6
f 31 19 7
f 32 20 8
f 33 22 9
f 34 21 10
f 35 24 11
f 36 23 12
f 37 41 45
f 38 42 46
f 39 43 47
f 40 44 48
f 49 57 53
f 50 58 54
f 51 59 55
f 52 60 56
